<?xml version="1.0" encoding="utf-8"?>
<!-- Generator: Adobe Illustrator 17.0.2, SVG Export Plug-In . SVG Version: 6.00 Build 0)  -->
<!DOCTYPE svg PUBLIC "-//W3C//DTD SVG 1.1//EN" "http://www.w3.org/Graphics/SVG/1.1/DTD/svg11.dtd">
<svg version="1.1" id="Layer_1" xmlns="http://www.w3.org/2000/svg" xmlns:xlink="http://www.w3.org/1999/xlink" x="0px" y="0px"
	 width="100%" height="100%" viewBox="10.5 205.167 586.667 367.333"
	 enable-background="new 10.5 205.167 586.667 367.333" xml:space="preserve">
<g id="Layer_1_1_">
	<path id="FL" fill="#D3D3D3" stroke="#FFFFFF" stroke-width="0.75" d="M484.888,487.03l1.446,4.671l2.38,6.217l3.405,5.983
		l2.373,4.024l3.095,3.507l2.579,2.373l1.032,1.857l-0.722,0.825l-0.516,0.825l1.857,4.745l1.857,1.857l1.651,3.405l2.27,3.714
		l2.888,5.262l0.825,4.849l0.31,7.634l0.413,1.135l-0.206,2.167l-1.548,0.825l0.206,1.238l-0.413,1.238l0.206,1.548l0.309,1.238
		l-1.754,2.063l-1.96,0.929l-2.476,0.103l-0.929,1.032l-1.548,0.619l-0.825-0.31l-0.722-0.619l-0.206-1.857l-0.516-2.167
		l-2.167-3.301l-2.27-1.444l-2.476-0.206l-0.516,0.825l-1.96-2.786l-0.413-2.27l-1.651-2.579l-1.135-0.722l-1.032,1.341
		l-1.135-0.206l-1.341-3.198l-1.857-2.476l-1.857-3.405l-1.651-1.96l-2.27-2.373l1.341-1.548l2.063-3.507l-0.103-1.032l-2.888-0.619
		l-1.032,0.413l0.206,0.413l1.651,0.619l-0.929,2.888l-0.516,0.31l-1.135-2.579l-0.825-3.095l-0.206-1.754l0.929-2.992v-6.087
		l-1.96-2.373l-0.825-1.96l-3.301-0.825l-1.238-0.413l-1.032-1.651l-2.167-1.032l-0.722-2.167l-1.754-0.619l-1.548-2.373
		l-2.682-0.929l-1.857-0.928h-1.651l-2.579,0.516l-0.103,1.238l0.516,0.619l-0.31,0.722l-1.96-0.103l-2.373,2.27l-2.27,1.238h-2.476
		l-2.063,0.825l-0.206-1.754l-1.032-1.238l-1.857-0.722l-1.032-0.928l-5.158-2.476l-4.849-1.135l-2.786,0.413l-3.817,0.31
		l-3.817,1.341l-2.22,0.391l-0.152-5.137l-1.651-1.238l-1.135-1.135l0.206-1.96l6.5-0.825l16.3-1.857l4.333-0.413l3.469,0.179
		l1.651,2.476l0.929,0.928l5.168,0.329l6.905-0.413l13.728-0.825l3.475-0.43l3.26,0.13l0.272,1.857l1.425,0.516l0.15-2.955
		l-0.975-2.663l0.835-0.919l3.545,0.29L484.888,487.03L484.888,487.03z"/>
	<path id="NH" fill="#D3D3D3" stroke="#FFFFFF" stroke-width="0.75" d="M562.095,297.675l0.555-0.687l0.696-2.1l-1.623-0.583
		l-0.31-1.96l-2.476-0.722l-0.206-1.754l-4.643-14.959l-2.936-9.281l-0.572-0.003l-0.413,1.032l-0.413-0.31l-0.619-0.619
		l-0.929,1.238l-0.031,3.211l0.199,3.616l1.238,1.754v2.579l-2.373,3.231l-1.651,0.722v0.722l0.722,1.135v5.468l-0.516,5.881
		l-0.103,3.095l0.619,0.825l-0.103,2.888l-0.31,1.135l0.618,0.452l10.714-2.824l1.388-0.384l1.177-1.77L562.095,297.675
		L562.095,297.675z"/>
	<g id="MI">
		<path id="MI-" fill="#D3D3D3" stroke="#FFFFFF" stroke-width="0.75" d="M445.35,319.891l-2.063-5.262l-1.444-5.777l-1.548-2.063
			l-1.651-1.135l-1.032,0.722l-2.476,1.135l-1.238,3.198l-1.754,2.373l-0.722,0.413l-0.929-0.413c0,0-1.651-0.929-1.548-1.341
			c0.103-0.413,0.31-3.198,0.31-3.198l2.167-0.825l0.516-2.167l0.413-1.651l1.548-1.032l-0.206-6.396l-1.032-1.444l-0.825-0.516
			l-0.516-1.341l0.516-0.516l1.032,0.206l0.103-1.032l-1.548-1.444l-0.825-1.651h-1.651l-2.888-0.929l-3.507-2.167h-1.754
			l-0.413,0.413l-0.619-0.31l-1.96-1.444l-1.857,1.135l-1.857,1.444l0.206,2.27l0.619,0.206l1.341,0.31l0.31,0.516l-1.651,0.516
			l-1.651,0.206l-0.929,1.135l-0.206,1.341l0.206,1.032l0.206,3.507l-2.27,1.341l-0.413-0.103v-2.682l0.825-1.548l0.413-1.548
			l-0.516-0.516l-1.238,0.516l-0.619,2.682l-1.754,0.722l-1.135,1.238l-0.103,0.619l0.413,0.516l-0.413,1.651l-1.444,0.31v0.722
			l0.516,1.548l-0.722,3.92l-1.032,2.579l0.413,2.992l0.31,0.722l-0.516,1.548l-0.206,0.516l-0.206,1.754l2.27,3.817l1.857,4.126
			l0.929,3.095l-0.516,2.992l-0.619,3.817l-1.548,3.301l-0.206,1.754l-2.08,1.969l2.814-0.103l13.669-1.444l4.645-0.63l0.061,1.063
			l4.373-0.773l6.572-0.959l2.459-0.294l0.088-0.375l0.103-0.929l1.341-2.373l1.277-1.109l-0.142-3.224l1.019-1.019l0.696-0.219
			l0.142-2.27l0.98-1.934l0.671,0.387l0.103,0.413l0.516,0.103l1.238-0.619L445.35,319.891L445.35,319.891z"/>
		<path id="SP-" fill="#D3D3D3" stroke="#FFFFFF" stroke-width="0.75" d="M371.169,259.151L371.169,259.151 M426.575,281.254
			l-1.032-1.908 M362.153,277.756l0.457-0.37l1.754-0.516l2.27-1.444v-0.619l0.413-0.413l3.817-0.619l1.548-1.238l2.786-1.341
			l0.103-0.825l1.238-1.857l1.135-0.516l0.825-1.135l1.444-1.444l2.786-1.548l2.992-0.31l0.722,0.722l-0.206,0.619l-2.373,0.619
			l-0.929,1.96l-1.444,0.516l-0.31,1.548l-1.548,2.063l-0.206,1.651l0.516,0.31l0.619-0.722l2.27-1.857l0.825,0.825h1.444
			l2.063,0.619l0.929,0.722l0.929,1.96l1.754,1.754l2.476-0.103l0.929-0.619l1.032,0.825l1.032,0.31l0.825-0.516h0.722l1.032-0.619
			l2.579-2.27l2.167-0.722l4.23-0.206l2.888-1.238l1.651-0.825l0.929,0.103v3.611l0.31,0.206l1.857,0.516l1.238-0.31l3.92-1.032
			l0.722-0.722l0.929,0.31v4.436l2.063,1.96l0.825,0.413l0.825,0.619l-0.825,0.206l-0.516-0.206l-2.373-0.31l-1.341,0.413
			l-1.444-0.103l-2.063,0.929h-1.135l-3.714-0.825l-3.301,0.103l-1.238,1.651l-4.436,0.413l-1.548,0.516l-0.722,1.96l-0.825,0.722
			l-0.31-0.103l-0.929-1.032l-2.888,1.548h-0.413l-0.722-1.032l-0.516,0.103l-1.238,2.786l-0.619,2.579l-2.03,4.468l-0.751-0.66
			l-0.876-0.658l-1.239-6.565l-2.262-0.874l-1.31-1.459l-7.735-1.75l-1.822-0.657l-5.252-1.387l-5.035-0.729L362.153,277.756
			L362.153,277.756z"/>
	</g>
	<path id="VT" fill="#D3D3D3" stroke="#FFFFFF" stroke-width="0.75" d="M538.92,305.099l0.202-3.412l-1.845-6.882l-0.413-0.206
		l-1.857-0.825l0.516-1.857l-0.516-1.341l-1.723-2.961l0.619-2.476l-0.516-3.301l-1.548-4.126l-0.514-3.142l16.86-4.296l0.197,3.524
		l1.223,1.75v2.579l-2.366,3.228l-1.651,0.729l-0.007,0.715l0.836,0.969l-0.198,5.168l-0.389,5.909l-0.146,3.546l0.619,0.825
		l-0.103,2.917l-0.309,1.078l0.647,0.464l-4.747,0.962L538.92,305.099L538.92,305.099z"/>
	<path id="ME" fill="#D3D3D3" stroke="#FFFFFF" stroke-width="0.75" d="M588.924,257.091l1.238,1.341l1.444,2.373v1.238
		l-1.341,2.992l-1.238,0.413l-2.167,1.96l-3.095,3.507c0,0-0.413,0-0.825,0c-0.413,0-0.619-1.341-0.619-1.341l-1.135,0.103
		l-0.619,0.929l-1.548,0.929l-0.619,0.929l1.032,0.929l-0.31,0.413l-0.31,1.754l-1.238-0.103v-1.032l-0.206-0.825l-0.929,0.206
		l-1.135-2.063l-1.341,0.825l0.825,0.929l0.206,0.722l-0.516,0.825l0.206,1.96l0.103,1.032l-1.032,1.651l-1.857,0.31l-0.206,1.857
		l-3.405,1.96l-0.825,0.31l-1.032-0.929l-1.96,2.27l0.619,2.063l-0.929,0.825l-0.103,2.786l-0.717,3.994l-1.571-0.738l-0.31-1.96
		l-2.476-0.722l-0.206-1.754l-4.643-14.959l-2.999-9.343l0.907-0.075l0.966,0.262v-1.651l0.835-2.869l1.651-2.992l0.929-2.579
		l-1.238-1.548v-3.817l0.516-0.619l0.516-1.754l-0.103-0.929l-0.103-3.095l1.135-3.095l1.857-5.674l1.341-2.682h0.825l0.825,0.103
		v0.722l0.825,1.444l1.754,0.413l0.516-0.516v-0.619l2.579-1.857l1.135-1.135l0.929,0.103l3.817,1.548l1.238,0.619l5.777,19.086
		h3.817l0.516,1.238l0.103,3.095l1.857,1.444h0.516l0.103-0.31l-0.31-0.722L588.924,257.091L588.924,257.091z"/>
	<path id="RI" fill="#D3D3D3" stroke="#FFFFFF" stroke-width="0.75" d="M557.801,320.949l-2.359-9.544l4.001-1.177l1.398,1.23
		l2.11,2.758l1.715,2.809l-1.914,1.037l-0.825-0.103l-0.722,1.135l-1.548,1.238L557.801,320.949L557.801,320.949z"/>
	<path id="NY" fill="#D3D3D3" stroke="#FFFFFF" stroke-width="0.75" d="M529.919,327.235l-0.722-0.619l-1.651-0.103l-1.444-1.238
		l-1.041-3.911l-2.207,0.057l-1.56-1.728l-12.371,2.796l-27.442,5.571l-4.805,0.784l-0.471-4.128l0.911-0.718l0.825-0.722
		l0.619-1.032l1.135-0.722l1.238-1.135l0.31-1.032l1.341-1.754l0.722-0.619l-0.103-0.619l-0.825-1.96l-1.135-0.103l-1.238-3.92
		l1.857-1.135l2.786-0.929l2.579-0.825l2.063-0.31l4.024-0.103l1.238,0.825l1.032,0.103l1.341-0.825l1.651-0.722l3.301-0.31
		l1.341-1.135l1.135-2.063l1.032-1.238h1.341l1.238-0.722l0.103-1.444l-0.929-1.341l-0.206-0.929l0.722-1.341v-0.929h-1.135
		l-1.135-0.516l-0.516-0.722l-0.103-1.651l3.714-3.507l0.413-0.516l0.929-1.857l1.857-2.888l1.754-2.373l1.341-1.548l1.541-1.165
		l1.966-0.795l3.507-0.825l2.063,0.103l2.888-0.929l4.828-1.322l0.332,3.178l1.548,4.126l0.516,3.301l-0.619,2.476l1.651,2.888
		l0.516,1.341l-0.516,1.857l1.857,0.825l0.413,0.206l1.961,7.015l-0.342,3.229l-0.31,6.912l0.516,3.507l0.516,2.27l0.929,4.643
		v5.158l-0.722,1.444l1.174,1.272l0.509,1.071l-1.238,1.135l0.206,0.825l0.825-0.206l0.929-0.825l1.444-1.651l0.722-0.413
		l1.032,0.413l1.444,0.103l5.055-2.476l1.857-1.754l0.825-0.929l2.682,1.032l-2.167,2.27l-2.476,1.857l-4.539,3.405l-1.651,0.619
		l-3.714,1.238l-2.579,0.722l-0.75-0.34l-0.156-2.354l0.31-1.754l-0.103-1.341l-1.796-1.084l-2.888-0.619l-2.476-0.722
		L529.919,327.235L529.919,327.235z"/>
	<path id="PA" fill="#D3D3D3" stroke="#FFFFFF" stroke-width="0.75" d="M526.565,350.175l0.835-0.173l1.487-0.8l0.773-1.585
		l1.032-1.444l2.063-1.96v-0.516l-1.548-1.032l-2.27-1.548l-0.619-1.651l-1.754-0.206l-0.103-0.722l-0.516-1.754l1.444-0.722
		l0.103-1.548l-0.825-0.825l0.103-1.032l1.238-1.96v-1.96l1.722-1.689l-0.587-0.431l-1.611-0.123l-1.464-1.238l-0.989-3.903
		l-2.237,0.064l-1.567-1.725l-11.545,2.679l-27.442,5.571l-5.674,0.929l-0.396-4.161l-3.422,3.234l-0.825,0.31l-2.682,1.92
		l1.858,12.213l1.584,6.209l2.28,12.292l2.086-0.407l7.622-0.959l24.204-4.892l9.493-1.802l5.297-1.035l0.17-0.153l1.341-1.032
		L526.565,350.175L526.565,350.175z"/>
	<path id="NJ" fill="#D3D3D3" stroke="#FFFFFF" stroke-width="0.75" d="M529.472,327.053l-1.482,1.745v1.96l-1.238,1.96
		l-0.103,1.032l0.825,0.825l-0.103,1.548l-1.444,0.722l0.516,1.754l0.103,0.722l1.754,0.206l0.619,1.651l2.27,1.548l1.547,1.032
		v0.516l-1.904,1.721l-1.032,1.444l-0.929,1.754l-1.444,0.825l-0.295,1.022l-0.154,0.773l-0.389,1.664l0.697,1.432l2.063,1.857
		l3.095,1.444l2.579,0.413l0.103,0.929l-0.516,0.619l0.206,1.754h0.516l1.341-1.548l0.516-3.095l1.754-2.579l1.96-4.126l0.722-3.507
		l-0.413-0.722l-0.103-5.983l-1.032-2.167l-0.722,0.516l-1.754,0.206l-0.31-0.31l0.722-0.619l1.341-1.238l0.04-0.698l-0.245-2.191
		l0.366-1.754l-0.075-1.257l-1.792-1.117l-3.25-0.75l-2.64-0.882L529.472,327.053L529.472,327.053z"/>
	<path id="DE" fill="#D3D3D3" stroke="#FFFFFF" stroke-width="0.75" d="M526.885,352.464l0.235-1.37l0.239-1.079l-1.036,0.254
		l-1.031,0.299l-1.408,1.126l1.098,3.218l1.444,3.611l1.341,6.19l1.032,4.024l3.198-0.103l3.92-0.754l-1.445-4.713l-0.619,0.31
		l-2.27-1.548l-1.135-2.992l-1.238-2.27l-2.008-1.832l-0.551-1.339L526.885,352.464L526.885,352.464z"/>
	<path id="MD" fill="#D3D3D3" stroke="#FFFFFF" stroke-width="0.75" d="M535.926,367.867l-3.835,0.768l-3.282,0.075l-1.177-4.417
		l-1.228-5.851l-1.642-3.949l-0.822-2.807l-4.79,1.035l-9.493,1.802l-23.9,4.819l0.722,3.198l0.619,3.611l0.206-0.206l1.341-1.548
		l1.444-1.671l1.548-0.393l0.929-0.929l1.135-1.651l0.825,0.413l1.857-0.206l1.651-1.341l1.281-0.927l1.177-0.31l1.049,0.721
		l1.857,0.929l1.238,1.135l0.773,0.98l2.631,1.083v1.857l3.507,0.825l0.73,0.346l0.901-1.294l1.839,1.257l-0.816,1.584l-0.488,2.544
		l-1.135,1.651v1.341l0.413,1.135l3.232,0.865l2.751-0.04l1.96,0.619l1.341,0.206l0.619-1.341l-0.929-1.341v-1.135l-1.548-1.341
		l-1.341-3.507l0.825-3.405l-0.103-1.341l-0.825-0.825c0,0,0.929-1.032,0.929-1.444c0-0.413,0.31-1.341,0.31-1.341l1.238-0.825
		l1.238-1.032l0.31,0.619l-0.929,1.032l-0.825,2.373l0.206,0.722l1.135,0.206l0.31,3.507l-1.341,0.619l0.206,2.27l0.31-0.103
		l0.722-1.238l1.032,1.135l-1.032,0.825l-0.206,2.167l1.651,2.167l2.476,0.31l1.032-0.516l2.066,2.669l0.867,0.342l4.246-1.785
		l1.281-2.568L535.926,367.867L535.926,367.867z"/>
	<path id="VA" fill="#D3D3D3" stroke="#FFFFFF" stroke-width="0.75" d="M530.723,376.58l-0.092-1.242l4.118-1.627l-0.491,2.054
		l-1.863,2.412l-0.267,2.927l0.295,2.163l-1.167,3.177l-1.381,1.223l-0.938-2.962l0.285-3.477l1.013-2.669L530.723,376.58
		L530.723,376.58z M532.854,394.641l-37.125,8.025l-23.885,3.369l-4.262-0.239l-1.65,1.229l-4.683,0.141l-5.349,0.624l-6.966,1.031
		l6.681-3.581l-0.008-1.324l0.97-1.37l6.735-7.34l2.519,2.857l2.414,0.615l1.623-0.728l1.428-0.837l1.619,0.858l2.498-0.911
		l1.198-2.907l1.66,0.345l1.822-1.36l1.148,0.315l1.804-2.347l0.222-1.329l-0.615-0.814l0.64-1.191l3.366-7.835l0.394-3.66
		l0.784-0.334l1.391,1.559l2.512-0.192l1.231-4.833l1.783-0.358l0.67-1.749l1.646-1.498l1.769-3.634l0.054-3.234l6.268,2.44
		c0.435,0.217,0.532-3.222,0.532-3.222l2.331,1.02l0.043,1.875l3.691,0.829l1.361,0.75l1.059,1.312l-0.418,2.329l-1.242,1.654
		l0.07,1.314l0.376,1.183l3.177,0.809l2.84,0.026l1.958,0.612l1.24,0.197l0.456,1.971l2.036,0.257l0.554,0.766l-0.281,2.993
		l0.878,0.704l-0.306,1.232l0.784,0.504l-0.142,0.884l-1.719-0.061l0.057,1.031l1.456,0.985l0.078,0.901l1.131,1.139l0.314,1.611
		l-1.629,0.881l1.003,0.953l3.702-1.076L532.854,394.641L532.854,394.641z"/>
	<path id="WV" fill="#D3D3D3" stroke="#FFFFFF" stroke-width="0.75" d="M485.761,359.284l0.71,3.156l0.691,3.849l1.359-1.646
		l1.444-1.96l1.62-0.393l0.929-0.929l1.135-1.651l0.922,0.413l1.857-0.206l1.651-1.341l1.281-0.927l1.177-0.31l0.832,0.648
		l2.325,1.163l1.238,1.135l0.877,0.825l-0.486,3.545l-3.724-1.622l-2.709-1.035l-0.064,3.304l-1.754,3.534l-1.615,1.549
		l-0.761,1.754l-1.687,0.319l-0.573,2.299l-0.666,2.521l-2.532,0.218l-1.483-1.556l-0.683,0.357l-0.404,3.491l-0.862,2.255
		l-3.164,6.991l0.572,0.741l-0.131,1.218l-1.793,2.479l-1.154-0.347l-1.894,1.378l-1.622-0.365l-1.276,2.907
		c0,0-2.08,0.913-2.504,0.873c-0.103-0.01-1.576-0.797-1.576-0.797l-1.491,0.88l-1.538,0.666l-2.39-0.567l-0.715-0.745l-1.399-1.929
		l-2.006-1.269l-1.093-2.312l-2.734-2.213l-0.413-1.444l-1.651-0.928l-0.516-1.032l-0.154-3.353l1.392-0.052l1.238-0.516
		l0.103-1.754l1.032-0.929l0.103-3.198l0.619-2.476l0.825-0.413l0.825,0.722l0.309,1.135l1.135-0.619l0.31-1.032l-0.722-1.135
		v-1.548l0.619-0.825l1.444-2.167l0.825-0.929l1.341,0.31l1.444-1.032l1.96-2.167l1.444-2.476l0.206-3.611l0.309-3.198v-2.992
		l-0.722-1.96l0.619-0.929l0.819-0.825l2.228,12.653l2.955-0.479L485.761,359.284L485.761,359.284z"/>
	<path id="OH" fill="#D3D3D3" stroke="#FFFFFF" stroke-width="0.75" d="M469.259,330.159l-3.889,2.586l-2.476,1.444l-2.167,2.373
		l-2.579,2.476l-2.063,0.516l-1.857,0.31l-3.507,1.651l-1.341,0.103l-2.167-1.96l-3.301,0.413l-1.651-0.929l-1.519-0.862
		l-3.123,0.449l-6.5,1.032l-7.152,1.394l0.825,9.336l1.135,8.769l1.651,14.959l0.361,3.083l2.631-0.082l1.548-0.516l2.147,0.959
		l1.321,2.786l3.28-0.011l1.207,1.352l1.124-0.041l1.62-0.856l1.598,0.237l3.46,0.308l1.102-1.361l1.497-0.825l1.321-0.435
		l0.413,1.754l1.135,0.619l2.218,1.496l1.392-0.052l0.851-0.314l0.118-1.763l1.012-0.929l0.063-3.059l0.653-2.622l0.829-0.384
		l0.843,0.733l0.343,1.083l1.097-0.662l0.28-0.932l-0.713-1.214l0.042-1.477l0.478-0.684l1.374-2.11l0.67-0.985l1.341,0.31
		l1.444-1.032l1.96-2.167l1.768-2.603l0.204-3.227l0.31-3.198l-0.113-3.387l-0.609-1.848l0.224-0.759l1.151-1.117l-1.461-5.773
		L469.259,330.159L469.259,330.159z"/>
	<path id="IN" fill="#D3D3D3" stroke="#FFFFFF" stroke-width="0.75" d="M395.388,398.215l0.041-1.825l0.31-2.889l1.444-1.857
		l1.135-2.476l1.651-2.682l-0.31-3.714l-1.135-1.754l-0.206-2.063l0.516-3.507l-0.309-4.436l-0.825-10.213l-0.825-9.801
		l-0.619-7.479l1.96,0.568l0.929,0.619l0.722-0.206l1.341-1.238l1.806-1.032l3.25-0.103l14.031-1.444l3.558-0.34l0.959,10.183
		l2.713,23.511l0.382,3.683l-0.237,1.444l0.784,1.146l0.061,0.876l-1.609,1.021l-2.258,0.99l-2.043,0.351l-0.382,3.106l-2.92,2.114
		l-1.784,2.559l0.206,1.517l-0.371,0.979h-2.123l-1.012-1.032l-1.591,0.805l-1.712,0.959l0.103,1.949l-0.762,0.165l-0.299-0.65
		l-1.383-0.959l-2.074,0.856l-0.99,1.918l-0.918-0.516l-0.929-1.021l-2.849,0.31l-3.569,0.619L395.388,398.215L395.388,398.215z"/>
	<path id="IL" fill="#D3D3D3" stroke="#FFFFFF" stroke-width="0.75" d="M395.369,398.452l0.02-2.061l0.362-2.965l1.489-1.861
		l1.191-2.601l1.425-2.549l-0.237-3.352l-1.28-2.261l-0.061-2.136l0.444-3.363l-0.527-4.581l-0.68-10.068l-0.825-9.583l-0.588-7.428
		l-0.174-0.588l-0.516-1.651l-0.825-2.373l-1.032-1.135l-0.929-1.651l-0.149-3.503l-29.225,1.658l0.146,1.514l1.459,0.438
		l0.583,0.729l0.292,1.167l2.481,2.188l0.438,1.459l-0.438,2.188l-1.167,2.334l-0.438,1.605l-1.459,1.167l-1.167,0.438l-3.355,0.876
		l-0.438,1.167l-0.438,1.313l0.438,0.876l1.167,1.021l-0.146,2.626l-1.167,1.021l-0.438,1.021v1.75l-1.167,0.292l-1.021,0.729
		l-0.146,0.876l0.146,1.313l-1.094,0.839l-0.657,1.787l0.292,2.334l1.459,4.669l4.669,4.815l3.502,2.334l-0.146,2.772l0.583,0.876
		l4.085,0.292l1.75,0.876l-0.438,2.334l-1.459,3.793l-0.438,2.043l1.459,2.481l4.085,3.355l2.918,0.438l1.313,3.21l1.313,2.043
		l-0.583,1.897l1.021,2.626l1.167,1.313l0.902-0.562l0.579-1.324l1.412-1.115l1.36-0.392l1.661,0.753l2.315,0.878l0.759-0.19
		l0.128-1.441l-0.821-1.539l0.194-1.517l1.173-0.86l1.929-0.517l0.805-0.293l-0.391-0.885l-0.505-1.502l0.914-0.626L395.369,398.452
		L395.369,398.452z"/>
	<path id="CT" fill="#D3D3D3" stroke="#FFFFFF" stroke-width="0.75" d="M557.799,320.928l-2.346-9.495l-3.012,0.587l-13.548,3.027
		l0.638,2.059l0.929,4.643l0.113,5.722l-0.779,1.388l1.226,1.233l2.726-2.493l2.27-2.063l1.238-1.341l0.516,0.413l1.754-0.929
		l3.301-0.722L557.799,320.928L557.799,320.928z"/>
	<path id="WI" fill="#D3D3D3" stroke="#FFFFFF" stroke-width="0.75" d="M392.513,332.738l-0.043-2.015l-0.752-2.889l-0.413-3.92
		l-0.722-1.548l0.619-1.96l0.516-1.857l0.929-1.651l-0.413-2.167l-0.413-2.27l0.31-1.135l1.238-1.548l0.103-1.754l-0.516-0.825
		l0.413-1.651l-0.289-2.662l1.754-3.611l1.857-4.333l0.103-1.444l-0.206-0.619l-0.516,0.31l-2.682,4.024l-1.754,2.579l-1.238,1.135
		l-0.516,1.444l-1.248,0.516l-0.722,1.238l-0.929-0.206l-0.103-1.135l0.825-1.548l1.341-2.992l1.135-1.032l0.632-1.505l-1.634-1.213
		l-1.26-6.616l-2.264-0.856l-1.242-1.473l-7.741-1.737l-1.835-0.646l-5.241-1.383l-5.053-0.74l-2.403-3.274l-0.479,0.354
		l-0.765-0.103l-0.413-0.722l-0.851,0.19l-0.722,0.103l-1.135,0.619l-0.619-0.413l0.413-1.238l1.238-1.96l0.722-0.722l-1.238-0.929
		l-1.341,0.516l-1.857,1.238l-4.745,2.063l-1.857,0.413l-1.857-0.31l-0.627-0.56l-1.351,1.809l-0.146,1.75v5.398l-0.729,1.021
		l-3.355,2.481l-1.459,3.793l0.292,0.146l1.605,1.313l0.438,2.043l-1.167,2.043v2.481l0.292,4.231l1.897,1.897h2.188l1.167,2.043
		l2.188,0.292l2.481,3.648l4.523,2.626l1.313,1.75l0.583,4.742l0.438,2.116l1.459,1.021l0.146,0.876l-1.313,2.188l0.146,2.043
		l1.605,2.481l1.605,0.729l1.897,0.292l0.856,0.881L392.513,332.738L392.513,332.738z"/>
	<path id="NC" fill="#D3D3D3" stroke="#FFFFFF" stroke-width="0.75" d="M532.856,394.606l1.331,3.138l2.27,4.126l1.548,1.548
		l0.413,1.444l-1.548,0.103l0.516,0.413l-0.206,2.682l-1.651,0.825l-0.413,1.341l-0.825,1.857l-2.373,1.032l-1.548-0.206
		l-0.929-0.103l-1.032-0.825l0.206,0.825v0.619h1.238l0.516,0.825l-1.238,4.024h2.682l0.413,1.032l1.444-1.444l0.825-0.309
		l-1.238,2.27l-1.96,3.095h-0.825l-0.722-0.31l-1.754,0.413l-3.301,1.548l-4.126,3.405l-2.167,2.992l-1.238,4.126l-0.31,1.548
		l-2.992,0.31l-3.48,0.851l-6.347-5.235l-8.047-4.849l-1.857-0.516l-8.047,0.929l-2.729,0.479l-1.032-2.063l-1.895-1.351
		l-10.523,0.309l-4.643,0.516l-5.777,2.889l-3.92,1.651l-13.515,1.651l0.319-2.587l1.135-0.928l1.754-0.413l0.413-2.373l2.682-1.754
		l2.476-0.928l2.682-2.27l2.786-1.341l0.413-1.96l2.476-2.476l0.413-0.103c0,0,0,0.722,0.516,0.722s1.238,0.206,1.238,0.206
		l1.444-2.27l1.341-0.413l1.444,0.206l1.032-2.27l1.857-1.651l0.31-1.341l0.12-2.328l2.729-0.014l4.594-0.546l10.056-1.437
		l9.659-1.332l13.811-3.011l12.752-2.718l7.133-1.535L532.856,394.606L532.856,394.606z"/>
	<path id="DC" fill="#D3D3D3" stroke="#FFFFFF" stroke-width="0.75" d="M514.245,366.864l-1.186-1.164l-0.787-0.438l0.921-1.29
		l1.844,1.244L514.245,366.864L514.245,366.864z"/>
	<path id="MA" fill="#D3D3D3" stroke="#FFFFFF" stroke-width="0.75" d="M545.919,303.827l11.262-2.962l1.444-0.413l1.221-1.784
		l2.385-1.061l1.844,2.816l-1.547,3.301l-0.206,0.929l1.238,1.651l0.722-0.516h1.135l1.444,1.651l2.476,3.817l2.27,0.31l1.444-0.619
		l1.135-1.135l-0.516-1.754l-1.341-1.032l-0.929,0.516l-0.619-0.825l0.31-0.31l1.341-0.103l1.135,0.516l1.238,1.548l0.619,1.857
		l0.206,1.548l-2.682,0.929l-2.476,1.238l-2.476,2.889l-1.238,0.929v-0.619l1.548-0.929l0.31-1.135l-0.516-1.96l-1.857,0.929
		l-0.516,0.929l0.31,1.444l-1.318,0.638l-1.753-2.889l-2.167-2.786l-1.321-1.156l-4.169,1.197l-3.25,0.671l-13.194,2.93
		l-0.426-3.043l0.413-6.758l2.737-0.567L545.919,303.827L545.919,303.827z"/>
	<path id="TN" fill="#D3D3D3" stroke="#FFFFFF" stroke-width="0.75" d="M444.595,409.883l-33.116,3.198l-10.057,1.135l-2.949,0.327
		l-2.468-0.018l-0.141,2.617l-5.223,0.168l-4.436,0.413l-5.163-0.079l-0.902,4.514l-1.082,3.497l-2.102,1.756l-0.861,2.796
		l-0.206,1.651l-2.579,1.444l0.929,2.27l-0.619,2.786L373,438.862l69.023-6.642l0.257-2.524l1.156-0.951l1.809-0.478l0.429-2.372
		l2.616-1.726l2.583-0.953l2.606-2.278l2.831-1.292l0.332-1.957l2.594-2.543l0.352-0.073c0,0,0.02,0.722,0.536,0.722
		c0.516,0,1.238,0.227,1.238,0.227l1.444-2.29l1.321-0.413l1.452,0.188l1.02-2.255l1.886-1.687l0.269-1.237l0.197-2.368l-1.37-0.128
		l-1.66,1.294l-4.463,0.018l-11.716,1.523L444.595,409.883L444.595,409.883z"/>
	<path id="AR" fill="#D3D3D3" stroke="#FFFFFF" stroke-width="0.75" d="M378.958,425.708l-2.54,0.458l-3.262-0.405l0.269-1.022
		l1.902-1.638l0.602-2.333l-1.167-1.897l-50.044,1.605l1.021,4.377v5.252l0.876,7.003l0.146,24.146l1.459,1.24l1.897-0.876
		l1.75,0.729l0.434,4.195l35.495-0.728l0.731-1.334l-0.183-2.265l-1.165-1.897l1.02-0.948l-1.02-1.603l0.437-1.602l0.873-3.577
		l1.607-1.317l-0.438-1.458l2.334-3.428l1.75-0.873l-0.072-0.953l-0.22-1.165l1.823-3.573l1.534-0.802l0.245-2.188l1.13-0.793
		l-2.006-0.309l-0.856-2.559l1.789-1.517l0.351-1.288l0.816-2.583L378.958,425.708L378.958,425.708z"/>
	<path id="MO" fill="#D3D3D3" stroke="#FFFFFF" stroke-width="0.75" d="M356.377,365.121l-1.608-1.97l-0.729-1.459l-41.07,1.532
		l-1.459,0.073l0.802,1.605l-0.146,1.459l1.605,2.481l1.969,2.626l1.969,1.751l1.379,0.146l0.955,0.583v1.897l-1.167,1.021
		l-0.292,1.459l1.313,2.188l1.605,1.897l1.605,1.167l0.876,7.441l0.2,23.02l0.146,2.991l0.292,3.436l14.316-0.553l14.809-0.438
		l13.277-0.511l7.438-0.147l1.384,2.186l-0.437,2.11l-1.97,1.534l-0.365,1.172l3.432,0.292l2.486-0.438l1.096-3.506l0.415-3.738
		l1.339-1.63l1.657-0.949l0.033-1.946l0.648-1.236l-1.081-1.623l-0.849,0.628l-1.272-1.421l-0.82-3.037l0.511-1.607l-1.241-2.188
		l-1.168-2.92l-3.063-0.51l-4.447-3.573l-1.097-2.625l0.51-2.043l1.314-3.866l0.293-1.828l-1.244-0.658l-4.375-0.509l-0.656-1.093
		l-0.072-2.699l-3.502-2.19l-4.452-4.96l-1.459-4.669l-0.147-2.696L356.377,365.121L356.377,365.121z"/>
	<path id="GA" fill="#D3D3D3" stroke="#FFFFFF" stroke-width="0.75" d="M429.033,433.685v1.392l0.103,1.341l0.413,2.167l2.167,5.055
		l1.548,6.293l0.929,3.92l1.032,3.095l0.929,4.436l1.341,4.024l1.651,2.167l0.31,2.167l1.238,0.516l0.103,1.341l-1.135,3.095
		l-0.31,2.063l-0.103,1.238l1.032,2.786l0.206,3.405l-0.516,1.548l0.413,0.516l0.929,0.516l0.131,2.054l1.425,2.138l1.436,1.38
		l5.055,0.103l6.905-0.413l13.728-0.825l3.475-0.43l2.921,0.018l0.103,1.857l1.651,0.516l0.206-2.786l-1.032-2.888l0.722-1.032
		l3.714,0.516l3.176,0.203l-0.495-4.02l1.444-6.396l0.929-2.682l-0.31-1.651l2.128-3.985l-0.325-0.863l-1.221,0.45l-1.651-0.825
		l-0.413-1.341l-0.825-2.27l-1.444-1.341l-1.651-0.413l-1.032-3.095l-1.867-4.043l-2.682-1.238l-1.341-1.238l-0.825-1.651
		l-1.341-1.238l-1.444-0.825l-1.444-1.857l-1.96-1.444l-2.888-1.135l-0.309-0.929l-1.548-1.857l-0.31-0.929l-2.167-3.172
		l-2.246,0.063l-2.396-1.504l-0.905-0.825l-0.206-1.135l0.556-1.238l1.421-0.708l-0.405-1.338L429.033,433.685L429.033,433.685z"/>
	<path id="SC" fill="#D3D3D3" stroke="#FFFFFF" stroke-width="0.75" d="M488.16,467.261l-1.134,0.619l-1.651-0.825l-0.413-1.341
		l-0.825-2.27l-1.444-1.341l-1.651-0.413l-1.032-3.095l-1.754-3.817l-2.682-1.238l-1.341-1.238l-0.825-1.651l-1.341-1.238
		l-1.444-0.825l-1.444-1.857l-1.96-1.444l-2.888-1.135l-0.31-0.929l-1.548-1.857l-0.309-0.929l-2.167-3.301l-2.167,0.103
		l-2.579-1.548l-0.825-0.825l-0.206-1.135l0.516-1.238l1.444-0.619l-0.326-1.461l3.681-1.491l5.817-2.929l4.962-0.516l10.283-0.269
		l1.684,1.198l1.071,2.143l2.745-0.389l8.047-0.929l1.857,0.516l8.047,4.849l6.451,5.183l-3.46,3.483l-1.651,3.92l-0.309,4.024
		l-1.032,0.516l-0.722,1.754l-1.548,0.413l-1.341,2.27l-1.754,1.754l-1.444,2.167l-1.032,0.516l-2.27,2.167l-1.857,0.103
		l0.619,2.063l-3.198,3.507L488.16,467.261L488.16,467.261z"/>
	<path id="KY" fill="#D3D3D3" stroke="#FFFFFF" stroke-width="0.75" d="M463.304,395.216l-1.463,1.533l-2.283,2.549l-3.143,3.488
		l-0.776,1.095l-0.04,1.341l-2.795,1.381l-3.611,2.167l-4.615,1.148l-33.1,3.126l-10.057,1.135l-2.949,0.327l-2.468-0.018
		l-0.145,2.693l-5.22,0.093l-4.436,0.413l-5.097-0.038l0.771-0.842l1.595-0.983l0.146-2.043l0.583-1.167l-1.026-1.62l0.512-1.217
		l1.444-1.135l1.341-0.413l1.754,0.825l2.27,0.825l0.722-0.206l0.103-1.444l-0.825-1.548l0.206-1.444l1.238-0.929l1.651-0.413
		l1.032-0.413l-0.516-1.135l-0.413-1.238l0.962-0.636c0.002-0.024,0.8-2.248,0.79-2.334l1.948-0.944l3.395-0.619l2.868-0.31
		l0.888,1.038l0.975,0.556l1.015-1.983l2.034-0.819l1.407,0.947l0.262,0.638l0.749-0.168l-0.103-1.884l1.998-1.116l1.371-0.685
		l0.976,1.06l2.117-0.028l0.375-1.003l-0.234-1.444l1.66-2.552l3.048-2.194l0.451-3.086l1.867-0.291l2.419-1.05l1.559-1.09
		l-0.126-0.999l-0.729-0.928l0.361-1.911l2.671-0.075l1.468-0.476l2.136,0.912l1.311,2.786l3.275,0.007l1.309,1.409l1.031-0.094
		l1.66-0.816l3.342,0.366l1.643,0.138l1.077-1.312l1.671-0.91l1.201-0.451l0.413,1.81l1.304,0.675l1.687,1.329l0.075,3.62
		l0.516,1.003l1.653,0.993l0.493,1.464l2.655,2.193l1.152,2.312L463.304,395.216L463.304,395.216z"/>
	<path id="AL" fill="#D3D3D3" stroke="#FFFFFF" stroke-width="0.75" d="M402.877,500.605l-0.952-9.14l-1.754-11.967l0.103-8.975
		l0.516-19.808l-0.103-10.626l0.105-4.096l28.388-2.31l-0.094,1.392l0.103,1.341l0.413,2.167l2.167,5.055l1.548,6.293l0.929,3.92
		l1.032,3.095l0.929,4.436l1.341,4.024l1.651,2.167l0.309,2.167l1.238,0.516l0.103,1.341l-1.135,3.095l-0.31,2.063l-0.103,1.238
		l1.032,2.786l0.206,3.405l-0.516,1.548l0.413,0.516l0.929,0.516l0.209,1.844l-3.572-0.226l-4.333,0.413l-16.3,1.857l-6.645,0.898
		l-0.141,1.836l1.135,1.135l1.651,1.238l0.371,5.064l-3.537,1.642l-1.754-0.206l1.754-1.238v-0.619l-1.96-3.817l-1.444-0.413
		l-0.929,2.786l-0.825,1.754l-0.413-0.103L402.877,500.605L402.877,500.605z"/>
	<path id="LA" fill="#D3D3D3" stroke="#FFFFFF" stroke-width="0.75" d="M387.983,499.805l-2.096-2.02l0.645-3.51l-0.422-0.57
		l-5.911,0.643l-15.972,0.293l-0.437-1.528l0.583-5.396l2.116-3.795l3.211-5.546l-0.366-1.53l0.802-0.435l0.293-1.246l-1.459-1.312
		l-0.071-1.239l-1.168-2.773l-0.094-4.045l-35.402,0.59l0.019,6.11l0.438,5.982l0.438,2.481l1.605,2.626l0.583,3.21l2.772,3.502
		l0.146,2.043l0.438,0.438l-0.438,5.398l-1.897,3.21l1.021,1.313l-0.438,1.605l-0.438,4.669l-0.876,2.043l0.078,2.308l2.99-0.97
		l7.73,0.132l6.602,2.27l4.126,0.722l2.373-0.929l2.063,0.722l2.063,0.619l0.516-1.341l-2.063-0.722l-1.651,0.31l-1.754-1.032
		c0,0,0.103-0.825,0.516-0.929c0.413-0.103,1.96-0.619,1.96-0.619l1.135,0.928l1.135-0.619l2.063,0.413l0.929,1.548l0.206,1.444
		l2.888,0.206l1.135,1.135l-0.513,1.03l-0.825,0.516l1.032,1.032l5.364,2.27l2.27-0.825l0.619-1.547l1.651-0.413l1.135-0.929
		l0.825,0.619l0.516,1.857l-1.444,0.516l0.413,0.413l2.167-0.825l1.444-2.167l0.516-0.31l-1.341-0.206l0.516-1.032l-0.103-0.929
		l1.341-0.31l0.722-0.825l0.413,0.516c0,0-0.103,1.96,0.413,1.96c0.516,0,2.682,0.413,2.682,0.413l2.579,1.238l0.619,0.929h1.857
		l0.722,0.619l1.444-1.96v-0.929h-0.825l-2.167-1.754l-3.714-0.516l-2.063-1.444l0.722-1.754l1.444,0.206l0.103-0.413l-1.135-0.619
		v-0.31h2.063l1.135-1.96l-0.825-1.238l-0.206-1.754l-0.929,0.103l-1.238,1.341l-0.413,1.651l-1.96-0.413l-0.619-1.135l1.135-1.238
		l1.214-2.199l-0.677-1.539L387.983,499.805L387.983,499.805z"/>
	<path id="MS" fill="#D3D3D3" stroke="#FFFFFF" stroke-width="0.75" d="M403.039,499.922l-0.162,0.802h-3.301l-0.929-0.516
		l-1.341-0.206l-4.333,1.238l-1.135-0.516l-1.651,2.682l-0.704,0.497l-0.717-1.588l-0.729-2.481l-2.188-2.043l0.729-3.539
		l-0.438-0.583l-1.167,0.146l-5.053,0.557l-15.665,0.238l-0.491-1.42l0.557-5.346l1.989-3.62l3.336-5.836l-0.285-1.553l0.789-0.419
		l0.278-1.225l-1.479-1.327l-0.073-1.366l-1.172-2.63l-0.07-3.805l0.848-1.583l-0.142-2.18l-1.129-1.967l0.974-0.946l-1.003-1.595
		l0.292-1.054l1.006-4.165l1.587-1.299l-0.41-1.511l2.334-3.384l1.807-0.865l-0.141-1.069l-0.184-1.073l1.835-3.553l1.497-0.786
		l0.097-0.57l23.832-2.477l0.118,4.01l0.103,10.626l-0.516,19.808l-0.103,8.975l1.754,11.967L403.039,499.922L403.039,499.922z"/>
	<path id="IA" fill="#D3D3D3" stroke="#FFFFFF" stroke-width="0.75" d="M363.238,334.152l0.168,1.778l1.419,0.368l0.609,0.782
		l0.319,1.184l2.421,2.144l0.438,1.526l-0.43,2.185l-1.01,2.063l-0.51,1.75l-1.387,1.022l-1.095,0.365l-3.56,1.187l-0.888,2.456
		l0.465,0.876l1.175,1.074l-0.181,2.576l-1.125,0.982l-0.492,1.048l0.081,1.772l-1.204,0.292l-1.037,0.705l-0.178,0.863l0.178,1.35
		l-0.99,0.712l-1.577-1.999l-0.806-1.564l-41.95,1.605l-0.586,0.105l-1.31-2.882l-0.146-4.231l-1.021-2.626l-0.438-3.355
		l-1.459-2.334l-0.583-3.064l-1.751-4.815l-0.729-3.429l-0.876-1.386l-1.021-1.75l1.247-3.091l0.876-3.648l-1.75-1.313l-0.292-1.75
		l0.583-1.605h1.094l52.747-0.81l0.532,2.669l1.437,0.996l0.164,0.908l-1.296,2.163l0.121,2.046l1.605,2.424l1.613,0.826
		l1.965,0.321L363.238,334.152L363.238,334.152z"/>
	<path id="MN" fill="#D3D3D3" stroke="#FFFFFF" stroke-width="0.75" d="M303.28,288.995l-0.292-5.398l-1.167-4.669l-1.167-8.608
		l-0.292-6.274l-1.167-2.188l-1.021-3.21v-6.565l0.438-2.481l-1.162-3.479l19.229,0.022l0.206-5.262l0.413-0.103l1.444,0.31
		l1.238,0.516l0.516,3.507l0.929,3.92l1.032,1.032h3.095l0.206,0.929l4.024,0.206v1.341h3.095l0.206-0.825l0.722-0.722l1.444-0.413
		l0.825,0.619h1.857l2.476,1.651l3.405,1.548l1.548,0.31l0.309-0.619l0.929-0.31l0.31,1.857l1.651,0.825l0.31-0.31l0.825,0.103
		v1.341l1.651,0.619h1.96l1.032-0.516l2.063-2.063l1.651-0.31l0.516,1.135l0.31,0.825h0.619l0.619-0.516l5.674-0.206l1.135,1.96
		h0.413l0.456-0.692l2.833-0.237l-0.391,1.454l-2.514,1.172l-5.9,2.592l-3.047,1.281l-1.96,1.651l-1.548,2.27l-1.444,2.476
		l-1.135,0.516l-2.888,3.198l-0.825,0.103l-2.762,1.759l-1.572,2.045l-0.146,2.036l0.06,5.133l-0.878,1.078l-3.243,2.399
		l-1.423,3.818l1.833,1.426l0.434,2.059l-1.184,2.067l0.109,2.392l0.235,4.295l1.932,1.916h2.124l1.207,1.999l2.156,0.321
		l2.463,3.619l4.523,2.627l1.368,1.835l0.428,4.11l-51.826,0.731l-0.216-22.768l-0.292-1.897l-2.626-2.188l-0.729-1.167v-1.021
		l1.313-1.021l0.876-0.876L303.28,288.995L303.28,288.995z"/>
	<path id="OK" fill="#D3D3D3" stroke="#FFFFFF" stroke-width="0.75" d="M242.721,411.521l-10.647-0.812l-0.562,6.989l13.06,0.738
		l20.457,0.832l-1.49,15.583l-0.292,11.38l0.146,1.021l2.772,2.334l1.313,0.729l0.438-0.146l0.438-1.313l0.876,1.167h1.313v-0.876
		l1.751,0.876l-0.292,2.481l2.626,0.146l1.605,0.729l2.626,0.438l1.605,1.167l1.459-1.313l2.188,0.438l1.605,2.188h0.583v1.459
		l1.459,0.438l1.459-1.459l1.167,0.438h1.605l0.583,1.605l4.021,1.327l0.876-0.438l1.167-2.626h0.729l0.729,1.313l2.626,0.438
		l2.334,0.876l1.897,0.583l1.167-0.583l0.438-1.605h2.772l1.313,0.583l1.75-1.313h0.729l0.438,1.021h2.626l1.021-1.313l1.167,0.292
		l1.313,1.605l2.043,1.167l2.043,0.583l1.239,0.714l-0.248-23.751l-0.876-7.003l-0.102-5.662l-0.919-4.172l-0.496-4.582
		l-0.043-2.435l-7.745,0.204l-29.617-0.292l-28.742-1.313L242.721,411.521L242.721,411.521z"/>
	<path id="TX" fill="#D3D3D3" stroke="#FFFFFF" stroke-width="0.75" d="M230.674,417.745l14.481,0.693l19.842,0.729l-1.49,14.969
		l-0.19,11.585l0.043,1.329l2.772,2.437l1.268,0.923l0.756-0.357l0.238-1.16l0.728,1.151l1.348,0.028l-0.002-0.923l1.066,0.617
		l0.727,0.261l-0.229,2.532l2.609,0.06l1.867,0.764l2.524,0.335l1.519,1.327l1.355-1.325l2.377,0.392l1.417,2.058l0.686,0.205
		l-0.102,1.254l1.413,0.505l1.487-1.311l1.361,0.392l1.422,0.022l0.595,1.554l4.038,1.349l1.017-0.489l0.95-2.666h0.218l0.578,0.052
		l0.784,1.32l2.508,0.424l2.13,0.717l2.186,0.763l1.175-0.622l0.456-1.605l2.842,0.028l1.154,0.594l1.786-1.345l0.705,0.028
		l0.543,1.024h2.588l0.969-1.295l1.191,0.26l1.242,1.534l2.247,1.304l1.824,0.517l0.966,0.511l1.562,1.274l1.942-0.847l1.717,0.727
		l0.36,3.897l-0.026,6.191l0.438,6.084l0.448,2.301l1.707,2.821l0.573,3.16l2.69,3.534l0.125,2.007l0.476,0.502l-0.466,5.348
		l-1.833,3.195l0.978,1.374l-0.402,1.492l-0.428,4.725l-0.96,2.13l0.188,2.235l-3.615,1.011l-6.293,2.888l-0.619,1.238l-1.651,1.238
		l-1.341,0.929l-0.825,0.516l-3.611,3.405l-1.754,1.341l-3.405,2.063l-3.611,1.548l-4.024,2.167l-1.135,0.929l-3.714,2.27
		l-2.167,0.413l-2.476,3.507l-2.579,0.206l-0.619,1.238l1.444,1.238l-0.929,3.507l-0.825,2.888l-0.722,2.476l-0.516,2.888
		l0.516,1.548l1.135,4.436l0.619,3.92l1.135,1.754l-0.619,0.929l-1.96,1.238l-3.611-2.476l-3.507-0.722l-0.825,0.31l-2.063-0.413
		l-2.682-1.96l-3.301-0.722l-4.849-2.167l-1.341-2.476l-0.825-4.126l-2.063-1.238l-0.413-1.444l0.413-0.413l0.206-2.167
		l-0.825-0.413l-0.413-0.619l0.825-2.786l-1.032-1.444l-2.063-0.825l-2.167-2.786l-2.27-4.23l-2.682-1.651l0.103-1.238l-3.405-7.841
		l-0.516-2.682l-1.135-1.238l-0.103-0.928l-3.817-3.405l-1.651-1.96v-0.722l-1.651-1.341l-4.333-0.722l-4.745-0.413l-1.96-1.444
		l-2.888,1.135l-2.27,0.928l-1.444,2.063l-0.619,2.373l-2.786,3.92l-1.548,1.548l-1.651-0.619l-1.135-0.722l-1.238-0.413
		l-2.476-1.444v-0.413l-1.135-1.238l-3.301-1.341l-4.745-4.952l-1.444-2.992v-5.158l-2.063-4.126l-0.309-1.754l-1.032-0.619
		l-0.722-1.341l-3.198-1.341l-0.825-1.032l-4.539-5.055l-0.825-2.063l-2.992-1.444l-0.929-2.786l-1.651-1.857l-1.238-0.31
		l-0.414-2.985l5.107,0.438l18.529,1.75l18.529,1.021l1.426-12.42l2.481-35.453l1.021-11.964l0.876,0.018"/>
	<path id="NM" fill="#D3D3D3" stroke="#FFFFFF" stroke-width="0.75" d="M183.889,477.374l-0.495-3.03l5.516,0.335l19.255,1.88
		l17.401,1.078l1.414-11.938l2.461-35.658l1.109-12.373l1.003,0.082l0.526-7.124l-66.372-6.788l-11.166,76.857l9.867,1.269
		l0.825-6.396L183.889,477.374L183.889,477.374z"/>
	<path id="KS" fill="#D3D3D3" stroke="#FFFFFF" stroke-width="0.75" d="M324.112,413.792l-8.052,0.13l-29.412-0.292l-28.435-1.313
		l-15.718-0.802l2.485-41.222l14.093,0.431l25.711,0.537l28.271,0.63h3.252l1.394,1.38l1.288-0.013l1.047,0.646l-0.04,1.92
		l-1.167,1.101l-0.212,1.424l1.176,2.171l1.884,2.039l1.485,1.03l0.83,7.174L324.112,413.792L324.112,413.792z"/>
	<path id="NE" fill="#D3D3D3" stroke="#FFFFFF" stroke-width="0.75" d="M310.211,360.391l2.062,4.48l-0.082,1.47l2.207,3.506
		l1.735,2.012h-3.222l-27.749-0.599l-26.029-0.568l-14.2-0.5l0.685-13.611l-20.624-1.863l2.772-28.086l9.921,0.657l12.839,0.729
		l11.38,0.729l15.174,0.729l6.857-0.292l1.313,1.459l3.064,1.897l0.729,0.583l2.772-0.876l2.481-0.292l1.75-0.146l1.167,0.876
		l2.589,1.021l1.897,1.021l0.292,1.021l0.583,1.313h1.167l0.509,0.029l0.571,2.988l1.863,5.404l0.366,2.398l1.61,2.408l0.364,3.264
		l1.026,2.706L310.211,360.391L310.211,360.391z"/>
	<path id="SD" fill="#D3D3D3" stroke="#FFFFFF" stroke-width="0.75" d="M304.052,336.986l-0.03-0.371l-1.848-3.092l1.187-3.007
		l0.953-3.757l-1.775-1.327l-0.246-1.75l0.505-1.63l2.035,0.01l-0.078-3.195l-0.212-19.256l-0.394-2.405l-2.599-2.126l-0.627-1.07
		l-0.04-1.027l1.29-0.976l0.978-1.063l0.156-1.696l-37.178-1.021l-34.971-2.201l-3.398,40.645l9.311,0.577l12.731,0.77l11.323,0.593
		l15.174,0.832l7.647-0.271l1.255,1.433l3.315,2.076l0.488,0.461l2.898-0.927l4.174-0.392l1.069,0.853l2.683,1.018l1.879,1.044
		l0.255,0.947l0.663,1.43L304.052,336.986L304.052,336.986z"/>
	<path id="ND" fill="#D3D3D3" stroke="#FFFFFF" stroke-width="0.75" d="M303.323,289.055l-0.392-5.382l-1.07-4.35l-1.207-8.311
		L300.362,264l-1.11-1.964l-1.121-3.315l0.02-6.665l0.398-2.44l-1.17-3.489l-18.278-0.36l-11.864-0.413l-16.919-0.825l-14.643-1.362
		l-4.463,42.87l35.056,2.134L303.323,289.055L303.323,289.055z"/>
	<path id="WY" fill="#D3D3D3" stroke="#FFFFFF" stroke-width="0.75" d="M229.98,298.218l-68.12-8.588l-8.987,56.451l72.282,8.669
		L229.98,298.218z"/>
	<path id="MT" fill="#D3D3D3" stroke="#FFFFFF" stroke-width="0.75" d="M235.617,243.14l-19.575-1.792l-18.673-2.27l-18.673-2.579
		l-20.633-3.405l-11.761-2.167l-20.883-4.424l-2.858,13.624l2.188,4.815l-0.876,2.918l1.167,2.918l2.043,0.876l2.949,6.872
		l1.72,2.027l0.292,0.729l2.188,0.729l0.292,1.313L130,274.559v1.605l1.605,2.043h0.583l3.064-1.897l0.438-0.729l1.021,0.438
		l-0.146,3.355l1.75,8.024l1.897,1.605l0.583,0.438l1.167,1.459l-0.29,2.189l0.438,2.188l0.729,0.584l1.459-1.459h1.75l2.043,1.021
		l1.605-0.583h2.626l2.334,1.021l1.75-0.292l0.292-1.897l1.897-0.438l0.876,0.876l0.292,2.043l0.91,0.533l1.204-7.042l68.122,8.57
		L235.617,243.14L235.617,243.14z"/>
	<path id="CO" fill="#D3D3D3" stroke="#FFFFFF" stroke-width="0.75" d="M242.523,411.613l3.129-55.09l-72.361-8.069l-7.795,56.12
		L242.523,411.613z"/>
	<path id="ID" fill="#D3D3D3" stroke="#FFFFFF" stroke-width="0.75" d="M94.754,319.41l5.597-22.477l0.876-2.699l1.605-3.793
		l-0.802-1.459l-1.605,0.073l-0.511-0.657l0.292-0.729l0.219-1.969l2.845-3.502l1.167-0.292l0.729-0.729l0.365-2.043l0.583-0.438
		l2.481-3.721l2.481-2.772l0.146-2.407l-2.188-1.678l-0.98-2.809l8.695-40.423l8.627,1.613l-2.813,13.646l2.272,4.777l-1.009,2.974
		l1.257,2.962l2.003,0.801l2.447,6.099l2.242,2.832l0.324,0.729l2.132,0.729l0.235,1.338l-4.449,11.089l-0.105,1.638l1.679,2.12
		l0.578-0.031l3.134-1.931l0.432-0.699l0.997,0.421l-0.177,3.417l1.748,8.03l2.5,2.028l1.073,1.382l-0.458,2.606l0.68,1.791
		l0.678,0.696l1.582-1.5l1.817,0.031l1.863,0.852l1.774-0.435l2.421-0.102l2.539,1.021l1.75-0.19l0.317-1.938l1.872-0.488
		l0.804,0.967l0.281,1.879l0.909,0.774l-5.352,34.211C155.354,331.027,99.217,320.37,94.754,319.41L94.754,319.41z"/>
	<path id="UT" fill="#D3D3D3" stroke="#FFFFFF" stroke-width="0.75" d="M165.602,404.682l-53.446-7.576l13.139-71.82l29.853,5.581
		l-0.948,6.784l-1.475,8.407l4.983,0.592l10.47,1.152l5.24,0.546L165.602,404.682z"/>
	<path id="AZ" fill="#D3D3D3" stroke="#FFFFFF" stroke-width="0.75" d="M92.477,450.965l-1.676,1.377l-0.206,0.929l0.31,0.619
		l12.07,6.809l7.738,4.849l9.388,5.468l10.729,6.396l7.84,1.548l15.923,1.726l11.012-76.023l-53.437-7.605l-1.973,10.474
		l-1.025,0.01l-1.094,1.678l-1.605-0.073l-0.802-1.75l-1.75-0.219l-0.584-0.729h-0.583l-0.584,0.365l-1.24,0.657l-0.073,4.45
		l-0.146,1.094l-0.365,8.024l-0.948,1.386l-0.365,2.116l1.75,3.137l0.802,3.72l0.511,0.657l0.657,0.365l-0.073,1.459l-1.021,0.876
		l-2.188,1.094l-1.24,1.24l-0.948,2.334l-0.365,3.137l-1.824,1.75l-1.313,0.438l0.087,0.53l-0.292,1.094l0.292,0.511l2.334,0.365
		l-0.365,1.75l-0.948,1.386L92.477,450.965L92.477,450.965z"/>
	<path id="NV" fill="#D3D3D3" stroke="#FFFFFF" stroke-width="0.75" d="M125.331,325.212l-15.086,82.21l-1.169,0.223l-1.004,1.535
		l-1.514,0.007l-0.939-1.75l-1.671-0.241l-0.492-0.707l-0.662-0.034l-1.773,1.049l-0.198,4.33l-0.231,3.687l-0.223,5.484
		l-0.923,1.333l-1.556-0.685l-44.084-66.497l12.118-43.13L125.331,325.212L125.331,325.212z"/>
	<path id="OR" fill="#D3D3D3" stroke="#FFFFFF" stroke-width="0.75" d="M94.909,318.802l5.648-22.209l0.671-2.699l1.502-3.588
		l-0.393-0.742l-1.605-0.029l-0.818-1.066l0.292-0.934l0.321-2.072l2.845-3.502l1.167-0.701l0.729-0.729l0.948-2.276l2.583-3.618
		l2.276-2.465l0.146-2.202l-2.086-1.576l-1.138-2.963l-8.082-2.305l-9.629-2.262l-9.848,0.073l-0.292-0.876l-3.502,1.313
		l-2.845-0.365l-1.532-1.021l-0.802,0.438l-2.991-0.146l-1.094-0.876l-3.355-1.313l-0.511,0.073l-2.772-0.948l-1.24,1.167
		l-3.939-0.219l-3.793-2.626l0.438-0.511l0.146-4.96l-1.459-2.481l-2.626-0.365l-0.438-1.605l-1.502-0.298l-3.701,1.314
		l-1.444,4.126l-2.063,6.398l-2.063,4.126l-3.198,8.975l-4.126,8.666l-5.158,8.047l-1.238,1.857l-0.516,5.468l0.246,7.709
		L94.909,318.802L94.909,318.802z"/>
	<path id="WA" fill="#D3D3D3" stroke="#FFFFFF" stroke-width="0.75" d="M65.139,211.642l2.786,0.929l6.19,1.754l5.468,1.238
		l12.793,3.611l14.65,3.611l9.715,2.047l-8.699,40.578l-7.942-2.25l-9.897-2.279l-9.719,0.021l-0.291-0.858l-3.573,1.391
		l-2.932-0.47l-1.37-1.011l-0.838,0.42l-3.022-0.089l-1.084-0.862l-3.359-1.348l-0.469,0.094l-2.801-0.973l-1.208,1.16l-3.999-0.191
		l-3.782-2.633l0.497-0.595l0.077-4.899l-1.456-2.451l-2.626-0.387l-0.432-1.602l-1.452-0.292l-2.269,0.786l-1.444-2.054
		l0.206-1.857l1.754-0.206l1.032-2.579l-1.651-0.722l0.103-2.373l2.786-0.413l-1.754-1.754l-0.929-4.539l0.413-1.857v-5.055
		l-1.135-2.063l1.444-5.983l1.341,0.31l1.548,1.857l1.754,1.651l2.063,1.238l2.888,1.341l1.96,0.413l1.857,0.929l2.167,0.619
		l1.444-0.103v-1.548l0.825-0.722l1.341-0.825l0.206,0.722l0.206,1.135l-1.444,0.31l-0.206,1.341l1.135,0.929l0.722,1.548
		l0.413,1.238l0.929-0.103l0.103-0.825l-0.619-0.825l-0.31-2.063l0.516-1.135l-0.413-0.929v-1.444l1.135-2.27l-0.722-1.651
		l-1.548-3.095l0.206-0.516L65.139,211.642L65.139,211.642z"/>
	<path id="CA" fill="#D3D3D3" stroke="#FFFFFF" stroke-width="0.75" d="M92.339,450.689l2.514-0.312l0.948-1.283l0.348-1.877
		l-2.267-0.377l-0.328-0.426l0.304-1.297l-0.101-0.376l1.227-0.396l1.942-1.808l0.371-3.188l0.881-2.171l1.24-1.382l2.246-1.015
		l1.056-1.024l0.044-1.346l-0.634-0.37l-0.653-0.685l-0.737-3.732l-1.713-3.082l0.361-2.237l-1.544-0.657L53.77,355.166
		l12.063-43.141l-42.808-10.018l-0.962,3.02l-0.103,4.745l-3.301,7.531l-1.96,1.651l-0.206,0.722l-1.135,0.516l-0.929,2.682
		l-0.516,2.063l1.754,2.682l1.032,2.682l0.722,2.27l-0.206,4.126l-1.135,1.96l-0.413,3.714l-0.619,2.373l1.135,2.476l1.754,2.888
		l1.444,3.095l0.825,2.579L20,357.849l-0.206,0.31v1.341l3.611,4.024l-0.31,1.548l-0.413,1.444l-0.413,1.238l0.103,5.262
		l1.341,2.373l1.238,1.651l1.754,0.31l0.619,1.754l-0.722,2.27l-1.341,1.032h-0.722l-0.516,2.476l0.31,1.857l2.063,2.786
		l1.032,3.405l0.929,2.992l0.825,1.96l2.167,3.714l0.929,1.651l0.31,1.857l1.032,0.619v1.548l-0.516,1.238l-1.135,4.539l-0.31,1.238
		l1.548,1.754l2.682,0.309l2.888,1.135l2.476,1.341h1.857l1.857,1.96l1.651,3.095l0.722,1.444l2.476,1.341l3.095,0.516l0.929,1.341
		l0.413,2.063l-0.929,0.413l0.206,0.619l2.063,0.516l1.754,0.103l2.017-1.077l2.476,2.682l0.516,1.444l1.651,2.682l0.206,2.063
		v5.983l0.31,1.135l6.396,0.928l12.587,1.754L92.339,450.689L92.339,450.689z"/>
</g>
<g id="Layer_2">
	<path fill="none" stroke="#231F20" stroke-width="2" d="M125.374,226.501l-8.627-1.613 M229.999,298.213l5.617-55.073l0,0
		l-19.575-1.792l-18.673-2.27l-18.673-2.579l-20.633-3.405l-11.761-2.167l-20.883-4.424 M23.025,302.007l-0.962,3.02l-0.103,4.745
		l-3.301,7.531l-1.96,1.651l-0.206,0.722l-1.135,0.516l-0.929,2.682l-0.516,2.063l1.754,2.682l1.032,2.682l0.722,2.27l-0.206,4.126
		l-1.135,1.96l-0.413,3.714l-0.619,2.373l1.135,2.476l1.754,2.888l1.444,3.095l0.825,2.579L20,357.849l-0.206,0.31v1.341
		l3.611,4.024l-0.31,1.548l-0.413,1.444l-0.413,1.238l0.103,5.262l1.341,2.373l1.238,1.651l1.754,0.31l0.619,1.754l-0.722,2.27
		l-1.341,1.032h-0.722l-0.516,2.476l0.31,1.857l2.063,2.786l1.032,3.405l0.929,2.992l0.825,1.96l2.167,3.714l0.929,1.651l0.31,1.857
		l1.032,0.619v1.548l-0.516,1.238l-1.135,4.539l-0.31,1.238l1.548,1.754l2.682,0.309l2.888,1.135l2.476,1.341h1.857l1.857,1.96
		l1.651,3.095l0.722,1.444l2.476,1.341l3.095,0.516l0.929,1.341l0.413,2.063l-0.929,0.413l0.206,0.619l2.063,0.516l1.754,0.103
		l2.017-1.077l2.476,2.682l0.516,1.444l1.651,2.682l0.206,2.063v5.983l0.31,1.135l6.396,0.928l12.587,1.754l8.835,0.862l0,0
		l2.514-0.312l0.453-0.613l-0.422,0.617l-2.407,0.583l0,0l-1.676,1.377l-0.206,0.929l0.31,0.619l12.07,6.809l7.738,4.849
		l9.388,5.468l10.729,6.396l7.84,1.548l15.874,1.721l-0.003,0.016l9.867,1.269l0.825-6.396l18.655,1.805l0,0l-0.495-3.03
		l5.516,0.335l19.255,1.88l17.401,1.078l1.414-11.938l2.461-35.658l1.109-12.373l1.003,0.082l0.525-7.092l10.445,0.955l3.129-55.09
		l-20.454-2.281l4.782-56.024 M42.627,246.633l-1.444,4.126l-2.063,6.396l-2.063,4.126l-3.198,8.975l-4.126,8.666l-5.158,8.047
		l-1.238,1.857l-0.516,5.468l0.246,7.709 M116.74,224.83l-9.715-2.047l-14.65-3.611l-12.793-3.611l-5.468-1.238l-6.19-1.754
		l-2.786-0.929l0,0l-0.722,0.516l-0.206,0.516l1.548,3.095l0.722,1.651l-1.135,2.27v1.444l0.413,0.929l-0.516,1.135l0.31,2.063
		l0.619,0.825l-0.103,0.825l-0.929,0.103l-0.413-1.238l-0.722-1.548l-1.135-0.929l0.206-1.341l1.444-0.31l-0.206-1.135l-0.206-0.722
		l-1.341,0.825l-0.825,0.722v1.548l-1.444,0.103l-2.167-0.619l-1.857-0.929l-1.96-0.413l-2.888-1.341l-2.063-1.238l-1.754-1.651
		l-1.548-1.857l-1.341-0.308l-1.444,5.983l1.135,2.063v5.055l-0.413,1.857l0.929,4.539l1.754,1.754l-2.786,0.413l-0.103,2.373
		l1.651,0.722l-1.032,2.579l-1.754,0.206l-0.206,1.857l1.444,2.054"/>
	<g>
		<path fill="none" stroke="#231F20" stroke-width="2" d="M230.607,417.706l0.766-0.018l-0.876-0.018l-1.021,11.964l-2.481,35.453
			l-1.426,12.42l-18.529-1.021l-18.529-1.75l-5.107-0.438l0.414,2.985l1.238,0.31l1.651,1.857l0.929,2.786l2.992,1.444l0.825,2.063
			l4.539,5.055l0.825,1.032l3.198,1.341l0.722,1.341l1.032,0.619l0.309,1.754l2.063,4.126v5.158l1.444,2.992l4.745,4.952
			l3.301,1.341l1.135,1.238v0.413l2.476,1.444l1.238,0.413l1.135,0.722l1.651,0.619l1.548-1.548l2.786-3.92l0.619-2.373l1.444-2.063
			l2.27-0.929l2.888-1.135l1.96,1.444l4.745,0.413l4.333,0.722l1.651,1.341v0.722l1.651,1.96l3.817,3.405l0.103,0.929l1.135,1.238
			l0.516,2.682l3.405,7.841l-0.103,1.238l2.682,1.651l2.27,4.23l2.167,2.786l2.063,0.825l1.032,1.444l-0.825,2.786l0.413,0.619
			l0.825,0.413l-0.206,2.167l-0.413,0.413l0.413,1.444l2.063,1.238l0.825,4.126l1.341,2.476l4.849,2.167l3.301,0.722l2.682,1.96
			l2.063,0.413l0.825-0.31l3.507,0.722l3.611,2.476l1.96-1.238l0.619-0.929l-1.135-1.754l-0.619-3.92l-1.135-4.436l-0.516-1.548
			l0.516-2.888l0.722-2.476l0.825-2.888l0.929-3.507l1.754-2.682l2.476-3.507l2.167-0.413l3.714-2.27l1.135-0.929l4.024-2.167
			l3.611-1.548l3.405-2.063l1.754-1.341l3.611-3.405l0.825-0.516l1.341-0.929l1.651-1.238l0.619-1.238l6.293-2.888l3.615-1.011
			l-0.004-0.047l2.929-0.95l7.73,0.132l6.602,2.27l4.126,0.722l2.373-0.929l2.063,0.722l2.063,0.619l0.516-1.341l-2.063-0.722
			l-1.651,0.31l-1.754-1.032c0,0,0.103-0.825,0.516-0.929c0.413-0.103,1.96-0.619,1.96-0.619l1.135,0.929l1.135-0.619l2.063,0.413
			l0.929,1.548l0.206,1.444l2.888,0.206l1.135,1.135l-0.516,1.032l-0.825,0.516l1.032,1.032l5.364,2.27l2.27-0.825l0.619-1.548
			l1.651-0.413l1.135-0.929l0.825,0.619l0.516,1.857l-1.444,0.516l0.413,0.413l2.167-0.825l1.444-2.167l0.516-0.31l-1.341-0.206
			l0.516-1.032l-0.103-0.929l1.341-0.31l0.722-0.825l0.413,0.516c0,0-0.103,1.96,0.413,1.96c0.516,0,2.682,0.413,2.682,0.413
			l2.579,1.238l0.619,0.929h1.857l0.722,0.619l1.444-1.96v-0.929h-0.825l-2.167-1.754l-3.714-0.516l-2.063-1.444l0.722-1.754
			l1.444,0.206l0.103-0.413l-1.135-0.619v-0.31h2.063l1.135-1.96l-0.825-1.238l-0.206-1.754l-0.929,0.103l-1.238,1.341l-0.413,1.651
			l-1.96-0.413l-0.619-1.135l1.135-1.238l1.214-2.199 M488.093,467.222L488.093,467.222l1.341-0.825l3.198-3.507l-0.619-2.063
			l1.857-0.103l2.27-2.167l1.032-0.516l1.444-2.167l1.754-1.754l1.341-2.27l1.548-0.413l0.722-1.754l1.032-0.516l0.31-4.024
			l1.651-3.92l3.46-3.483l-0.008-0.006l3.371-0.826l2.992-0.309l0.31-1.548l1.238-4.126l2.167-2.992l4.126-3.405l3.301-1.548
			l1.754-0.413l0.722,0.31h0.825l1.96-3.095l1.238-2.27l-0.825,0.31l-1.444,1.444l-0.413-1.032h-2.682l1.238-4.024l-0.516-0.825
			h-1.238v-0.619l-0.206-0.825l1.032,0.825l0.929,0.103l1.548,0.206l2.373-1.032l0.825-1.857l0.413-1.341l1.651-0.825l0.206-2.682
			l-0.516-0.413l1.548-0.103l-0.413-1.444l-1.548-1.548l-2.27-4.126l-1.331-3.138l0,0l-3.223,0.738l-7.133,1.535l-12.752,2.718
			l-13.811,3.012l-9.659,1.332l-10.056,1.437l-4.594,0.546l-2.729,0.015l-0.001,0.013l-1.32-0.123l-1.66,1.294l-4.463,0.018
			l-11.716,1.523l-2.746,0.65l2.199-0.547l3.611-2.167l2.795-1.381l0.04-1.341l0.776-1.095l3.143-3.488l2.283-2.549l1.463-1.533l0,0
			l-1.568-1.059l-1.152-2.312l-2.655-2.193l-0.493-1.464l-1.653-0.993l-0.516-1.003l-0.075-3.62l-1.687-1.329l-1.304-0.675
			l-0.413-1.81l-1.201,0.451l-1.671,0.91l-1.077,1.312l-1.643-0.139l-3.342-0.366l-1.66,0.816l-1.031,0.094l-1.309-1.409
			l-3.275-0.007l-1.311-2.786l-2.136-0.912l-1.468,0.476l-2.671,0.075l-0.361,1.911l0.729,0.929l0.126,0.999l-1.559,1.09
			l-2.419,1.05l-1.867,0.291l-0.451,3.086l-3.048,2.194l-1.66,2.552l0.234,1.444l-0.375,1.003l-2.117,0.028l-0.976-1.06
			l-1.371,0.685l-1.998,1.116l0.103,1.884l-0.749,0.168l-0.262-0.638l-1.407-0.947l-2.034,0.819l-1.015,1.983l-0.975-0.556
			l-0.888-1.038l-2.868,0.31l-3.395,0.619l-1.948,0.944c0.01,0.086-0.788,2.311-0.79,2.334l-0.962,0.636l0.413,1.238l0.516,1.135
			l-1.032,0.413l-1.651,0.413l-1.238,0.929l-0.206,1.444l0.825,1.548l-0.103,1.444l-0.722,0.206l-2.27-0.825l-1.754-0.825
			l-1.341,0.413l-1.444,1.135l-0.512,1.217l1.026,1.62l-0.583,1.167l-0.146,2.043l-1.595,0.983l-0.77,0.841l-0.065-0.001
			l-0.902,4.514l-1.082,3.497l-0.11,0.091l0.013-0.038l0,0l-2.54,0.458l-3.262-0.405l0.269-1.022l1.902-1.638l0.602-2.333
			l-1.167-1.897l-49.929,1.601l-0.459-4.239l-0.043-2.435l-7.745,0.204l-29.617-0.292l-28.742-1.313l-15.502-0.876l0,0
			l-10.647-0.812l-0.562,6.989 M389.416,503.863l0.704-0.496l1.651-2.682l1.135,0.516l4.333-1.238l1.341,0.206l0.929,0.516h3.301
			l0.024-0.118h1.731l0.413,0.103l0.825-1.754l0.929-2.786l1.444,0.413l1.96,3.817v0.619l-1.754,1.238l1.754,0.206l3.537-1.642
			v-0.001l1.83-0.322l3.817-1.341l3.817-0.309l2.786-0.413l4.849,1.135l5.158,2.476l1.032,0.929l1.857,0.722l1.032,1.238
			l0.206,1.754l2.063-0.825h2.476l2.27-1.238l2.373-2.27l1.96,0.103l0.309-0.722l-0.516-0.619l0.103-1.238l2.579-0.516h1.651
			l1.857,0.929l2.682,0.929l1.548,2.373l1.754,0.619l0.722,2.167l2.167,1.032l1.032,1.651l1.238,0.413l3.301,0.825l0.825,1.96
			l1.96,2.373v6.087l-0.929,2.992l0.206,1.754l0.825,3.095l1.135,2.579l0.206,2.063l2.27,2.373l1.651,1.96l1.857,3.405l1.857,2.476
			l1.341,3.198l1.135,0.206l1.032-1.341l1.135,0.722l1.651,2.579l0.413,2.27l1.96,2.786l0.516-0.825l2.476,0.206l2.27,1.444
			l2.167,3.301l0.516,2.167l0.206,1.857l0.722,0.619l0.825,0.31l1.548-0.619l0.929-1.032l2.476-0.103l1.96-0.929l1.754-2.063
			l-0.31-1.238l-0.206-1.548l0.413-1.238l-0.206-1.238l1.548-0.825l0.206-2.167l-0.413-1.135l-0.309-7.634l-0.825-4.849
			l-2.888-5.262l-2.27-3.714l-1.651-3.405l-1.857-1.857l-1.857-4.745l0.516-0.825l0.722-0.825l-1.032-1.857l-2.579-2.373
			l-3.095-3.507l-2.373-4.024l-3.405-5.983l-2.38-6.217l-1.41-4.553l-0.491-3.994l1.444-6.396l0.929-2.682l-0.31-1.651l2.128-3.985
			l-0.325-0.863"/>
	</g>
	<g>
		<path fill="none" stroke="#231F20" stroke-width="2" d="M297.584,245.94l-18.278-0.36l-11.864-0.413l-16.919-0.825l-14.643-1.362
			l-4.462,42.862l-0.053-0.003l-3.398,40.645h0.002l-2.768,28.044l20.624,1.863l-0.685,13.611 M362.347,277.585l-0.479,0.354
			l-0.764-0.103l-0.413-0.722l-0.851,0.19l-0.722,0.103l-1.135,0.619l-0.619-0.413l0.413-1.238l1.238-1.96l0.722-0.722l-1.238-0.929
			l-1.341,0.516l-1.857,1.238l-4.745,2.063l-1.857,0.413l-1.857-0.31l-0.618-0.553l0.191-0.248l2.762-1.759l0.825-0.103l2.888-3.198
			l1.135-0.516l1.444-2.476l1.548-2.27l1.96-1.651l3.047-1.281l5.9-2.592l2.514-1.172l0.391-1.454l-2.833,0.237l-0.456,0.692h-0.413
			l-1.135-1.96l-5.674,0.206l-0.619,0.516h-0.619l-0.31-0.825l-0.516-1.135l-1.651,0.31l-2.063,2.063l-1.032,0.516h-1.96
			l-1.651-0.619v-1.341l-0.825-0.103l-0.31,0.309l-1.651-0.825l-0.31-1.857l-0.929,0.31l-0.31,0.619l-1.548-0.31l-3.405-1.548
			l-2.476-1.651h-1.857l-0.825-0.619l-1.444,0.413l-0.722,0.722l-0.206,0.825h-3.095v-1.341l-4.024-0.206l-0.206-0.929h-3.095
			l-1.032-1.032l-0.929-3.92l-0.516-3.507l-1.238-0.516l-1.444-0.31l-0.413,0.103l-0.206,5.262l-19.229-0.022 M396.307,343.455
			l-0.174-0.588l-0.516-1.651l-0.825-2.373l-1.032-1.135l-0.929-1.651l-0.149-3.503l-1.232,0.07l1.27-0.075l0,0l-0.043-2.015
			l-0.752-2.888l-0.413-3.92l-0.722-1.548l0.619-1.96l0.516-1.857l0.929-1.651l-0.413-2.167l-0.413-2.27l0.31-1.135l1.238-1.548
			l0.103-1.754l-0.516-0.825l0.413-1.651l-0.289-2.662l1.754-3.611l1.857-4.333l0.103-1.444l-0.206-0.619l-0.516,0.31l-2.682,4.024
			l-1.754,2.579l-1.238,1.135l-0.516,1.444l-1.248,0.516l-0.722,1.238l-0.929-0.206l-0.103-1.135l0.825-1.548l1.341-2.992
			l1.135-1.032l0.609-1.449l0.017,0.015l2.03-4.468l0.619-2.579l1.238-2.786l0.516-0.103l0.722,1.032h0.413l2.888-1.548l0.929,1.032
			l0.31,0.103l0.825-0.722l0.722-1.96l1.548-0.516l4.436-0.413l1.238-1.651l3.301-0.103l3.714,0.825h1.135l2.063-0.929l1.444,0.103
			l1.341-0.413l2.373,0.31l0.516,0.206l0.825-0.206l-0.825-0.619l-0.825-0.413l-2.063-1.96v-4.436l-0.929-0.31l-0.722,0.722
			l-3.92,1.032l-1.238,0.31l-1.857-0.516l-0.31-0.206v-3.611l-0.929-0.103l-1.651,0.825l-2.888,1.238l-4.23,0.206l-2.167,0.722
			l-2.579,2.27l-1.032,0.619h-0.722l-0.825,0.516l-1.032-0.31l-1.029-0.824l-0.929,0.619l-2.476,0.103l-1.754-1.754l-0.929-1.96
			l-0.929-0.722l-2.063-0.619h-1.444l-0.825-0.825l-2.27,1.857l-0.619,0.722l-0.516-0.31l0.206-1.651l1.548-2.063l0.31-1.548
			l1.444-0.516l0.929-1.96l2.373-0.619l0.206-0.619l-0.722-0.722l-2.992,0.31l-2.786,1.548l-1.444,1.444l-0.825,1.135l-1.135,0.516
			l-1.238,1.857l-0.103,0.825l-2.786,1.341l-1.548,1.238l-3.817,0.619l-0.413,0.413v0.619l-2.27,1.444l-1.754,0.516l-0.457,0.37l0,0
			 M428.145,377.116l2.631-0.082l1.548-0.516l2.147,0.959l1.321,2.786l3.28-0.011l1.207,1.352l1.124-0.041l1.62-0.856l1.598,0.237
			l3.46,0.308l1.102-1.361l1.497-0.825l1.321-0.435l0.413,1.754l1.135,0.619l2.218,1.496l1.392-0.052l0.851-0.314l0.118-1.763
			l1.012-0.928l0.063-3.059l0.653-2.622l0.829-0.384l0.843,0.733l0.343,1.083l1.097-0.662l0.28-0.932l-0.713-1.214l0.042-1.477
			l0.478-0.684l1.374-2.11l0.67-0.985l1.341,0.31l1.444-1.032l1.96-2.167l1.768-2.603l0.204-3.226l0.31-3.198l-0.113-3.387
			l-0.609-1.847l0.224-0.759l1.151-1.117l-1.461-5.773l-1.857-12.356l-3.888,2.586l-2.476,1.444l-2.167,2.373l-2.579,2.476
			l-2.063,0.516l-1.857,0.31l-3.507,1.651l-1.341,0.103l-2.167-1.96l-3.301,0.413l-1.651-0.929l-1.519-0.862l-3.123,0.449h-0.002
			l0.099-0.888l1.341-2.373l1.277-1.109l-0.142-3.224l1.019-1.019l0.696-0.219l0.142-2.27l0.98-1.934l0.671,0.387l0.103,0.413
			l0.516,0.103l1.238-0.619l-0.206-6.087l0,0l-2.063-5.262l-1.444-5.777l-1.548-2.063l-1.651-1.135l-1.032,0.722l-2.476,1.135
			l-1.238,3.198l-1.754,2.373l-0.722,0.413l-0.929-0.413c0,0-1.651-0.929-1.548-1.341c0.103-0.413,0.31-3.198,0.31-3.198
			l2.167-0.825l0.516-2.167l0.413-1.651l1.548-1.032l-0.206-6.396l-1.032-1.444l-0.825-0.516l-0.516-1.341l0.516-0.516l1.032,0.206
			l0.103-1.032l-1.548-1.444l-0.825-1.651h-1.651l-2.888-0.929l-3.507-2.167h-1.754l-0.413,0.413l-0.619-0.31l-1.96-1.444
			l-1.857,1.135l-1.857,1.444l0.206,2.27l0.619,0.206l1.341,0.31l0.31,0.516l-1.651,0.516l-1.651,0.206l-0.929,1.135l-0.206,1.341
			l0.206,1.032l0.206,3.507l-2.27,1.341l-0.413-0.103v-2.682l0.825-1.548l0.413-1.548l-0.516-0.516l-1.238,0.516l-0.619,2.682
			l-1.754,0.722l-1.135,1.238l-0.103,0.619l0.413,0.516l-0.413,1.651l-1.444,0.31v0.722l0.516,1.548l-0.722,3.92l-1.032,2.579
			l0.413,2.992l0.309,0.722l-0.516,1.548l-0.206,0.516l-0.206,1.754l2.27,3.817l1.857,4.126l0.929,3.095l-0.516,2.992l-0.619,3.817
			l-1.548,3.301l-0.206,1.754l-2.049,1.939l-1.758,1.004l-1.341,1.238l-0.722,0.206l-0.929-0.619l-1.96-0.568 M395.594,398.028
			l1.857-0.99l3.569-0.619l2.849-0.309l0.929,1.02l0.918,0.516l0.99-1.918l2.074-0.856l1.383,0.959l0.299,0.65l0.762-0.165
			l-0.103-1.949l1.712-0.959l1.591-0.805l1.012,1.032h2.123l0.371-0.979l-0.206-1.517l1.784-2.559l2.92-2.114l0.382-3.106
			l2.043-0.351l2.258-0.99l1.609-1.021l-0.061-0.876l-0.784-1.146l0.237-1.444 M324.391,413.851l0.146,2.991l0.292,3.435
			l14.316-0.553l14.809-0.438l13.277-0.511l7.438-0.147l1.384,2.186l-0.437,2.11l-1.97,1.534l-0.365,1.172l3.432,0.292l2.486-0.438
			l1.096-3.506l0.415-3.738l1.339-1.63l1.657-0.949l0.033-1.946l0.648-1.236l-1.061-1.593l0,0l0.579-1.324l1.412-1.115l1.36-0.392
			l1.661,0.753l2.315,0.878l0.759-0.19l0.128-1.441l-0.821-1.539l0.194-1.517l1.173-0.86l1.929-0.517l0.805-0.293l-0.391-0.885
			l-0.505-1.502l0.914-0.626l0.738-2.051l0,0 M245.185,370.106l-2.485,41.222l15.718,0.802l28.435,1.313l29.412,0.292l8.052-0.13
			l0,0 M382.457,411.485l-0.033-0.036l0.514-0.32L382.457,411.485z"/>
		<path fill="none" stroke="#231F20" stroke-width="2" d="M469.465,329.972L469.465,329.972L469.465,329.972z"/>
		<path fill="none" stroke="#231F20" stroke-width="2" d="M395.594,398.028L395.594,398.028L395.594,398.028z"/>
	</g>
	<g>
		<path fill="none" stroke="#231F20" stroke-width="2" d="M564.716,317.053l1.318-0.638l-0.309-1.444l0.516-0.929l1.857-0.929
			l0.516,1.96l-0.31,1.135l-1.547,0.929v0.619l1.238-0.929l2.476-2.888l2.476-1.238l2.682-0.929l-0.206-1.548l-0.619-1.857
			l-1.238-1.548l-1.135-0.516l-1.341,0.103l-0.31,0.31l0.619,0.825l0.929-0.516l1.341,1.032l0.516,1.754l-1.135,1.135l-1.444,0.619
			l-2.27-0.31l-2.476-3.817l-1.444-1.651h-1.135l-0.722,0.516l-1.238-1.651l0.206-0.929l1.548-3.301l-1.844-2.816l-0.128,0.057
			l0.546-0.676l0.626-1.89l0.068,0.032l0.717-3.994l0.103-2.786l0.929-0.825l-0.619-2.063l1.96-2.27l1.032,0.929l0.825-0.31
			l3.405-1.96l0.206-1.857l1.857-0.31l1.032-1.651l-0.103-1.032l-0.206-1.96l0.516-0.825l-0.206-0.722l-0.825-0.929l1.341-0.825
			l1.135,2.063l0.929-0.206l0.206,0.825v1.032l1.238,0.103l0.31-1.754l0.31-0.413l-1.032-0.929l0.619-0.929l1.548-0.929l0.619-0.929
			l1.135-0.103c0,0,0.206,1.341,0.619,1.341c0.413,0,0.825,0,0.825,0l3.095-3.507l2.167-1.96l1.238-0.413l1.341-2.992v-1.238
			l-1.444-2.373l-1.238-1.341l0,0l-1.754,0.103l0.31,0.722l-0.103,0.31h-0.516l-1.857-1.444l-0.103-3.095l-0.516-1.238h-3.817
			l-5.777-19.086l-1.238-0.619l-3.817-1.548l-0.929-0.103l-1.135,1.135l-2.579,1.857v0.619l-0.516,0.516l-1.754-0.413l-0.825-1.444
			v-0.722l-0.825-0.103h-0.825l-1.341,2.682l-1.857,5.674l-1.135,3.095l0.103,3.095l0.103,0.929l-0.516,1.754l-0.516,0.619v3.817
			l1.238,1.548l-0.929,2.579l-1.651,2.992l-0.835,2.869v1.651l-0.966-0.262l-0.887,0.074l-0.008-0.025l-0.572-0.003l-0.413,1.032
			l-0.413-0.31l-0.619-0.619l-0.929,1.238l-0.031,3.211l0.005,0.096l-16.612,4.233l-0.001-0.01l-4.828,1.322l-2.888,0.929
			l-2.063-0.103l-3.507,0.825l-1.966,0.795l-1.541,1.165l-1.341,1.548l-1.754,2.373l-1.857,2.889l-0.929,1.857l-0.413,0.516
			l-3.714,3.507l0.103,1.651l0.516,0.722l1.135,0.516h1.135v0.929l-0.722,1.341l0.206,0.929l0.929,1.341l-0.103,1.444l-1.238,0.722
			h-1.341l-1.032,1.238l-1.135,2.063l-1.341,1.135l-3.301,0.31l-1.651,0.722l-1.341,0.825l-1.032-0.103l-1.238-0.825l-4.024,0.103
			l-2.063,0.31l-2.579,0.825l-2.786,0.929l-1.857,1.135l1.238,3.92l1.135,0.103l0.825,1.96l0.103,0.619l-0.722,0.619l-1.341,1.754
			l-0.31,1.032l-1.238,1.135l-1.135,0.722l-0.619,1.032l-0.825,0.722l-0.911,0.718l0.001,0.006l-3.41,3.222l-0.825,0.31l-2.682,1.92
			l1.858,12.213l1.498,5.875l-0.817,0.823l-0.619,0.929l0.722,1.96v2.992l-0.31,3.198l-0.206,3.611l-1.444,2.476l-1.96,2.167
			l-1.444,1.032l-1.341-0.31l-0.825,0.929l-1.444,2.167l-0.619,0.825v1.548l0.722,1.135l-0.31,1.032l-1.135,0.619l-0.31-1.135
			l-0.825-0.722l-0.825,0.413l-0.619,2.476l-0.103,3.198l-1.032,0.928l-0.103,1.754l-1.238,0.516l-1.392,0.052l0.154,3.353
			l0.516,1.032l1.651,0.929l0.413,1.444l2.735,2.213l1.093,2.312l2.006,1.269 M541.021,330.092l2.726-2.493l2.27-2.063l1.238-1.341
			l0.516,0.413l1.754-0.929l3.301-0.722l4.971-2.027l0.005,0.019l0,0l1.857-0.619l1.548-1.238l0.722-1.135l0.825,0.103l1.914-1.037
			 M534.922,373.567l1.281-2.568l-0.278-3.132l0,0l-0.011,0.002l-1.442-4.704l-0.619,0.31l-2.27-1.548l-1.135-2.992l-1.238-2.27
			l-1.924-1.755l2.062,1.856l3.095,1.444l2.579,0.413l0.103,0.929l-0.516,0.619l0.206,1.754h0.516l1.341-1.548l0.516-3.095
			l1.754-2.579l1.961-4.126l0.722-3.507l-0.413-0.722l-0.103-5.983l-1.032-2.167l-0.722,0.516l-1.754,0.206l-0.309-0.31l0.722-0.619
			l1.341-1.238l0.036-0.636l0.008,0.128l0.75,0.34l2.579-0.722l3.714-1.238l1.651-0.619l4.539-3.405l2.476-1.857l2.167-2.27
			l-2.682-1.032l-0.825,0.929l-1.857,1.754l-5.055,2.476l-1.444-0.103l-1.032-0.413l-0.722,0.413l-1.444,1.651l-0.929,0.825
			l-0.825,0.206l-0.206-0.825l1.238-1.135l-0.509-1.071 M522.277,375.125l0.619-1.341l-0.929-1.341v-1.135l-1.548-1.341
			l-1.341-3.507l0.825-3.405l-0.103-1.341l-0.825-0.825c0,0,0.929-1.032,0.929-1.444c0-0.413,0.31-1.341,0.31-1.341l1.238-0.825
			l1.238-1.032l0.31,0.619l-0.929,1.032l-0.825,2.373l0.206,0.722l1.135,0.206l0.309,3.507l-1.341,0.619l0.206,2.27l0.31-0.103
			l0.722-1.238l1.032,1.135l-1.032,0.825l-0.206,2.167l1.651,2.167l2.476,0.309l1.032-0.516l2.066,2.669l0.826,0.326l-0.005,0.002
			l0.092,1.242l-0.49,1.977l-1.013,2.669l-0.285,3.477l0.938,2.962l1.381-1.223l1.167-3.177l-0.295-2.163l0.267-2.927l1.863-2.412
			l0.491-2.054 M463.313,395.206l-6.735,7.34l-0.97,1.369l0.008,1.324l-6.681,3.581l6.966-1.031l5.349-0.624l4.683-0.141l1.65-1.229
			l4.262,0.239l23.885-3.369l37.125-8.025l-2.302-3.837l-3.702,1.076l-1.003-0.953l1.629-0.881l-0.314-1.611l-1.131-1.139
			l-0.078-0.901l-1.456-0.985l-0.057-1.031l1.719,0.061l0.142-0.884l-0.784-0.504l0.306-1.232l-0.878-0.704l0.281-2.993
			l-0.554-0.766l-2.036-0.257l-0.456-1.971 M472.653,348.291l0.078,0.304 M527.203,354.834l-0.253-0.613l0.335,0.689
			L527.203,354.834z"/>
	</g>
</g>
</svg>
