<?xml version="1.0" encoding="utf-8"?>
<!-- Generator: Adobe Illustrator 16.0.0, SVG Export Plug-In . SVG Version: 6.00 Build 0)  -->
<!DOCTYPE svg PUBLIC "-//W3C//DTD SVG 1.1//EN" "http://www.w3.org/Graphics/SVG/1.1/DTD/svg11.dtd">
<svg version="1.1" id="Layer_1" xmlns="http://www.w3.org/2000/svg" xmlns:xlink="http://www.w3.org/1999/xlink" x="0px" y="0px"
	 width="{{mapWidth}}px" height="617.83px" viewBox="0 40.787 1000 617.83" enable-background="new 0 40.787 1000 617.83"
	 xml:space="preserve">
<g id="midwest" ng-click = "highlightMap(0)">
	<g id="Kansas">
		<g>
			<line fill="#FFFFFF" x1="658.729" y1="185.767" x2="659.455" y2="186.131"/>
			<line fill="#FFFFFF" x1="659.455" y1="186.131" x2="660.183" y2="185.767"/>
			<line fill="#FFFFFF" x1="643.458" y1="393.005" x2="643.822" y2="392.278"/>
			<line fill="#FFFFFF" x1="643.822" y1="392.278" x2="643.458" y2="391.551"/>
			<path fill="#FFFFFF" d="M661.637,358.102c1.176-0.204,1.253,0.688,2.183,0.729C664.106,360.24,660.507,359.891,661.637,358.102z"
				/>
			<line fill="#FFFFFF" x1="640.913" y1="129.049" x2="641.276" y2="129.776"/>
			<line fill="#FFFFFF" x1="636.914" y1="135.594" x2="636.188" y2="135.23"/>
			<line fill="#FFFFFF" x1="670.363" y1="165.407" x2="670.363" y2="164.68"/>
			<path fill="#FFFFFF" d="M669.271,166.498c0.488-0.748,0.723-1.288,1.092-1.818"/>
			<line fill="#FFFFFF" x1="670.363" y1="164.68" x2="669.636" y2="164.68"/>
			<line fill="#FFFFFF" x1="685.633" y1="181.404" x2="685.633" y2="182.131"/>
			<path fill="#FFFFFF" d="M685.633,182.131c0.256-0.472,0.278-1.176,0.364-1.818"/>
			<line fill="#FFFFFF" x1="685.633" y1="182.131" x2="686.36" y2="182.131"/>
			<line fill="#FFFFFF" x1="636.188" y1="401.731" x2="636.188" y2="401.004"/>
			<line fill="#FFFFFF" x1="634.369" y1="402.095" x2="634.733" y2="401.731"/>
			<line fill="#FFFFFF" x1="634.733" y1="401.731" x2="634.369" y2="402.095"/>
			<line fill="#FFFFFF" x1="636.188" y1="401.004" x2="635.46" y2="401.004"/>
			<line fill="#FFFFFF" x1="756.166" y1="377.735" x2="756.53" y2="377.008"/>
			<path fill="#FFFFFF" d="M770.709,361.011c0.474-0.472,1.177-1.177,1.818-1.817"/>
			<path fill="#FFFFFF" d="M771.438,361.011c1.968,2.925,0.199,0.042,1.453-1.455"/>
			<line fill="#FFFFFF" x1="772.891" y1="359.556" x2="772.527" y2="359.192"/>
			<line fill="#FFFFFF" x1="770.709" y1="361.011" x2="771.438" y2="361.011"/>
			<line fill="#FFFFFF" x1="680.543" y1="355.193" x2="680.18" y2="354.83"/>
			<path fill="#FFFFFF" d="M680.18,356.284c0-0.484,0-0.969,0-1.454"/>
			<line fill="#FFFFFF" x1="680.18" y1="354.83" x2="679.815" y2="355.193"/>
			<path fill="#FFFFFF" d="M790.343,273.025c-1.083,0.855-2.053,1.825-2.908,2.909c4.044,2.127,1.337,8.763,0.729,15.997
				c-0.193,2.281,0.33,4.746,0,5.817c-1.363,4.405-5.593,6.035-6.545,8.727c-1.617-1.202-3.943,0.154-4.363-0.728
				c-1.215,0.234,0.509,1.922-0.728,3.636c-0.245,0.341-2.069,0.493-2.182,0.728c-0.666,1.401,1.024,4.274-1.455,4.362
				c-0.356,2.283,2.508,1.921,0.729,3.637c-1.983,0.529-1.464-1.445-2.909-1.455c-1.914,1.265-3.57,3.21-3.635,6.545
				c-0.027,1.382,1.112,2.368,0.728,3.636c-0.431,1.412-0.893,1.117-1.455,2.181c-0.415,0.786-0.138,2.265-0.727,2.909
				c-0.609,0.667-1.659-0.988-2.182-0.727c-0.098,0.048,1.308,1.521,0,1.455c-3.444-0.177-2.499-2.712-6.545-3.637
				c-0.312-1.385-1.566-1.826-1.454-3.635c-2.787,0.605-4.408,2.378-5.816,4.363c-2.61,0.428-3.519-0.845-5.091-1.455
				c-1.891,0.291-2.192,2.17-4.363,2.182c-1.872-2.227-4.254-3.657-7.999-2.182c-1.011-2.139-3.55-2.751-3.635-5.817
				c-3.909-1.426-7.175-0.616-10.181-1.455c-1.404-21.136-4.949-40.134-6.544-61.081c6.193-0.423,11.724-1.181,16.725-2.181
				c1.821-0.365,3.969-1.495,5.815-1.455c0.067,0.001-0.082,1.371,0,1.455c-0.118-0.12,2.174-0.887,2.909-0.728
				c2.396,0.519,4.962,2.411,7.271,2.909c-0.257,0.955-1.28,1.144-1.454,2.181c2.264-0.26,5.189-0.11,3.636-0.727
				c2.033-1.777,3.551,0.875,5.816,0.727c3.284-0.214,5.468-3.028,7.999-4.362c4.017,1.692,6.411-0.978,8.727-3.636
				c1.114-1.28,1.706-2.559,2.908-3.636c1.965-1.76,4.707-2.529,6.544-3.636c2.293-1.381,3.8-3.471,6.545-3.636
				C786.32,253.779,788.165,263.568,790.343,273.025z"/>
			<path fill="#FFFFFF" d="M661.516,181.283l2.426-1.939c-0.035,0.777-1.939,3.636-0.243,3.636
				c-0.337,0.856-2.423,1.566-2.909,2.181c-0.484,1.939-2.183,4.273-2.787,4.242c-0.575-0.544-0.709-1.288-0.542-1.978
				c0.168-0.69,0.517-2.418,1.147-2.749L661.516,181.283z"/>
			<path fill="#FFFFFF" d="M743.27,237.819c0.949,0.764,2.02-3.881,2.23-5.157c-0.373-0.86-1.412,0-2.007,0.516
				C742.896,233.693,742.519,237.215,743.27,237.819z"/>
			<path fill="#FFFFFF" d="M746.593,235.334c0.922-1.383,2.626,1.009,3.757,2.061c-0.461,2.689-8.004,5.556-6.423,2.787
				C744.896,238.486,745.622,236.789,746.593,235.334z"/>
			<path fill="#FFFFFF" d="M635.339,137.412l1.575-1.818c1.603-1.791,3.598-3.189,4.362-5.817v-1.454
				c-4.489,1.085-8.058,3.093-8.726,7.999c2.287,0.833,2.303-0.182,2.908-1.455c0,0.243,0,0.485,0,0.728L635.339,137.412z"/>
			<path fill="#FFFFFF" d="M669.636,164.68c-0.138-0.589-0.729-0.725-0.727-1.455c-4.156-0.762-3.188,3.6-6.545,3.636
				c0-1.212,0-2.424,0-3.636c-2.291,1.149-2.208,4.34-3.636,6.545c-1.943,3-3.857,8.827-5.816,13.088
				c-2.487-0.387-1.114-3.503-0.729-5.09c0.521-1.179-3.43-1.179-2.908,0c-0.766-4.44,1.765-10.657-5.817-10.18
				c0.233-1.686-0.116-2.792-0.727-3.636c-2.093,1.022-4.397-1.305-6.546-1.455c-1.863-0.13-4.298,0.996-7.271,0
				c-0.38-0.127-1.182-1.371-1.455-1.454c-4.817-1.457-12.509-2.115-18.905-3.636c-0.264-2.645-1.719-4.1-4.362-4.363
				c0.566-2.099,3.517-1.815,5.09-2.909c1.751-1.157,2.41-3.408,4.362-4.363c6.612,1.038,7.694-3.455,12.361-4.363
				c1.024-1.885,2.46-3.357,3.636-5.09c4.471,0.378,4.21,5.485,5.092,9.453c2.297,0.359,0.269-3.608,2.906-2.909
				c0.135,0.619-0.282,0.686-0.727,0.727c2.188,0.866,2.854-1.997,5.09-2.181c5.068-0.418,8.892,4.975,10.908,8.726
				c5.6-0.579,7.66-0.485,12.361,0.728c2.313,0.437,2.103-2.143,2.907-2.909c0.534-0.508,1.967-0.646,2.909-1.454
				c1.729-1.483,1.223-1.92,5.089-2.909c2.045-0.522,4.167,0.1,7.271-0.727c2.79-0.743,4.928-3.575,8-2.909
				c-0.227,2.648,0.114,4.732,0.727,6.544c3.613,0.888,6.916-1.924,7.998,0.727c1.48-0.216,1.938-1.456,2.909-2.182
				c2.138,0.529,3.065,2.267,2.908,5.09c1.586,2.294,4.979,2.778,5.817,5.817c-3.965-0.157-8.742,0.501-11.636-0.728
				c-1.856,0.082-1.442,2.436-1.454,4.363c-2.132-0.05-2.699-1.663-3.636-2.909c-3.433-0.2-6.709-1.948-9.453-0.727
				c-1.796,0.627-2.15,2.696-3.636,3.636c-3.715,0.425-6.695-0.25-8.726,1.454c-1.375,1.154-0.837,3.09-2.908,4.363"/>
			<path fill="#FFFFFF" d="M686.36,182.131c0,1.697,0,3.393,0,5.09c0.363,2.146,0.958-0.972,2.182-0.728
				c0.003,0.001,0.173,1.152,0.728,0.728c1.043-0.8,1.988-2.703,2.183-4.363c0.192-1.669-1.319-4.163-0.729-5.817
				c0.996-2.789,2.419-4.301,5.816-4.363c0.993-3.175-2.815-1.547-2.182-4.363c0.318-3.074,2.951-3.835,4.362-5.817
				c1.841-0.595,2.255,1.684,4.363,2.182c2.788,0.659,6.666-0.6,7.271,2.909c6.479,0.55,11.521,2.538,14.544,6.544
				c0.115,2.056-2.186,1.693-2.183,3.636c0.565,2.101,2.655,2.677,3.636,4.363c0.194,4.543,2.457,10.921-2.182,13.089
				c0.56,2.74-0.887,3.476-0.727,5.817c-1.485,0.696-2.879,1.486-4.363,2.182c-0.695,6.004,0.187,8.714,5.09,9.453
				c1.712-3.136,5.202-4.493,5.091-9.453c3.386-0.491,3.951-3.805,7.998-3.636c6.408,4.984,5.33,17.454,10.907,23.269
				c-1.432,1.962-0.434,6.354-0.727,9.453c-2.354,0.898-0.558-2.353-2.909-1.455c-2.24,1.395-3.384,3.889-2.908,7.999
				c-1.449,0.733-2.546,1.816-3.636,2.909c1.246,7.063-3.377,8.258-3.638,13.816c-7.248,0.504-14.381,3.309-21.812,3.635
				c-2.069,0.091-4.388-0.749-6.545-0.727c-6.276,0.064-13.701,2.121-20.36,2.908c-2.537,0.3-5.41-0.162-7.999,0.727
				c-2.39,0.53-1.112-1.445,0-1.454c1.174-2.035,1.608-3.786,2.909-7.271c1.329-3.559,3.369-9.521,2.908-15.997
				c-0.317-4.459-2.799-7.963-2.182-11.635c-2.778-0.965-2.9-2.813-4.362-5.817c-0.354-0.729-1.278-1.187-1.454-2.182
				c-0.316-1.789,1.31-2.381,1.454-4.363c0.169-2.322-0.872-4.126-2.183-5.817c1.103-3.533,4.247-6.178,3.637-12.361
				c-0.116-1.177-0.827-2.29-0.729-2.909c0.39-2.408,3.245-3.425,2.182-5.817c2.465-1.171,4.673-2.6,5.817-5.09"/>
			<path fill="#FFFFFF" d="M617.645,124.772c0,1.255,6.908-1.966,8-2.247c1.091-0.281,4.361-3.65,4.361-4.773
				s-3.636,2.808-4.727,3.65C624.188,122.244,617.645,123.368,617.645,124.772z"/>
			<path fill="#FFFFFF" d="M679.815,355.193c-0.955,0.128-1.144,1.45-2.183,1.455c-1.523,0.005-1.849-1.266-2.908-1.455
				c-1.22-0.219-4.903,0.612-5.09,0.728c-0.172,0.106,0.169,2.156,0,2.181c-0.925,0.142-0.3-1.141-0.727-1.453
				c-1.108-0.812-4.874,2.11-6.545,0.727c-0.409-3.318,1.289-4.528,0.728-7.999c1.482-0.406,1.426-2.188,2.908-0.727
				c-1.166-3.337,3.154-6.857,3.636-10.908c0.589,0.139,0.726,0.729,1.455,0.728c-0.891-1.208-0.834-4.436-1.455-6.544
				c-0.079-0.271-1.684-1.998-1.454-2.181c1.378-1.104-1.115,0.162-1.454-1.455c1.065-1.6-0.087-5.419,2.183-5.817
				c-2.565-18.039-3.461-37.745-5.817-55.991c-2.066,0.559,3.445,0.507,3.637,0.727c-0.021-0.023-0.832,1.451-0.729,1.455
				c-0.248-0.008,2.738-1.167,4.363-2.182c1.278-0.8,2.079-2.083,3.636-2.909c0.862-0.457,1.361,0.75,1.454,0.727
				c0.817-0.208,0.366-0.83,0-0.727c5.086-1.434,11.873-1.297,18.178-2.182c3.562-0.5,10.557-1.523,15.999-2.182
				c0.759,0.94,0.034,2.286,0,2.182c0.31,0.933,1.257,1.157,1.454,2.182c0.267,1.39-0.125,2.951,0,4.363
				c0.518,5.854,2.145,12.683,2.907,19.633c0.621,5.654,0.805,11.672,1.455,17.452c0.572,5.093,2.031,10.29,2.182,14.542
				c0.084,2.392-1.062,3.466,0,5.818c-3.574-2.53,2.414,3.688-1.455,1.454c0.657,2.448,1.627,0.085,2.909,1.454
				c0.312,1.171-2.712,2.439-2.909,0.727c-1-2.005,0.062,1.898-0.727,2.183c-0.536,0.191-1.757-0.458-1.455-0.728
				c-0.771,0.691,0.761,1.93-0.728,2.183c-0.858,0.146-1.037-1.327-1.454-1.455c-0.95-0.292-2.947,2.458-2.907,0
				c-2.586,1.446-0.215,3.329-0.729,6.544c-4.017,0.167-2.139,8.238-6.544,5.817c-0.596,2.313-0.464,5.354-1.455,7.271
				c-2.115,1.321-3.407-1.452-2.908-1.455c-0.742,0.004-0.75,2.026-2.182,1.455c-0.006-2.176-1.308-3.056-2.908-3.636
				c-2.479-0.871-0.506,2.704,0,1.455c-0.356,0.885-1.671,0.78-2.182,1.454c-0.785,1.033-0.488,3.129-0.728,3.636
				c-0.158,0.333-2.368,0.273-0.728,0.727c-0.577,1.675-3.418-0.376-3.636-1.455c-1.858-0.784-2.546,3.13-3.637,0.729
				c-1.14,0.256,0.637,1.279-0.728,1.454"/>
			<path fill="#FFFFFF" d="M660.91,368.282c-3.548,0.088-5.499,1.771-7.271,3.636c-0.083,2.697,3.377,4.258,1.454,6.544
				c-4.874-2.599-12.207-4.685-13.815,2.182c-1.901,0.08-4.399-2.543-5.091-4.362c-0.374-0.987,0.767-2.167,0.729-3.635
				c-0.071-2.729-2.627-4.321-1.454-6.545c-2.876-0.81-3.969-4.18-6.544-5.816c-0.405-0.257-1.875,0.349-2.182,0
				c-0.191-0.217,0.229-1.302,0-1.454c-0.727-0.479-2.544-0.16-3.638-0.729c-0.316-0.163-0.463-1.335-0.727-1.453
				c-4.442-2.003-5.488-5.534-2.182-10.907c0.801-1.302,0.523-4.119,1.453-7.272c-1.269-1.276-3.703-2.967-5.816-2.909
				c-1.814,0.051-2.605,1.648-4.362,1.454c-1.043-2.443-0.702-5.521-2.182-7.999c-1.528-2.559-3.696-2.586-5.817-4.361
				c-0.594-0.498-0.881-1.624-1.454-2.183c-0.746-0.729-4.419-3.266-5.09-4.362c-0.741-1.209-0.94-4.15-1.454-5.817
				c-0.609-1.977-1.491-3.25-1.454-5.09c0.075-3.836,3.113-2.775,1.454-7.999c0.766-2.143,3.289-2.528,5.09-3.636
				c-0.68-4.316,1.985-5.286,2.908-7.999c-0.384-4.573-4.563-4.579-2.908-9.453c4.316-1.017,7.938-2.726,11.636-4.363
				c0.747-5.367,4.525-7.545,3.635-12.362c-0.453-2.453-1.711-3.178-3.635-4.363c-1.447-0.89-1.341-2.676-2.909-4.363
				c-1.249-1.341-3.069,0.004-2.183-2.182c16.967-0.001,31.917-2.017,47.992-2.908c-0.739,3.741,0.677,5.478,2.182,7.999
				c0.263,0.44,1.352,1.193,1.454,1.454c0.244,0.609-0.291,1.597,0,2.181c1.125,2.255,3.033,4.711,3.637,7.272
				c0.768,3.258,0.347,7.651,0.728,11.634c1.045,10.929,2.717,23.459,3.636,33.449c0.266,2.878,0.836,6.188,0.728,8.727
				c-0.08,1.867-1.075,2.071-1.454,3.636c-0.209,0.868,0.668,0.431,0.729,0.729c0.088,0.439-0.846,1.755-0.729,2.907
				c0.256,2.545,2.997,5.021,2.909,8.727c-0.035,1.423-0.696,1.719-1.455,3.636c-1.058,2.677-1.035,3.111-2.181,5.09
				c-0.665,1.147-1.853,3.9-3.638,4.363c1.177,2.829-0.453,5.169-0.727,7.999c-0.092,0.95,0.834,2.363,0.727,3.636
				C661.481,362.855,659.125,365.011,660.91,368.282z"/>
			<path fill="#FFFFFF" d="M647.821,169.77c1.063,3.228-0.006,4.268,0,7.999c0.226,0.987,1.82,0.604,2.909,0.727
				c-0.996,4.147,1.905,4.395,1.453,7.999c-0.646,0.565-1.643,0.782-2.908,0.728c0.142,4.521-4.089,6.838-2.183,10.907
				c1.798,0.746,2.133-0.76,2.909-1.455c2.062-1.849,2.808-5.217,5.816-7.271c4.694,1.693,0.396,5.384,0,8.726
				c-0.397,3.35-0.618,5.32,0.728,7.999c-2.021,0.402-2.036,2.812-2.908,4.363c-0.826,2.314,0.796,4.613,0.728,6.544
				c-0.092,2.583-1.906,5.532-2.182,8.726c-0.171,1.976,0.511,5.166,0.729,6.544c0.121,0.771-0.725,1.475-0.729,1.454
				c0.187,0.858,1.042,2.071,1.454,2.909c1.179,2.397,1.877,4.876,1.454,10.18c-16.544,0.422-31.15,2.783-47.992,2.909
				c-2.348,0.65-1.021-2.373-2.182-2.909c-2.604-0.061-4.201-1.131-6.544-1.454c-0.088-4.065-4.258-9.193-0.729-12.362
				c-0.257-2.011-2.216-2.085-2.907-3.635c-1.214-2.716-0.352-6.824-1.454-9.453c-0.902-2.148-2.128-4.051-3.637-5.09
				c-0.843-0.582-3.108-0.438-4.362-1.454c-2.253-1.829-3.376-5.326-5.817-7.271c-0.43-0.343-2.469-0.678-3.635-1.455
				c-0.791-0.525-1.636-1.917-2.183-2.182c-1.321-0.638-3.205-0.023-4.362-0.727c-1.527-0.928-1.281-3.296-3.636-2.908
				c1.783-5.058-1.294-11.833,2.182-15.998c-0.845-2.306-2.022-4.28-4.363-5.09c-1.066-1.622,0.749-1.362,1.454-2.909
				c0.404-0.887,0.249-3.049,0.729-3.636c0.271-0.333,1.808-0.495,2.182-0.727c1.207-0.75,3.231-2.702,5.09-3.636
				c0.506-5.596-0.727-9.453-0.727-14.543c1.586,0.132,2.312-0.595,2.181-2.182c6.281,4.518,14.89-4.161,21.088-5.817
				c1.396,2.106-1.601,4.85-1.454,7.999c6.722-1.486,12.828,1.586,15.271,6.544c4.318,0.536,7.436,0.723,11.634,1.454
				c0.969,0.169,2.853,0.491,3.637,0.727c2.001,0.603,3.774,2.479,5.817,2.909c3.223,0.678,7.083-0.265,10.906,0.727
				c0.31,1.387,2.078,1.316,1.455,3.636C644.985,168.242,646.205,169.205,647.821,169.77z"/>
			<path fill="#FFFFFF" d="M501.492,246.45c1.504-0.935,1.989-5.055,1.989-7.721c0-2.667-2.183-1.697-1.454-2.909
				c0.727-1.212-1.211-4.121-0.242-4.605c0.969-0.484,0.969-0.484,0.969-0.484s82.168-1.212,90.41-3.151
				c0,0-0.242,2.909,1.575,3.635c3.33-0.359,0.077,3.166,0,5.09c-0.132,3.335,2.353,6.042,2.908,9.453
				c2.481,0.184,3.493,1.838,6.545,1.454c0.936,1.714-0.097,1.353,0.727,3.636c0.44,1.104,3.675,1.788,4.363,3.636
				c0.116,0.312-1.077,1.083-0.728,1.455c0.405,0.431,1.712,0.368,2.182,0.727c0.486,0.373,0.915,1.016,1.455,1.454
				c3.227,2.625,3.721,4.588,0.727,9.453c-1.442,0.98,0.229,5.076-2.182,5.09c-1.282,2.212-2.251-1.985-2.908,0
				c1.795,2.794-5.127,3.092-7.999,3.636c0.42,1.943-2.15,4.543,0,5.817c0.678,1.746,2.923,1.925,2.182,5.09
				c0.772,2.711-2.727,1.151-2.182,3.635c0.526,2.222-0.743,2.65-0.729,4.363c-1.304-0.093-1.532,0.89-2.424,1.211
				c0,0-2.544,1.939-2.302,4.605c0.239,2.641-4.525-4.612-6.908-5.09c-0.552-0.111-6.322,1.276-7.999,1.454
				c-18.486,1.96-43.256,2.092-62.534,2.181c0.67-1.49-1.836-2.126-2.182-3.635c-0.213-0.931,0.814-3.143,0.728-4.363
				c-0.138-1.881-1.103-4.616-1.454-7.271c-0.072-0.54,0.769-0.756,0.728-1.454c0.001,0.023-0.661-0.991-0.728-1.455
				c-0.403-2.875,0.051-2.193-1.454-3.636c-1.118-1.071,0.237-1.201-0.729-2.181c0.383,0.389-1.764,0.54-1.454-0.727
				c0.692-9.175-5.413-11.555-5.091-20.36c-1.846-1.324-4.111-4.497-1.453-4.363c-1.295-0.634-2.847,0.182-2.909-2.181
				c-0.033-1.304,0.557-1.489,0.729-0.727"/>
			<path fill="#FFFFFF" d="M575.106,147.228c-0.873-0.955-0.283-1.144,0-2.182c-2.914,0.936,0.198,1.504,0,3.636
				c-2.053,0.131-0.907,3.456-3.637,2.909c-0.471,5.471,0.74,11.794,0,15.27c-2.488,1.643-5.464,1.934-7.271,4.363
				c-0.376,0.506-0.063,2.452-0.729,3.636c-0.35,0.624-1.905,0.699-1.454,2.182c0.264,2.646,3.142,2.675,4.362,4.363
				c0.38,2.114-1.144,2.941-1.454,5.09c-0.444,3.084,0.873,6.238,0.729,8.726c-0.066,1.128-1.654,1.623-1.454,2.181
				c0.338,0.945,1.217,2.576,0,2.182c0.253,1.231,1.014-0.487,2.181,0c0.188,0.078-0.157,1.296,0,1.454
				c0.224,0.223,1.267-0.244,1.455,0c0.402,0.521,0.176,2.282,0,2.182c0.191,0.11,1.042-0.728,1.454-0.728
				c0.809,0,0.424,0.792,0,0.728c1.765,0.269,1.535-0.139,3.636,0c1.022,2.537-0.491,1.119,1.454,2.182
				c0.882,0.481,3.28,1.925,5.09,2.181c1.028,2.608,3.146,4.126,4.363,6.544c1.466,0.913,4.055,0.768,5.09,1.454
				c3.482,2.311,3.164,6.97,4.363,10.908c-28.641,2.143-58.521,3.046-89.439,2.909c-2.102-11.387,3.435-36.831-1.455-44.356
				c-0.118-0.185-1.418-0.601-1.453-0.728c-0.092-0.317,1.063-1.078,0.728-1.454c0.015,0.016-2.117,1.15-2.908,0.727
				c-0.562-0.3,0.009-4.046-2.182-3.635c0.636-1.071,1.406-0.915,2.909-2.909c0.215-0.285,1.396-1.308,1.454-1.455
				c0.171-0.426-0.312-1.87,0-2.182c-0.005,0.005,1.938,0.958,2.182,0c0.173-0.682-1.218,0.192-1.454-0.727
				c-0.676-2.632,0.135-6.483-0.728-10.181c-0.532-2.285-2.542-3.401-2.908-7.271c-0.309-3.235-0.53-6.576-0.729-9.453
				c-0.076-1.102,0.729-2.9,0.729-2.909c-0.136-1.467-1.271-3.118-1.455-4.363c-0.558-3.769-0.178-7.342,0-10.18
				c-0.729-1.001-1.199,0.31-2.182-1.455c-0.449-5.09-2.875-9.851-2.183-17.452c0.277-3.036,0.25-6.23-1.454-9.453
				c9.05-2.044,25.971,0.535,32.723-1.455c1.391-1.054-0.055-4.489,0-7.999c1.212,0,2.424,0,3.636,0c0.777-0.68,0.044,3.231,0,2.909
				c0.118,0.866,0.837,0.342,0.728,0c0.685,2.129,1.73,4.362,2.182,6.544c0.193,0.938,0.46,4.427,0.728,3.636
				c-0.974,2.884-1.851-0.882-3.636,0.728c0.585,0.597,1.292,0.594,2.182,0.727c-0.141-0.021,0.337,1.215,0.728,0.727
				c1.608-2.011,2.228,0.24,4.363,0.728c0.38,0.087,1.313-0.788,2.182-0.728c-0.199-0.014,5.637,1.106,6.544,1.455
				c0.296,0.114,1.241-0.214,1.454,0c0.779,0.778-0.048,2.016,1.455,2.181c1.086,0.12,4.649-0.101,4.361,0
				c2.17-0.76,1.27-2.649,3.638-2.908c1.871-0.204,4.645,0.031,6.543,0.727c0.455,0.167,2.809,1.371,2.909,1.454
				c0.824,0.683-0.288,3.895,2.182,2.182c0.28,2.628,2.345,3.472,3.636,5.09c2.36-0.063,0.513-4.335,3.636-3.635
				c1.289,0.213,0.918,2.141,2.183,2.909c1.06,0.644,4.667-0.424,3.635,2.908c2.615,1.348,7.318-0.069,8.728,0.727
				c-0.098-1.391,2.438-2.972,4.362-4.362c2.729-0.548,1.584,2.777,3.636,2.908c3.263-0.81,6.229-1.138,9.452-0.728
				c1.586,0.202,3.846,3.232,6.545,1.455c-0.331,1.94-2.829,3.629-4.362,2.182c-1.643,0.407,0.883,1.134-0.728,2.182
				c-3.833,1.256-8.329,1.852-10.18,5.09c-0.943,0.555-1.556-1.143-2.182-0.728c-0.068,0.046,0.81,1.138,0.727,1.455
				c-0.021,0.088-2.386,1.624-2.908,2.182c-1.037,1.106-1.66,3.157-3.636,2.909c0.754,2.736-1.733,2.853-2.909,4.363
				c-0.241,0.31-0.428,1.942-0.728,2.181c-0.863,0.689-1.903-0.275-2.182,0c-0.195,0.195,0.946,1.015,0.728,1.455
				c-0.062,0.122-2.898,1.468-3.636,2.181C578.479,144.549,577.681,147.009,575.106,147.228z"/>
			<path fill="#FFFFFF" d="M634.733,401.731c1.191,6.648-9.267,5.108-12.362,5.09c0.207-3.914,4.361-3.879,5.09-7.271
				c-1.01-1.109-1.22-3.728-2.182-4.363c-1.99-1.312-19.476,1.115-26.179,1.454c-18.828,0.953-43.709,1.659-59.626,2.183
				c-0.266-21.307-0.465-42.68-1.453-63.263c-1.096-1.327-3.139-1.71-4.362-2.907c0.245-4.367-4.201-4.042-4.363-7.999
				c1.104-1.32,1.826-3.022,3.636-3.637c0.703-5.229-3.323-3.82-5.816-4.362c0.203-1.816-2.052-1.168-2.909-2.182
				c-1.03-1.219-1.314-3.622-2.182-5.09c-1.691-2.87-5.109-5.181-5.089-8.726c13.743,0.019,30.172,0.213,45.082-0.727
				c2.936-0.185,8.308-0.419,13.09-0.727c4.627-0.298,9.352-2.15,12.36-1.455c2.978,0.689,4.255,4.014,6.545,5.09
				c-1.527,5.114-0.255,11.279,2.183,15.271c0.828,1.356,2.266,2.312,3.635,3.636c0.532,0.515,1.731,0.896,2.182,1.455
				c0.489,0.606,0.146,1.697,0.728,2.182c0.686,0.57,2.911,0.917,3.637,1.454c1.157,0.855,0.754,2.077,2.183,2.181
				c1.011,3.11,0.859,7.38,2.907,9.453c2.619,0.438,2.145-2.22,4.362-2.182c1.57,0.854,3.34,1.509,5.09,2.182
				c-0.437,6.402-6.073,11.791-2.181,16.725c1.164,1.476,2.121,2.526,3.636,3.636c0.959,0.702,3.669,0.635,3.636,2.909
				c2.607-0.882,4.315,1.562,5.817,2.909c0.454,0.406,1.854,0.979,2.182,1.453c0.445,0.647,0.183,2.312,0.729,3.637
				c0.354,0.863,2.547,2.054,1.453,4.362c-0.015,0.032-1.415,0.875-1.453,0.728c0.741,2.824,3.467,4.055,3.635,6.544
				c1.85,1.299,3.546-0.807,5.09,1.455c-0.908,0.779,0.18,1.797,0,2.908c-0.169,1.06-1.067,1.467-1.454,2.908
				c-0.206,0.769,1.332,1.311,0,2.909c0.266-0.317-1.795-0.217-2.182,0c-1.517,0.849-2.287,3.808-2.908,0
				c-1.847,1.68-1.045,3.242-0.728,5.817c-2.533,0.359-0.945,1.249-1.453,2.181C634.37,400.213,633.493,401.482,634.733,401.731"/>
			<path fill="#FFFFFF" d="M490.029,99.963c0.36,1.992,0.509,3.431,0.728,5.09c0.312,2.357-0.17,4.289,0,8.726
				c0.025,0.648,0.901,1.11,0.728,2.181c-0.294,1.812,0.436,6.166,1.455,9.453c0.807,2.605,2.463,4.696,2.908,7.272
				c0.233,1.356-0.728,2.62-0.728,2.908c0.004,1.164,1.294,5.369,1.455,7.999c0.094,1.547-0.77,1.924-0.728,2.909
				c0.019,0.417,0.333,5.591,0.728,7.999c0.199,1.222,0.246,3.049,0.727,4.363c0.317,0.866,1.926,1.998,2.183,2.909
				c0.823,2.935,0.318,5.841,1.453,8.726c-41.62,1.869-84.301-1.503-124.342-3.636c2.262-23.673,2.495-49.375,5.817-71.988
				C416.487,98.366,454.865,97.559,490.029,99.963z"/>
			<path fill="#FFFFFF" d="M501.059,252.544c-3.878-4.605-9.833-5.438-12.482-7.877c-2.16,0.924-5.245,0.25-7.998,0.727
				c-2.062,0.356-3.016,0.589-4.363,1.454c-1.239-0.654-3.434-1.152-5.09-2.181c-1.446-0.898-2.469-2.624-3.636-2.909
				c-3.076-0.751-7.003,0.142-10.181,0c-26.857-1.195-60.352-2.047-85.804-4.363c0.5-24.466,3.688-46.244,5.09-69.807
				c39.533,3.126,80.739,4.58,123.615,4.363c0.398,4.518-3.842,4.397-4.362,7.999c1.197,1.226,1.58,3.268,2.909,4.362
				c0.933,1.25,3.461,0.901,3.635,2.909c0.447,13.368-0.918,28.55,0.729,40.72c0.308,3.606-2.179,0.411-2.909,2.182
				c-0.421,1.676,1.455,2.154,1.455,3.635c0,1.28-0.938,1.502,0,3.636c0.487,1.11,0.833,4.802,0,7.271
				c-0.386,1.143-2.456,3.389-0.848,4.969L501.059,252.544z"/>
			<path fill="#FFFFFF" d="M522.751,313.746c-39.68,2.111-81.094-0.347-119.979-1.454c-0.556-8.797,1.124-15.359,0.728-23.996
				c-11.175-1.672-24.517-1.177-35.63-2.909c1.462-15.505,1.672-32.262,3.636-47.265c21.382,2.755,49.962,2.442,73.442,4.363
				c6.819,0.558,14.573-1.164,20.359,0c3.013,0.605,5.589,2.997,8.727,4.363c0.662,0.289,1.29,0.665,1.455,1.455
				c2.126,0.668,2.183-1.793,3.636-2.182c1.905-0.509,6.514,0.996,8.726-0.727c1.975,0.241,1.119,2.013,2.909,2.909
				c1.498,0.749,3.846,0,5.09,0.727c1.354,0.792,2.498,2.765,3.637,3.636c1.449,1.11,2.48,1.997,4.362,2.182
				c-1.476,1.729,1.387,3.918,1.453,5.09c0.081,1.364-0.666,2.876,1.455,5.09c0.61,0.636,0.771,1.897,1.454,3.636
				c0.753,1.919,2.095,3.582,1.454,7.999c0.049,2.133,2.223,2.142,2.909,3.635c0.689,1.052-0.146,2.929,0,3.636
				c0.359,1.743,1.281,1.627,1.454,2.909c0.213,1.588-0.771,1.888-0.728,2.908c0.006,0.164,0.697,1.31,0.728,2.182
				c0.039,1.146,0.099,0.935,0,2.182c-0.283,3.582,1.346,7.184,2.908,10.18c0.187,0.356,0.374,1.593,0.729,2.182
				C518.583,308.011,522.562,310.314,522.751,313.746z"/>
			<path fill="#FFFFFF" d="M530.021,321.017c-0.364,0.614-1.044,2.241-1.453,3.637c-0.378,1.284,0.326,3.413-1.454,3.635
				c0.632,2.147,1.089-1.688,2.908-0.728c-0.133,1.587,0.596,2.313,2.182,2.183c-0.797,4.917,3.958,4.283,5.091,7.271
				c0.086,16.639,1.199,32.249,0.728,49.446c-46.245,2.058-93.542-0.274-138.887-1.454c1.022-24.186,1.935-48.481,3.637-71.988
				c23.354,2.324,49.429,0.886,74.169,2.909c7.695,0.629,16.574,0.326,23.996,0c8.578-0.377,16.523-1.962,21.813-0.727
				c2.711,0.632,2.431,0.761,4.363,2.908c2.103,2.1,3.314-2.456,3.636,0.727c1.236-0.267,1.372,0.567,1.454,1.455
				C528.52,319.256,530.56,319.964,530.021,321.017z"/>
		</g>
	</g>
</g>
<g id="southeast" ng-click = "highlightMap(1)">
	<g id="Louisiana">
		<g>
			<path fill="#FFFFFF" d="M816.521,303.565c2.893-0.743,3.593-3.678,5.09-5.817c2.257,0.052,4.514-0.975,5.091-4.362
				c1.384,0.312,1.826,1.566,3.635,1.454c2.068-0.125,2.442-2.619,3.636-3.636c1.038-0.884,3.247,0.022,2.909-2.182
				c1.363,1.277,4.41,0.492,5.817,1.454c0.236,0.162-0.21,1.245,0,1.455c0.198,0.199,1.312-0.229,1.454,0
				c0.444,0.72,0.435,1.711,0.728,2.182c0.887,1.428,1.336,2.254,0.728,5.09c-4.139-0.167-6.91-4.958-10.182-3.636
				c-1.833,2.386-0.818,5.564-1.454,7.999c-0.101,0.387-1.372,1.182-1.453,1.455c-0.171,0.564,0.301,1.684,0,2.182
				c-0.756,1.246-4.556,0.353-3.637,4.363c-7.09-1.031-3.542,8.576-7.271,10.906c-3.209,0.404-3.831-4.363-6.545-2.182
				c-1.642,1.62-0.264,3.285-0.728,5.09c-0.413,1.606-2.339,3.518-2.909,5.09c-0.389,1.074,0.364,2.552,0,3.637
				c-0.92,2.741-3.68,4.322-4.361,7.999c-0.364,1.96,1.002,4.38,0,6.544c-4.022-0.145-4.619,3.138-8.727,2.908
				c-0.977,0.479-1.354,1.555-1.455,2.909c-2.737-0.278-5.5,3.176-7.998,0.728c-1.646,1.021-2.39,2.942-4.362,3.636
				c-3.451-1.153-6.902-2.309-7.271-6.544c-5.244-0.034-7.038-3.107-10.18-7.271c-1.622-2.148-4.095-4.86-4.363-5.816
				c-0.495-1.768,1.245-4.223,0-5.817c4.979,1.102,2.887-4.87,6.545-5.09c-1.6-2.699-0.61-8.097,0.728-10.18
				c2.278-0.34,2.051,1.828,2.908,2.909c3.422-2.267,0.857-6.37,2.182-9.453c0.721-1.68,4.599-1.41,2.909-4.363
				c1.15,0.06,2.772-0.35,2.908,0.727c1.781-0.872,2.861-2.657,4.362-4.363c1.026-1.167,3.06-2.807,3.636-4.363
				c0.375-1.013,0.343-2.919,0.484-3.999c0.209-1.579-0.22-5.114,0.243-6.787c2.544-9.21-0.606-12.604,0.604-13.573
				c0.971,4.363,2.844,18.002,3.758,21.451c6.705-0.566,12.134-2.409,18.904-2.908c0.947,3.901,1.419,8.276,2.183,12.361
				c0.647-0.322,1.301-0.638,1.455-1.454L816.521,303.565L816.521,303.565z"/>
			<path fill="#FFFFFF" d="M643.458,391.551c2.522-6.641-3.418-12.933,2.909-15.271c3.529,0.327,6.557,4.289,10.18,2.182
				c0.652-3.561-2.4-3.416-1.454-7.271c2.521-0.389,3.871-1.945,6.544-2.182c1.424-2.584-0.948-2.643-0.727-5.816
				c0.79-1.434,5.255-2.931,3.636-4.363c1.318-0.831,3.524-0.672,4.363,0.727c2.749-0.936,0.995-1.863,3.636-2.908
				c2.775,0.375,5.449,0.853,6.544,2.908c2.11-1.041,2.067-4.234,4.362-5.09c1.842,0.825,4.123,1.209,5.091,2.908
				c1.786-1.849,1.659-5.611,3.636-7.271c2.246-2.258,1.229,2.463,4.362,1.455c0.86,1.958,3.791-0.003,5.091,0
				c0.434-1.507-0.898-4.776,0.728-5.09c-0.11-2.292,2.947-1.414,3.636-2.908c-0.547-3.94,2.51-4.275,3.637-6.545
				c0.297-1.751-1.329-1.581-0.728-3.635c1.132-2.005,3.352,0.776,3.636,0.728c2.542-0.438,3.027-4.075,7.271-3.637
				c0.164-3.071-1.12-4.695-1.454-7.271c0.788-1.521,2.336,0.083,3.637,0c1.521-0.098,2.281-1.176,3.637-0.728
				c3.097,1.026,3.735,4.777,5.816,6.544c4.053-0.417,6.938,0.333,8.726,2.183c2.32,0.624,2.249-1.146,3.637-1.454
				c3.114-0.163,2.966,2.419,5.817,0.727c2.351-0.314,2.885-2.446,4.362-3.636c1.9,2.461,4.436,4.291,7.271,5.817
				c0.008,2.264,1.72,4.737,0,6.544c4.207,4.519,6.622,10.829,12.361,13.815c1.3-0.205,1.491,0.688,0.728,0.729
				c-2.146,5.611-8.724,7.123-11.635,13.088c-1.16,2.378-1.311,2.862-3.636,5.09c-0.896,0.858-1.981,2.766-2.182,2.908
				c-0.513,0.367-2.559,0.168-3.637,0.727c-0.315,0.165-0.464,1.336-0.728,1.455c-0.396,0.178-1.072-0.202-1.453,0
				c-1.488,0.788-3.13,2.553-4.363,2.909c-2.01,0.58-7.172,0.2-10.907,0.727c-1.548,0.219-6.396,1.281-8.726,1.455
				c-3.046,0.227-5.808-0.299-8.727,0c-3.93,0.402-8.946,1.825-14.544,2.182c-2.863,0.183-5.786-0.21-8.726,0
				c-10.923,0.779-21.912,4.192-31.268,2.181c-0.583,2.522,1.084,2.795,0.728,5.09c-7.322,0.192-13.477,1.551-21.088,1.455"/>
			<path fill="#FFFFFF" d="M626.007,419.91c-0.384,3.05,1.271,4.062,1.454,6.544c-0.558,2.35-2.012,3.805-4.363,4.363
				c0.64,1.286,2.307,2.123,0.729,3.636c-1.445,1.211-0.925-0.065-2.909,0c0.204,2.122-0.174,2.5-1.454,1.454
				c-0.636,3.425-0.599,7.153,0,8.726c-0.785,2.365-4.357,1.943-4.361,5.09c-1.445,1.211-0.926-0.065-2.908,0
				c0.387,2.037,1.066,3.78,1.454,5.817c-2.573-0.392-3.188,1.177-4.363,2.182c0.31,1.419,2.078-1.188,1.454,2.183
				c-0.81,1.371-1.021,3.341-2.908,3.636c-0.464,1.586,2.061,2.312-0.729,2.181c-0.713,1.272,1.44,1.848,1.455,2.183
				c0.017,0.381-1.389,1.661-1.455,1.455c0.944,2.966,2.536,1.559,2.909,3.636c0.146,0.815,0.725,2.14,0.728,2.182
				c0.14,1.66-1.249,0.987-1.454,2.183c-0.092,0.533,1.278,1.726,0.728,2.907c-9.903-0.417-19.759,1.695-30.541,1.454
				c-1.492-0.032-3.563-0.794-5.09-0.727c-1.514,0.064-2.783,1.229-4.362,1.454c-5.614,0.797-11.429-0.781-16.725,0
				c0-4.121,0-8.242,0-12.362c-0.845,0.118-1.294-0.16-1.454-0.727c-1.297-0.829-2.623,0.003-3.637,0
				c-0.062-0.001,0.082-1.374,0-1.455c-0.838-0.839-0.975,2.237-2.908,1.455c-2.454-15.188-0.042-32.439-1.454-47.992
				c-0.704-7.763-3.639-14.87-3.637-21.815c23.847-0.151,49.454-1.306,73.442-2.909c4.476-0.299,11.259-3.107,12.361,2.909
				c0.053,2.18-2.139,3.69-3.636,2.183c1.962,1.789-2.689,4.027-0.729,5.816c3.927,2.72,6.398-1.021,12.362,0
				c0.831,1.462-1.304,1.078-1.454,1.455c-0.255,0.634,0.598,1.665,0.728,1.455c-1.029,1.674-1.822,1.552-3.637,2.908
				c1.143,3.333-0.26,3.39-2.182,5.09L626.007,419.91z"/>
			<path fill="#FFFFFF" d="M756.53,377.008c-0.97,0.33-2.018,0.599-2.909,1.091l2.545-0.363c3.081,0.45,5.023-0.502,6.545-0.728
				c7.885-1.166,18.977-2.138,23.271-4.363c-0.277,0.145-0.923-0.646,0-0.727c-0.047,0.003,1.272,1.367,2.182,1.454
				c2.749,0.262,7.485-0.365,10.18-0.728c10.886-1.464,20.834-4.486,31.268-5.816c3.164-0.403,4.098-1.136,5.816-1.454
				c5.137-0.95,8.277-0.673,12.361-1.454c9.035-1.729,18.674-4.312,26.178-5.818c2.217-0.443,4.92-0.155,6.545-0.727
				c0.468-0.164,0.646-1.273,1.454-1.454c-0.111,0.025,0.783,0.785,1.454,0.728c1.259-0.108,2.253-1.107,3.636-1.455
				c2.237-0.561,2.979-0.04,4.363-1.454c-0.227,0.23-0.957-0.281-0.729-0.729c0.287-0.557,1.223,0.185,1.454-0.727
				c0.146-0.571-0.647-2.5-0.727-2.909c0.09,0.476-0.705,0.9-0.729,0.727c-0.186-1.444,1.449-1.693,0-2.908
				c-2.652-0.646-3.872,1.283-5.09,0c-0.13,3.003,2.456,2.161,2.908,2.908c-1.543,1.458-3.239-1.031-5.09-1.453
				c-1.145,0.553-1.087,2.307-2.908,2.182c-0.604-2.334-0.62-1.508,0.729-2.909c-2.248-1.773-3.901,1.379-5.092-1.455
				c0.729,0.003,0.865-0.589,1.454-0.727c-1.757,1.833,1.137,1.287,1.455,0.727c-1.064-0.632-2.306-1.088-2.182-2.908
				c-1.984-0.049-4.358,0.066-5.817,0c0.667,0.03-1.938-0.283-1.455,0c-0.139-0.083,0.142-1.423,0-1.454
				c-1.528-0.348-3.202,0.891-5.089-0.728c2.203-1.047,6.218-1.747,7.271,0c0.113-0.855-0.124-2.063,0.728-2.182
				c0.752,1.288,2.183,3.029,4.363,2.667l2.545,1.696c1.538,1.334,2.475,2.506,4.727,1.454c1.13-2.922-2.061-3.393-3.636-3.271
				l-2.061-1.212l-1.575-0.606c-1.364-2.271-4.453-2.817-5.817-5.09c1.483,1.46,1.426-0.321,2.908-0.727
				c0.71,2.838,2.664,2.16,3.636,2.907c-0.377-0.291-0.793,0.344-0.727,0.728c0.296,1.729,2.708-1.262,2.908,1.455
				c1.461-1.482-0.321-1.426-0.728-2.909c0.729,0.003,0.865-0.589,1.454-0.728l-0.728-1.453c-0.04-0.931-0.934-1.008-0.728-2.183
				c-0.97,0-1.938,0-2.909,0c-0.302-2.525-2.216-2.012-3.636-2.909c-1.83-1.155-3.854-4.216-5.091-5.09
				c0.338,0.239-1.342,0.771,0-0.727c-3.125-0.344-0.93,1.957-2.18,2.182c-1.461-1.482,0.32-1.426,0.727-2.909
				c-1.295-0.401-3.02-0.374-3.636-1.455c0.955-0.933,2.681-0.933,3.636,0l0.848-0.363h0.605c0.226,1.715,2.525,1.353,2.182,3.636
				c2.493-1.699,1.702,0.947,2.909,0.727c2.271-0.415,1.017,1.646,4.363,3.637c-1.031-0.613,2.573,0.598,2.908,0.727
				c0.312-2.979-0.675-4.659-1.454-6.544c-4.396,1.088-4.724-6.479-10.302-3.514l-1.333,0.483c-0.226-1.714-2.524-0.868-2.182-3.15
				c-2.716,0.939-5.681,3.56-7.271,0c1.382-1.77,0.496-5.806,1.455-7.999c1.481,1.461,1.425-0.321,2.907-0.728
				c0.018-1.713-1.252-2.141-0.727-4.363c-2.157-1.857-3.588,1.203-4.363,0c0.815-0.153,1.132-0.807,1.454-1.454
				c-2.706-0.434-6.705-0.122-7.271-4.363c-0.283,1.116-0.872,0.107,0-0.727c-3.693,1.273-0.015-0.484-2.909-0.727
				c-1.442,1.223-1.159,4.173-2.907,5.09c-0.021-1.865-1.911-0.902-2.909-1.454c0.286,0.158,1.118-0.461,0.729-0.727
				c-0.834-0.567-4.116-1.275-6.545-2.909c-1.268,1.916,0.097,4.697-0.729,7.271c-0.051,0.161-1.322,0.51-1.454,0.728
				c-0.513,0.847-0.445,3.269-0.728,3.635c-0.606,0.795-2.308,0.692-2.908,1.455c-1.423,1.804-0.834,5.115-4.362,3.636
				c0.091,2.013,1.388,2.497-0.728,1.454c0.402,4.282-0.827,6.931-2.908,8.727c-3.591,0.682-4.933-0.887-6.545-2.183
				c-0.231,1.687,0.118,2.792,0.728,3.637c-3.521,0.044-2.87,7.877-2.908,7.999c-0.053,0.162-1.369-0.162-1.454,0
				c-0.38,0.726,0.204,2.104,0,2.907c-0.306,1.208-1.211,2.266-1.454,2.909c0.609-1.609-1.376,1.272-1.455,1.454
				c-0.332,0.775-0.744,1.126-0.728,2.182c0.045,2.732,1.324,2.146,1.454,3.637c0.004,0.042-1.4-0.074-1.454,0
				c-0.632,0.895,0.642,2.614,1.454,3.635c-1.648-1.729-3.435,0.697-5.09,1.455c-0.601,0.273-1.582-0.278-2.181,0
				c-1.413,0.654-1.999,3.612-4.363,2.181c-0.979,3.361-2.98,3.126-4.363,3.636c-2.04,0.751-3.754,0.956-5.815,0
				c-0.165,2.019-2.308,2.058-2.909,3.637c-0.786-1.463-2.382-0.656-3.636-0.728c-2.052-0.115-0.183-0.867-0.729-1.455
				c0.153,0.166-4.253-0.949-4.362-3.635c-3.195-0.289-1.897,3.918-4.362,4.363l-1.455,1.454c-2.468,0.924-3.389,3.396-5.816,4.362
				c-0.03,1,0.343,1.597,0.729,2.182c-4.269,0.539-2.789,5.708-5.091,6.544c-0.002-0.73,0.589-0.865,0.728-1.454
				c-2.792,0.359-2.562,3.739-5.091,4.362L756.53,377.008l-0.364-0.728"/>
			<path fill="#FFFFFF" d="M635.46,401.004c2.179,0.139,0.607-2.79,0.728-2.909c0.145-0.146,1.394,0.169,1.453,0
				c0.392-1.088-1.279-2.454,0.729-3.636c9.447-0.248,18.101-1.29,26.905-2.181c-0.398-1.058,0.85-3.76-0.729-3.637
				c2.974-0.185,7.841-0.948,12.361-1.453c9.321-1.042,19.159-1.505,29.086-2.183c5.264-0.358,10.599-1.779,15.997-2.181
				c6.606-0.493,13.701-0.621,20.359-1.455c3.638-0.456,7.396-1.81,10.907-2.181c10.545-1.119,22.019-2.082,31.269-5.091
				c1.619,0.743-0.951,3.344,0,5.817c-2.977,0.66-3.705,3.566-4.362,6.544c-4.258-1.91-7.11,2.124-8.728,5.09
				c-1.985-0.37-1.095-2.097-2.181-2.182c-2.096-0.163-2.389,4.616-4.363,2.909c-0.807,1.375-0.927,3.435-1.453,5.09
				c-3.499-1.104-6.297,4.214-8.728,6.544c-6.282-0.223-9.779,2.339-10.18,7.999c-1.521,0.418-2.075,1.803-4.363,1.454
				c0,2.182,0,4.362,0,6.544c-19.234,1.64-38.3,4.446-57.443,5.816c-13.604,0.976-26.818,3.459-40.722,4.363
				c-5.189,0.337-10.571,0.424-15.997,0.728c0.203-1.494,1.942-1.451,2.909-2.182c-1.165-3.433-1.235-5.255,0.121-7.999
				c0,0-1.403-1.076-0.97-1.454c1.938-1.695,2.256-0.86,3.028-2.182c0.857-1.465-0.598-2.549,0-3.636
				c0.135-0.242,1.92-0.484,2.183-0.729c0.607-0.565,0.556-1.971,1.455-2.908c1.533-1.602-0.589-1.33-0.729-2.908
				c-0.2-2.259,2.817-2.887,2.182-5.09"/>
			<path fill="#FFFFFF" d="M892.871,396.641c0.093,1.306-0.891,1.534-0.729,2.909c-1.751,0.297-1.58-1.328-3.636-0.727
				c-1.663,2.215-4.24,3.516-7.998,3.636c-1.329,1.095-1.711,3.137-2.909,4.363c-0.374-0.826-0.512-2.433-2.907-2.908
				c3.156,6.688-6.084,8.028-5.817,15.997c-0.954-0.257-1.145-1.28-2.181-1.454c0.028,2.393,1.228,3.62,0.726,6.544
				c-3.569,1.036-7.795,1.415-10.906,2.909c-1.232-0.522-1.598-1.998-2.909-2.909c-0.862-0.6-2.718-0.798-3.636-1.454
				c-0.959-0.686-1.873-2.161-2.908-2.909c-0.551-0.397-1.567-0.267-2.181-0.727c-0.354-0.267-0.392-1.218-0.728-1.454
				c-0.697-0.49-1.551-0.244-2.183-0.729c-1.046-0.799-2.792-2.521-4.363-3.636c-2.255-1.6-5.166-4.114-6.545-4.362
				c-1.441-0.26-6.425,0.968-9.452,1.454c-3.603,0.578-7.335,1.576-11.635,2.182c-0.188-2.722-1.685-4.132-2.908-5.817
				c-7.479-1.792-13.421-0.09-20.359,0.729c-3.064,0.36-6.199-0.046-8.727,0.727c-1.122,0.343-2.696,1.625-3.636,2.182
				c-0.771,0.458-1.576,0.163-2.182,0.728c-0.927,0.863-1.57,1.334-3.636,2.181c-1.059,0.435-0.778,0.08-1.454,0.728
				c-2.896,2.772-12.673,2.625-18.906,3.636c-2.284,0.37-4.793,0.921-7.271,1.454c0-1.939,0-3.878,0-5.817
				c2.287,0.35,2.844-1.036,4.363-1.455c-0.528-2.224,1.254-2.138,0.729-4.361c1.896-2.947,6.015-2.321,9.451-4.363
				c1.513-0.898,2.602-2.926,4.363-4.363c0.916-0.747,1.297-1.594,3.636-1.454c1.391-2.73,3.327-4.914,5.091-7.271
				c1.444,0.009,0.925,1.983,2.907,1.455c2.506-1.353,3.942-6.904,7.999-4.363c2.617-1.746,2.015-6.712,5.817-7.271
				c0.03-2.394,1.229-3.619,0.729-6.544c8.273,0.013,14.824-0.821,23.268-2.181c9.533-1.535,21.202-3.583,32.723-5.816
				c5.217-1.013,12.633-2.976,19.633-4.363c4.506-0.894,9.069-1.296,13.09-2.183c3.901-0.858,6.246-2.016,10.906-2.908
				c5.776-1.106,7.599-0.259,10.181,5.09c-0.955-0.257-1.144-1.281-2.183-1.455c-0.03,1.244,0.541,1.883,1.455,2.182
				c-1.781,1.945-3.294-2.963-5.816-0.727c0.229,1.71,3.445,0.431,2.907,2.909c-1.9,0.462-2.229,0.162-4.362,1.453
				c-0.298,0.903-0.829,2.114-2.182,3.637c-0.844-0.61-1.948-0.959-3.636-0.728c-0.76-1.664-0.462-4.387-1.454-5.816
				c-2.789,3.549,1.667,6.062,1.454,9.453c2.188,0.345,3.169-0.312,4.362-1.455c1.533-1.469,0.699,0.723,2.909,0
				c1.622-0.531,2.729-1.729,5.09-2.182c0.557,1.857,1.071,3.344-0.729,4.363c2.166,1.045,0.046,1.832,1.455,3.636
				c3.427-0.412,1.29-5.266,2.183-6.544c1.031,0.062,2.059,0.12,2.182-0.727c1.972,0.936,2.203,3.614,2.182,6.544
				c-0.728,0-1.455,0-2.182,0c-0.499,1.024-1.523,5.024-2.909,7.271c-2.442-0.224-6.303,0.972-5.816-2.182
				c-0.853,0.118-0.613,1.326-0.729,2.182c-2.681-0.137-1.416-2.373-2.182-2.908c-2.532-0.353-0.813,3.548-2.908,3.636
				c-3.116,0.502-5.52-2.116-7.271-0.728c2.339,2.751,7.755,2.427,11.636,3.637c0.501,1.955-1.503,1.404-2.183,2.181
				c-0.897,2.354,2.354,0.556,1.454,2.909c-1.282,0.656-2.252,1.626-2.908,2.908c-1.952-0.957-3.864-1.952-5.816-2.908
				c-1.188,1.26,1.487,3.801,3.636,4.361c2.755,0.721,6.016-2.303,7.999-0.727c-1.083-2.225,0.726-2.32,0.727-0.727"/>
			<path fill="#FFFFFF" d="M820.156,470.083c-0.647-0.321-1.301-0.638-1.454-1.454c-1.536,2.057,0.86,6.382,2.908,7.271
				c-0.302,1.146-0.667-0.191-1.454,0c-0.735,0.178-1.061,2.197-1.454,0.728c-1.875,0.174,0.998,1.251,0,2.909
				c-3.016,0.833-2.833-1.53-5.091-1.455c1.208-5.344-5.6-7.049-2.183-10.181c-4.278,3.323-0.561-0.85-4.361,0.728
				c-1.141-1.164-0.331-2.407-0.728-3.636c-0.473-1.466-1.638-1.729-2.182-2.909c-0.281-0.61,0.562-1.68,0.727-1.454
				c-0.642-0.886-2.488-1.81-3.636-2.908c-0.785-0.752-1.896-0.08-2.908-0.728c-1.146-0.73-0.643-3.467-2.909-2.182
				c1.366-1.359-1.33-2.285-1.453-2.908c-0.09-0.453,1.029-0.897,0.727-1.454c-0.265-0.489-0.983,0.658-0.727,0.727
				c-0.264-0.069-2.396-4.266-2.183-2.181c-0.062-0.608,0.935-1.331,1.454-1.454c-0.257-1.019-1.279-0.063-1.454,0.727
				c-0.833-1.386-3.127-0.538-4.362-1.453c-0.379-0.28-0.38-1.81-0.728-2.183c-0.533-0.573-2.521-2.699-3.636-3.636
				c-0.421-0.354-1.691,0.271-2.183,0c-2.269-1.251-2.774-4.315-5.09-5.09c0.753-2.326,0.225,0.013-1.454-2.182
				c-0.097-0.127-1.478-1.563-1.455-1.454c-0.237-1.172,0.9-1.291,0.729-2.182c-0.062-0.312-0.756,0.391-0.729,0.728
				c-0.146-1.708-1.008-1.888,0.729-2.182c-0.257-1.019-1.28-0.062-1.454,0.728c-1.453-2.427-7.363-0.394-7.271-4.363
				c-1.447,1.515-3.105,0.023-3.637-1.454c0.896-2.255,1.602-4.701,4.363-5.09c-1.929-1.917,2.152-1.538,2.182-3.636
				c4.405-0.819,5.729-0.278,5.816-2.908c0.844-0.572,1.297,0.728,1.454,0.727c1.015-0.004,0.181-1.172,0.728-1.454
				c0.084-0.043,2.973,0.948,2.908-1.454c3.866,0.205,8.345-0.924,13.089-1.454c5.231-0.585,11.796-2.146,13.089,1.454
				c0.707-0.021,0.565-0.891,0.729-1.454c2.523,0.867,3.067,3.718,3.635,6.544c1.391-0.397,3.343-1.38,5.091-1.454
				c0.664-0.028,1.548,0.711,1.454,0.727c0.759-0.133,1.72-1.331,2.182-1.455c2.181-0.584,5.506-0.273,8-0.727
				c1.571-0.286,3.732-0.65,5.089-0.728c1.02,0.257,0.063,1.28-0.728,1.454c0.387,1.519,1.441-1.104,2.908-0.727
				c0.021,0.006,0.575,2.065,0.729,2.181c0.437,0.33,1.666-0.21,2.182,0c0.324,0.132,0.969,1.156,1.454,1.455
				c0.979,0.604,1.897,0.7,0.728,2.181c2.517-0.763,1.217-0.731,4.363,1.455c0.705,0.491,2.71,1.27,2.908,1.454
				c0.479,0.452,0.17,1.793,0.727,2.183c1.017,0.708,3.479-0.203,1.454,2.181c0.648-0.565,1.644-0.782,2.909-0.727
				c0.141,2.295,4.989,2.067,2.908,4.362c0.585-0.385,1.181-0.759,2.182-0.728c-0.638,2.538-2.918,2.472-4.363,4.363
				c-0.479,0.627-0.232,0.939-0.727,1.454c-0.867,0.905-1.397,4.104-2.182,5.817c-0.157,0.345-1.038-0.445-0.729-0.728
				c-0.824,0.138-0.402,0.729,0,0.728c-0.885,0.188-2.904,2.771-2.907,1.454c-0.955,0.214,1.271,5.49-2.182,5.09
				c0.614,1.887,3.188-1.397,4.362,0.729c-0.203,1.686-1.941,1.671-2.908,0.727c0.432,1.358,1.413,2.682,0,2.182
				c-0.86-0.304,0.12,1.4,0,2.182c-1.913-0.012-4.831,0.402-2.909-1.454c-3.156,0.954,0.804,2.962-1.454,2.181
				c-0.729-0.252,0.459,2.416,0,2.909c-0.553,1.144-2.308,1.087-2.182,2.909c-2.062,0.123-1.419-2.46-4.363-1.455
				c0.493,1.932,1.393,3.457,2.182,5.09c-1.856-0.783-2.545,3.131-3.636,0.728c-0.825,0.14-0.401,0.729,0,0.729
				c-0.452,2.749-3.038-0.786-2.908,2.908c-3.729,1.396-6.901-1.122-7.999,2.909"/>
			<path fill="#FFFFFF" d="M750.713,522.256c-1.809-0.251-3.931,1.706-7.635,0.91c-0.939-2.568-2.56-5.799-4.363-8.727
				c-0.468-0.76-1.222-1.269-1.454-2.183c-0.511-2.015,0.435-5.507,0-7.999c-0.354-2.039-2.059-3.714-2.182-5.09
				c-0.372-4.134,0.471-8.758,2.909-11.635c-1.287-1.828-1.172-4.574-2.183-6.543c-0.435-0.85-1.654-0.774-2.182-1.454
				c-0.528-0.686-2.296-4.943-2.908-6.545c-2.342-6.125-3.881-14.739-5.816-21.815c-2.783-10.169-5.809-19.274-8.12-27.995
				c15.604-2.334,31.956-2.946,46.658-6.181c-1.054,2.098-1.986,4.314-3.636,5.817c0.442,4.161,5.979,3.229,7.271,6.544
				c2.236-0.51,1.396-0.51,3.635,0c2.131,3.268,4.887,9.147,7.999,11.634c0.62,0.495,1.599,0.246,2.182,0.728
				c1.246,1.029-1.09,1.503,2.183,0.728c-0.32,1.373,2.484,1.387,2.182,2.907c0.002-0.009-1.161,0.188-0.728,0.728
				c-0.025-0.031,1.02-0.489,1.455,0c1.479,1.665,2.658,2.047,5.815,3.636c1.63,5.399,6.062,7.997,10.908,10.18
				c0.336,3.299,2.959,4.312,2.908,7.998c0.584,1.84,2.993,1.855,4.361,2.908c-1.411,1.307,0.432,1.223,0,0.729
				c2.39,2.739,2.456,4.979,3.637,8.726c2.36-0.422,3.384,0.494,5.091,0.729c-0.413,2.774-2.467,4.7-4.363,2.182
				c-0.422,2.359,0.495,3.382,0.728,5.088c-3.776-1.295-2.488,7.512-1.454,8.728c-1.644,0.43-1.846,1.229-2.908,1.453
				c-0.248,0.054-1.538-1.125-2.182,0c0.612,1.568,3.75,0.613,4.361,2.183c-0.088,2.693-1.058,1.83-2.908,1.454
				c1.084,5.841-0.642,7.433,1.454,11.636c-3.311-0.083-6.771-0.014-7.998-2.182c-1.06,1.363-2.395,2.451-3.636,3.636
				c1.1,1.905,2.396,6.345,0.729,8.727c-2.763,0.094-1.51-3.825-3.638-4.362C781.635,520.274,766.262,521.807,750.713,522.256z"/>
			<path fill="#FFFFFF" d="M690.724,537.708c-0.97-0.108-2.193,2.957-2.908,0.727c-1.976-0.52,0.521,3.43-1.454,2.909
				c-2.405-0.505-1.676-4.143-5.09-3.636c0.481-3.875-0.425-6.363-2.909-7.272c-1.502,1.894-1.541,5.246-1.454,8.728
				c-1.696,0-3.395,0-5.09,0c-1.543-5.877-1.387-12.42-2.183-18.905c-0.992-8.09-3.939-15.338-2.908-25.451
				c1.852-18.133,0.506-42.2,1.454-62.534c1.215-2.738-3.383-3.312-1.454-4.363c17.102-0.593,32.74-2.647,48.72-4.363
				c2.754,11.48,7.473,24.079,10.906,36.358c1.165,4.163,1.543,8.563,2.909,12.36c0.689,1.919,1.841,4.836,2.907,6.545
				c0.677,1.082,2.379,1.732,2.909,2.908c0.682,1.509-0.92,4.373,1.454,5.089c-1.375,2.378-1.596,3.869-2.183,7.271
				c-0.737,4.289-0.251,6.494,2.183,10.181c-0.148,2.275,0.49,5.337-0.728,6.545c0.092,3.06,2.815,3.484,2.908,6.545
				c-11.302,0.579-24.867,3.081-37.084,4.363c-5.847,0.611-13.961-0.934-15.998,3.634c0.501,3.378,3.351,4.408,5.091,6.545
				C689.723,534.093,691.069,534.488,690.724,537.708z"/>
			<path fill="#FFFFFF" d="M611.706,459.418c0.118-0.846-0.161-1.294-0.729-1.454c0.662-1.278,2.55-1.33,3.638-2.182
				c-2.772-5.817,7.692-8.199,5.089-13.816c0.98-1.626,2.093-1.636,2.182-2.909c0.232-3.335,0.684-2.011,2.183-4.362
				c0.3-0.471,1.035-1.057,0.728-2.182c12.954-1.589,27.15-1.936,39.993-3.636c-0.34,1.552,1.038,1.385,2.182,1.455
				c-0.861,18.266-0.585,36.839-1.455,55.264c-0.869,18.388,3.428,35.611,5.092,51.811v1.271c-1.644,0.406,0.881,1.133-0.729,2.183
				c-1.854-0.725-3.528-2.069-4.363,0c-2.128-0.523-2.369-1.423-4.361-1.454c-3.028-0.051-6.104,3.066-9.453,2.909
				c-1.364,0.815-1.545,2.815-2.908,3.634c-3.197,0.288-2.51-3.309-3.637-5.089c-0.565-2.102-2.655-2.68-3.637-4.363
				c-0.646-4.041,1.397-5.391,1.455-8.726c-11.778-1.598-24.771,1.89-37.812,1.453c-1.853-2.81-1.671-6.68,1.455-5.816
				c-0.87-1.045-0.618-3.265-0.729-3.637c-0.351-1.188,0.219-2.5,0.729-3.637c-0.026,0.06,1.247-0.31,0.727-0.727
				c-2.079-1.664,3.638-2.912,1.454-5.817c2.003-1.39,3.7-3.087,5.091-5.089c-0.372-2.131,2.31-4.1-1.454-3.636
				c1.469-0.957,2.53-2.316,4.363-2.909c-0.298-2.127-2.489-2.36-3.637-3.636c1.593-1.515-0.639-2.353,0.728-3.637
				c-0.226-0.986-1.82-0.604-2.909-0.728c0.712-0.743,1.438-1.471,2.183-2.181c-0.117-0.854-1.326-0.613-2.183-0.729
				c-0.345-2.284,0.907-2.971,2.183-3.636c-0.199-1.498-2.709-0.686-2.908-2.182c-1.06-2.97,2.604-2.763,1.454-6.546
				c-0.092-0.299-1.424-1.282-1.454-1.453c-0.251-1.404,0.884-2.449,0.728-2.908c-0.693-2.019-2.68-1.825-2.183-3.636
				c1.054-0.887,0.976-2.904,2.909-2.909c-0.118-0.853-1.326-0.612-2.182-0.728c0.08-1.374,2.403-0.505,2.182-2.182"/>
			<path fill="#FFFFFF" d="M795.796,582.064c-0.643-6.16,2.44-13.973-0.363-21.088c-2.603-1.273-3.156-4.599-5.09-6.544
				c-1.804-0.943-3.527,1.622-3.636,0c-3.858-1.476-5.11-5.557-9.453-6.545c1.268-3.681-2.295-3.366-4.363-5.091
				c-1.151-0.961-1.11-2.793-2.182-3.636c-0.509-0.401-5.911-2.669-7.271-2.908c-1.581-0.276-4.445-0.431-5.817,0
				c-0.967,0.303-1.112,1.05-2.182,2.181c0.072-0.075-2.229,2.017-2.183,1.455c-0.033,0.405,1.696,1.211,2.183,0.728
				c-1.104,1.1-2.281,0.767-3.637,1.455c-2.237,1.138-3.298,3.013-4.361,4.362c-1.084,0.926-1.572-1.427-1.454-1.454
				c-1.377,0.32-1.475,2.15-2.909,2.908c-1.936,1.021-4.049-0.515-5.09,1.454c-1.107-3.016-2.094-6.146-5.818-6.545
				c0.729-1.002,1.199,0.312,2.182-1.454c-1.731-1.417-3.765-2.536-6.543-2.908c0.893-1.289,2.256-2.106,2.908-3.637
				c-0.101-2.271-2.313,1.312-2.908,1.455c-1.291,0.309-3.686-2.12-3.637,1.454c-2.481-0.184-3.493-1.838-6.544-1.454
				c3.835-3.487-3.678-3.811-5.817-4.362c-1.902,2.943-6.53,3.164-10.18,4.362c0.033-1.194-1.161-2.431-1.455-5.091
				c-2.201-0.518-0.671,2.447-1.454,2.909c-0.254,0.148-0.923-1.417-1.454-1.455c-1.556-0.104-0.613,2.245-2.182,4.363h-1.455
				c-0.527-1.226-3.854-3.342-1.453-5.091c-0.938-2.697-4.929-2.343-5.09-5.816c0.993-4.49,5.744-2.464,8.725-2.907
				c13.307-1.978,29.771-3.57,43.631-5.091c0.955,1.952,1.951,3.864,2.907,5.818c18.938-0.009,38.159-3.483,55.265-2.909
				c-0.109,1.806,0.376,3.018,1.454,3.634c6.256,0.361,0.564-8.672,2.908-10.905c2.079-0.979,5.78,1.706,10.181,0.728
				c0.82,2.192-0.387,5.444,2.908,6.545c-0.022,4.58,2.575,8.375,4.362,12.359c3.874,8.645,9.079,17.587,15.997,23.997
				c-0.315,1.079-0.93-0.288-2.182,0c-0.601,3.413,1.35,6.466,2.909,9.451c1.378,2.638,3.446,5.519,5.09,7.999
				c1.251,1.891,1.951,3.332,3.637,5.091c2.312,2.415,3.425,8.225,6.543,10.908c0.063,1.031,0.121,2.058-0.727,2.181
				c3.747,1.635,4.625,2.802,6.544,8.726c1.329,4.102,2.799,17.479,1.455,23.271c-0.411,1.771-1.963,3.424-2.183,5.09
				c-0.226,1.709,0.886,3.494,0.728,5.092c-0.176,1.794-2.033,2.604-1.454,4.361c-4.363-0.727-5.32,5.01-9.453,2.181l-0.362-0.362
				l-0.363,0.362c-0.098-2.327-1.649-3.198-4.363-2.906c-1.82-2.421-3.811-4.713-5.817-7.272c-1.547-1.974-1.602-3.528-4.362-4.361
				c-2.113-0.641-4.011,0.488-5.816-0.729c-1.501-2.621-3.225-5.018-3.636-8.727c-0.203-1.493-1.942-1.45-2.908-2.183
				c0.188-2.72,1.685-4.131,2.908-5.816c-3.491-0.581-3.02,2.799-4.363,4.362c-2.437-0.982-2.877-6.93-1.454-9.452
				c-0.907-1.271-2.979,1.86-5.09,0c-2.034,0.937,2.29,1.505,1.454,3.636c-5.191-1.108-6.925-5.68-8.727-10.18
				c-0.411-2.255-3.421-1.911-3.636-4.362c2.475,0.225,1.61-3.192,2.183-4.363c0.617-1.271,2.846-1.961,2.182-3.636
				c-0.938-3.957-3.511-1.538-6.908-3.636l-0.364,0.727c1.403,0.294,0.063,3.332,2.909,2.182c-0.563,0.647-0.782,1.643-0.728,2.909
				c-2.717,0.777-2.073-1.806-4.363-1.454c-0.601-2.055,1.025-1.885,0.729-3.637L795.796,582.064z"/>
			<path fill="#FFFFFF" d="M610.736,482.445c1.796,0.137-0.172,1.63,0,2.908c0.13,0.96,1.455,2.106,1.455,2.181
				c-0.009,0.873-1.67,1.254-1.455,2.182c0.194,0.839,1.252,0.949,1.455,1.454c0.24,0.604-0.3,1.609,0,2.182
				c0.705,1.358,1.91,2.308,2.907,3.637c-0.507,1.916-3.311,1.538-3.636,3.636c0.532,0.679,1.321,1.102,2.183,1.454
				c-0.21,0.849-4.126,2.102-0.729,2.182c-1.391,2.003-3.088,3.7-5.09,5.091c1.313,2.815-3.05,5.991-2.909,7.271
				c0.137,1.231,0.848,1.601,0.729,2.909c-0.01,0.088-1.361-0.097-1.454,0c-0.696,0.716,1.348,1.978,0.727,2.908
				c-0.585,0.384-1.18,0.758-2.182,0.728c0.806,2.443,2.175,5.791,0,7.271c13.101-1.2,27.041-1.562,39.994-2.908
				c-1.022,1.886-1.009,4.81-2.183,6.545c1.424,4.761,4.349,6.875,6.544,11.635c-0.896,2.484-2.161-0.385-3.636-0.728
				c-1.088-0.255-2.604,0.41-3.636,0c-0.86-0.345-2.561-3.549-5.089-2.908c-2.666,1.454-4.511,3.731-5.092,7.271
				c3.476,3.787,12.125-0.425,13.815-0.728c2.56,1.245-1.824,1.466-1.454,2.909c0.968,1.698,3.249,2.082,5.09,2.908
				c2.087-0.582,0.457-4.876,3.638-4.362c-0.834,3.015,1.528,2.832,1.454,5.09c-3.366-0.312-4.893,1.212-3.637,3.636
				c-3.487-0.275-0.617,1.261-2.908,2.182c-0.826,2.675,3.037,1.864,4.362,2.907c0.429,0.338,0.185,1.936,0.729,2.183
				c0.333,0.152,1.334-1.079,2.182-0.729c0.429,0.18,1.587,2.533,4.361,1.454c1.369,1.687,3.008,3.098,1.455,5.818
				c-1.777-0.404-2.657-1.705-3.637-2.909c-0.738,0.473-0.752,1.673-2.181,1.454c0.091-1.306-0.891-1.532-0.728-2.908
				c-2.312,1.101-3.334-0.967-4.363-1.455c-0.537-0.254-1.7,0.339-2.183,0c-0.393-0.274-0.323-1.83-0.727-2.181
				c-1.156-1.007-2.221,0.177-4.363-0.729c-1.379-0.581-2.715-2.673-5.09-2.18c-0.82,3.485,2.772,2.559,3.636,4.36
				c1.193,1.697-1.398,1.964-1.454,2.183c-0.265,1.058,2.392,3.789-0.728,4.363c-2.443,0.744-1.133-2.264-1.454-3.638
				c-0.765-0.458-3.015,0.606-3.636,0c-0.715-0.697,0.474-1.774-2.182-0.727c-1.905,0.753-3.104,1.847-3.637,5.09
				c-2.075-0.007-6.436-2.693-7.999-1.454c-0.639-3.724-4.584-4.141-3.635-9.451c-1.552-0.341-1.386,1.037-1.455,2.181
				c-2.295,0.355-2.566-1.31-5.09-0.729c-0.502-3.133-2.423-4.848-6.545-4.361c0-0.728,0-1.454,0-2.182
				c-2.646,0.746-4.497,2.288-7.271,2.909c-2.033,0.935,2.29,1.503,1.454,3.634c-1.486-1.086-2.341,1.329-3.636,1.454
				c-1.17,0.114-3.954-1.239-5.817-1.454c-3.439-0.396-5.202-1.002-8.727-2.18c-1.979-0.664-3.225-2.167-5.816-1.454
				c1.532-2.827,0.124-5.537-1.454-7.272c-0.347,1.875-2.459,5.728-1.454,6.545c-1.507,2.372-6.739,1.016-9.453,2.183
				c-1.019-1.602,1.619-1.671,2.182-2.909c0.451-0.992-0.295-2.577,0-3.636c0.197-0.705,1.339-1.209,1.454-2.183
				c0.246-2.049-1.313-3.168-1.454-5.09c-0.095-1.312,0.414-4.551,0.729-5.817c0.395-1.604,2.506-3.205,2.907-5.091
				c0.738-3.456,0.435-8.607,0-10.181c-0.314-1.144-2.371-1.983-2.907-2.906c-0.837-1.438-0.343-5.463-2.909-5.817
				c0.732-6.065-2.903-7.762-5.089-10.907c0.534-8.534-0.83-15.168-0.729-23.27c13.444-0.215,28.428-1.451,42.175-2.182
				c4.707-0.25,9.504-0.299,13.815,0C608.096,484.438,609.369,483.954,610.736,482.445z"/>
		</g>
		<path fill="#FFFFFF" d="M602.737,565.339c-1.534,1.604-2.148-0.933-4.362-0.727C599.095,562.834,602.805,562.658,602.737,565.339z
			"/>
		<path fill="#FFFFFF" d="M614.373,568.975c0.789,0.181,0.492,1.447,1.453,1.455C615.184,572.399,612.601,569.818,614.373,568.975z"
			/>
	</g>
</g>
<g id="northeast"ng-click = "highlightMap(2)">
	<g id="Maine">
		<path fill="#FFFFFF" d="M1001.216,119.597c1.411-0.289,1.063,3.312-0.727,2.181c0-0.484,0-0.97,0-1.454
			C1001.107,120.457,1001.175,120.04,1001.216,119.597z"/>
		<g>
			<line fill="#FFFFFF" x1="908.141" y1="238.122" x2="907.414" y2="237.759"/>
			<line fill="#FFFFFF" x1="907.414" y1="237.759" x2="906.688" y2="238.122"/>
			<line fill="#FFFFFF" x1="961.587" y1="209.036" x2="961.95" y2="209.763"/>
			<path fill="#FFFFFF" d="M920.503,193.766c-3.139-3.208-1.222-8.264-2.182-14.543c-0.218-1.419-1.472-3.324-1.454-4.363
				c0.072-4.354,3.07-9.427,2.908-13.816c-0.051-1.373-0.613-3.157-1.454-4.363c0.161-1.995,2.584-2.438,3.636-3.636
				c1.242-1.416,1.492-2.933,2.908-4.363c-2.422-5.435-2.983-12.685-0.729-18.906c1.821,0.091,2.277,1.388,2.909-0.727
				c3.659,8.677,6.185,18.499,9.453,28.359c0.479,1.451,0.858,3.453,1.455,5.09c0.432,1.187,1.83,2.451,2.181,3.636
				c0.479,1.622-0.011,3.622,0.729,5.09c2.195,4.368,7.919,5.918,6.544,11.634c-4.286,0.318-5.163,4.047-7.271,6.544
				C933.18,190.446,927.229,192.492,920.503,193.766z"/>
			<path fill="#FFFFFF" d="M919.049,194.493c-5.012-0.164-8.12,1.577-12.361,2.182c-1.431-7.441-1.95-19.178-7.271-20.36
				c1.112-3.767-2.364-6.876-2.909-10.18c-0.22-1.33,0.724-3.211,0.729-4.362c0.004-1.021-0.47-3.541-0.729-4.363
				c-0.417-1.323-1.725-2.397-2.182-3.635c-0.311-0.838,0.18-2.029,0-2.909c-0.421-2.071-1.718-3.924-1.454-5.818
				c9.388-2.731,18.736-5.501,29.086-7.271c1.001,2.201-0.346,2.598,0,5.817c0.631,2.289,1.511,2.527,1.454,4.363
				c-0.112,3.643-4.577,5.342-5.816,7.999c2.781,6.366-1.437,12.97-1.455,18.906c-0.008,2.731,2.132,7.571,2.183,11.634
				C918.357,189.33,917.083,191.644,919.049,194.493z"/>
			<path fill="#FFFFFF" d="M911.05,240.849c0.363,1.636-0.728,3.818-2.362,3.818c-3.092,2.727-3.312-6.964-3.453-4.363
				c-7.667-1.787-14.076-4.831-21.088-7.271c-1.873-1.055-1.525-4.934-2.908-6.544c-0.891-1.034-1.957-0.496-3.638-1.455
				c-1.029-0.589-1.716-2.106-2.181-2.182c-1.64-0.266-5.969,1.372-9.453,2.182c-2.975,0.691-6.715,1.576-9.453,2.182
				c-17.476,3.866-40.352,8.824-58.172,10.907c0.92-1.076-0.89-2.377-0.728-3.636c0.274-2.141,1.891-2.325,3.636-4.363
				c1.196-1.398,1.96-3.194,2.909-4.363c1.125-1.387,2.665-2.349,3.636-3.636c0.482-0.641,0.227-0.932,0.727-1.455
				c0.351-0.363,1.476-1.822,2.183-2.908c0.364-3.031-2.126-3.207-1.455-6.544c-1.332-0.85-3.301-1.062-3.635-2.909
				c-0.653-3.015,3.99-3.056,6.544-4.363c2.179-1.116,8.309-3.697,13.815-2.909c1.688,0.242,2.778,1.361,4.362,1.454
				c3.256-1.107,5.793-2.933,10.907-2.181c2.577-2.027,4.708-4.503,6.544-7.272c1.131-1.051,2.834-1.529,4.362-2.181
				c0.325-3.234-0.517-5.301-1.454-7.272c-0.184-2.608,2.185-2.664,2.183-5.09c-2.998,2.036-1.896-3.458-4.363,0
				c-1.513-3.258,4.657-6.62,6.545-9.453c-0.666-2.428,0.571-3.67,1.454-5.09c0.675-1.086,1.333-2.17,2.182-3.636
				c2.629-4.541,6.965-9.011,12.361-10.18c6.276-1.359,14.757-2.373,20.36-5.09c1.709,0.965,0.262,2.182,0.727,3.636
				c0.304,0.946,1.186,1.167,1.454,2.182c0.236,0.885-0.308,2.049,0,2.909c0.883,2.463,2.874,3.963,2.909,7.999
				c0.015,1.702-0.991,2.694-0.729,4.362c0.608,3.847,3.855,7.639,2.909,12.362c1.868,1.948,1.039-1.948,2.909,0
				c2.015,4.446,2.72,10.093,3.636,16.725c0.112,0.816,1.644,1.304,1.453,2.181c-0.781,3.63-1.32,9.796-0.728,15.27
				c0.147,1.355,1.108,2.173,1.455,3.636c0.923,3.902,0.947,9.296,2.182,13.816c1.335,4.896,1.765,4.604-1.455,7.999L911.05,240.849
				z"/>
			<path fill="#FFFFFF" d="M930.502,235.213c-0.078-0.714,2.362-1.636,2.362-1.636c2.362,0.364,2.287-1.894,5.816-1.272
				c-1.904,1.003-2.503,3.86-5.09,4.181C933.592,236.486,930.59,236.044,930.502,235.213z"/>
			<path fill="#FFFFFF" d="M931.047,237.395l-0.545,0.727c0.173,2.306-2.168,1.228-4.183,2.181
				c-0.369,0.175-0.419,1.288-0.728,1.455c-1.031,0.559-2.604,0.182-3.636,0.727c-0.883,0.467-1.436,1.77-2.182,2.182
				c-2.023,1.116-4.197,1.802-6.544,2.909c-2.009,0.946-3.696,3.427-6.545,2.182c-0.165-4.771,5.443-3.767,5.816-7.999
				c3.622-0.257,6.525-1.231,7.999-3.636c3.531,0.138,6.457-3.057,8.544-4.363c-0.182,1.273-3.733,3.896-0.363,3.272
				L931.047,237.395z"/>
			<path fill="#FFFFFF" d="M961.95,209.763c-0.088,1.85-1.06,2.82-2.908,2.908c0.527-2.224-1.255-2.138-0.728-4.362
				c-2.673,1.448-4.062,4.178-5.817,6.544c-2.583-0.083-2.926-2.406-2.908-5.09c-0.679,0.533-1.102,1.322-1.454,2.181
				c-2.215-1.178-3.097-3.689-4.363-5.817c-13.601,1.184-23.193,6.376-37.085,7.271c0.406-6.472,0.837-8.72,0.729-15.998
				c8.979-1.826,21.948-4.52,30.541-6.544c2.59-0.61,5.704-3.308,6.543-6.545c0.846,0.119,1.295-0.16,1.455-0.727
				c2.184,1.624,2.603,6.641,6.544,4.363c-2.678,1.927-4.326,4.884-5.817,7.999c0.14,0.589,0.73,0.725,0.729,1.454
				c1.244,2.181,2.646,0.808,5.09,0.728c0.965,1.702,3.605,1.727,2.909,5.09c3.314,0.562,3.189,4.567,6.544,5.09"/>
			<path fill="#FFFFFF" d="M961.587,209.036c2.462,0.472,6.787-1.333,8.728-3.757l-1.213-0.97l-1.938,1.454l-0.242,0.97
				c0,0-2.908,1.212-3.878,0.728c-0.971-0.485-1.092,0.848-1.092,0.848L961.587,209.036"/>
			<path fill="#FFFFFF" d="M961.223,215.58c0.134,1.587-0.595,2.313-2.181,2.182C959.818,217.084,959.269,215.079,961.223,215.58z"
				/>
			<path fill="#FFFFFF" d="M943.045,206.854c1.444,2.469,1.688,4.205,0.727,6.544c1.258,1.652,1.756,4.062,1.454,7.271
				c-1.646,0.779-3.196,1.651-4.361,2.909c-0.597-3.509-2.473-10.115-3.637-15.27C938.934,207.592,940.8,207.034,943.045,206.854z"
				/>
			<path fill="#FFFFFF" d="M887.78,307.928c-0.552-10.664-7.749-21.264-6.543-31.994c2.054,0.601,1.883-1.025,3.635-0.728
				c0.417,2.052-1.426,3.214-1.454,5.09c-0.051,3.417,2.666,6.441,5.09,8c0.366,2.768,0.985,4.159,2.909,6.544
				c1.799,2.23,1.929,3.835,5.817,3.635c-0.232,1.708-1.149,2.729-0.729,5.09c0.131,1.171,3.456-1.184,2.909,2.182
				C895.146,306.083,892.178,307.72,887.78,307.928z"/>
			<path fill="#FFFFFF" d="M908.141,214.853c9.416-1.976,18.509-4.276,27.634-6.544c1.227,5.074,3.359,9.242,3.636,15.27
				c-4.432-0.61-6.194,5.228-9.454,1.454c-0.064,1.984,1.212,1.464,0,2.909c-3.617,0.745-6.758,1.01-9.452,2.908
				c-0.753,0.532-0.792,1.625-1.454,2.182c-0.431,0.363-1.732-0.344-2.182,0c-0.629,0.483-0.188,1.643-0.729,2.182
				c-0.48,0.481-1.69,0.256-2.182,0.727c-0.926,0.891-1.464,2.588-2.908,2.909c-0.845,0.119-1.294-0.161-1.454-0.727
				c-0.64-2.336,2.396-0.996,2.183-2.909C910.54,228.451,908.467,222.525,908.141,214.853z"/>
			<path fill="#FFFFFF" d="M889.235,235.213c-2.099,3.235-2.318,8.347-5.091,10.907c-0.283,2.286,1.531,1.228,1.454,3.636
				c-0.03,0.959-1.585,2.304-1.454,2.908c0.447,2.068,1.346,3.008,2.908,4.363c0.516,0.446,0.271,0.974,0.728,1.455
				c0.652,0.688,1.349,0.915,2.182,1.454c1.282,0.83,2.76,3.187,5.091,3.636c-0.256,2.411-2.178,3.154-3.636,4.363
				c-1.263,1.404-1.647,3.686-2.909,5.09c-1.244-0.032-1.883,0.54-2.182,1.454c-1.454,0-2.908,0-4.362,0
				c-1.406,1.017-2.156,2.691-2.908,4.363c-27.639,5.811-55.76,11.139-83.623,16.725c-2.495-9.668-5.146-26.326-7.271-39.266
				c-0.802-4.876-2.813-10.738-2.182-13.089c0.295-1.102,0.952-1.918,2.182-2.909c0.57-0.461,1.533-0.242,2.181-0.727
				c1.376-1.032,3.97-4.68,6.544-5.09c0.232,1.707,1.149,2.729,0.729,5.09c16.577-2.5,35.829-6.392,53.809-10.18
				c1.661-0.351,2.773-1.113,4.363-1.455c2.952-0.634,6.758-0.686,10.181-1.454c3.589-0.806,6.378-2.555,8.727-2.182
				c2.088,0.332,3.044,3.329,5.09,2.182C881.788,230.541,882.776,235.612,889.235,235.213z"/>
			<path fill="#FFFFFF" d="M899.416,288.296c0-0.243,0-0.485,0-0.728c-1.507,0.433-4.777-0.898-5.091,0.728
				c-3.342-2.962-12.592-5.01-7.271-13.089c2.055-0.205,2.004-1.015,4.363-2.181c-0.612-3.279,1.701-3.631,2.181-5.817
				c1.177-0.205,1.253,0.687,2.183,0.728c-1.577-1.514,0.089-2.351,0.728-3.636c0.126-1.865-1.899-0.808-2.909-2.182
				c-1.652-2.252,0.928-1.341-1.453-2.181c-0.29-0.102-1.808-0.445-2.183-0.728c-0.692-0.522-0.192-1.475-0.727-2.181
				c-1.025-1.357-3.141-1.118-3.637-2.909c0.115-3.134,2.82-5.145,0-7.271c0.209-2.188,2.201-3.406,2.908-5.09
				c0.782-1.863-0.235-4.01,1.454-5.09c0.825,0.138,0.404,0.729,0,0.727c2.355,0.448,2.674-0.23,5.817,0.727
				c-0.147-0.045,2.026,0.615,2.182,0.727c0.153,0.111-0.162,1.405,0,1.454c0.366,0.111,1.305-0.869,2.183-0.727
				c0.688,0.112,3.564,1.907,5.091,2.182c0.705,6.523-4.466,7.168-2.909,14.543c2.295,0.355,2.567-1.311,5.09-0.727
				c1.913,2.635,0.138,6.483,0,9.453c-0.134,2.889,1.375,5.901-0.728,7.271c0.929,0.348,1.844,0.509,0.728,2.909
				c-0.162,0.348-1.66,0.995-2.181,2.182c-0.965,2.196-0.024,5.136-2.909,5.817c0.601,2.964,0.111,2.504,0,5.817
				c-0.589-0.138-0.726-0.729-1.454-0.727"/>
			<path fill="#FFFFFF" d="M870.329,308.655c-0.707-0.021-0.564-0.891-0.729-1.454c-2.645,6.051,5.79,7.291,7.999,10.907
				c-2.023,0.546-8.972-0.222-9.453-3.637c-0.852,0.118-0.612,1.326-0.728,2.182c-1.822-0.602-2.299-2.547-3.635-3.636
				c-1.916-0.219-2.388,1.008-2.183,2.909c-3.838-3.602,2.646-8.15,2.183-13.089c-0.806-2.584-2.936-0.442-4.363-0.727
				c-1.549-0.31-2.104-1.721-3.636-2.182c-1.171-0.353-2.633,1.073-3.636,0c0.51-3.66-1.509-4.793-5.091-4.363
				c-1.028-2.122-2.969-2.485-3.149-5.454c-0.85-0.606-3.15-0.97-4.363-1.091c-1.212-0.121-2.908-0.727-3.394,0.242
				c-0.485,0.97-2.304,0.728-2.909,1.455c-0.605,0.727-1.817,3.272-2.908,3.03s-3.029-1.575-3.515-1.454
				c-0.484,0.121-0.728,0.363-1.211,1.454c-0.485,1.091-1.576,2.908-2.909,3.03s-2.061,0.485-2.424,1.333
				c-0.363,0.849-0.97,2.424-1.817,3.151c-0.849,0.727-2.183,1.09-2.788,2.787l-1.939-11.149l32.602-6.06
				c4.476-0.887,11.927-2.452,17.452-3.636c3.769-0.807,10.457-2.978,15.997-3.636c-0.602,2.056,1.023,1.884,0.728,3.636l0.12,0.485
				c2.546,8.241,4.292,17.887,7.15,25.693c3.347-0.791,9.005-3.643,11.636-0.728c-1.41,2.712-3.038,5.204-3.637,8.726
				c-3.267,0.371-4.492,2.78-7.999,2.909c0.379-1.076,1.075-1.833,1.455-2.909c-0.197-0.663-3.221-1.931-2.909-0.728
				c-2.162,0.314,0.748-1.767,0.728-2.182c-0.038-0.821-2.683-1.62-1.454-3.636c-1.326-0.38-0.922,1.854-1.453,2.182
				c-0.293,0.182-1.94-2.909-2.183,0.728c-1.285-0.653-2.123-1.755-3.636-2.181c-0.528-2.226,1.254-2.14,0.728-4.363
				c2.282,0.807,1.921,0.34,3.637-0.728c0.122-1.577-2.58-0.33-3.637-0.728c0.13-2.169-2.795-4.451,0-5.09
				c-0.108-1.345-2.463-0.446-2.908-1.454c-0.459-1.078,1.629-2.49,0.728-4.363c-0.333-0.69-1.543-0.884-1.454,0
				c-0.452-4.49-0.631-5.794,5.09-7.271c-2.28-0.986-2.738-1.464-1.334-3.636l-0.12-0.728c-1.131-1.198-2.832,0.249-4.362,0.728
				c-0.298,1.751,1.328,1.581,0.728,3.636c-1.236,0.268-1.373-0.567-1.455-1.454c-2.154,1.37-1.151,3.133-3.636,2.908
				c-0.064,1.984,1.211,1.464,0,2.909c-0.585-0.385-1.18-0.758-2.182-0.727c0.812,0.895,0.634,1.494-0.729,1.454
				c-0.339,2.279,1.83,2.05,2.909,2.909c-1.276,4.289,1.091,8.344,1.454,13.088"/>
			<path fill="#FFFFFF" d="M979.402,134.866c2.733,0.634,0.828,3.22-1.454,2.909C978.326,136.699,979.023,135.942,979.402,134.866z"
				/>
			<path fill="#FFFFFF" d="M927.593,128.141c0.12-1.219,1.958-0.298,2.909-0.728c1.676-0.758,0.946-3.489,3.635-2.908
				c-0.419-1.521-1.804-2.075-1.454-4.363c0.631-2.277,1.803-4.016,3.637-5.09c-1.923-1.97,0.771-2.726,0.727-4.363
				c-0.079-2.941-2.387-5.057-2.182-7.999c-0.009,0.144,0.426-2.933,0.728-3.636c0.272-0.628,1.36-0.424,1.454-1.454
				c0.213-2.314-0.901-4.902-0.727-7.271c0.151-2.067,1.506-3.095,2.182-5.09c0.488-1.444,0.209-3.416,0.728-5.09
				c0.427-1.377,1.049-2.518,1.453-3.636c0.371-1.023,1.055-2.614,1.455-3.636c0.383-0.971,0.478-3.311,2.183-2.909
				c1.9-0.557,0.923,1.326,1.454,2.182c0.83,1.336,2.317,1.54,2.907,2.909c3.91-1.422,6.551-4.115,9.453-6.545
				c1.335,0.235,3.377-0.044,5.09,0.728c0.622,0.28,0.899,1.812,1.455,2.182c0.64,0.427,2.439,0.163,2.908,0.727
				c0.539,0.649,1.298,3.914,2.183,6.544c1.618,4.822,2.853,10.126,5.09,15.998c0.683,1.792,2.06,4.471,2.181,7.999
				c1.336,1.573,4.287,1.53,7.272,1.454c-0.025,4.874,2.197,7.497,4.362,10.18c0.744-0.71,1.472-1.437,2.182-2.181
				c1.688,0.492,1.945,2.417,3.636,2.909c-0.01,1.445-1.983,0.925-1.454,2.909c0.492,1.44,2.417,3.197,2.908,0.727
				c1.66,1.513-2.004,6.762-4.363,4.363c-0.977,2.416-2.336,4.45-4.362,5.817c-0.788-0.18-0.491-1.446-1.453-1.455
				c-1.969,0.177-0.797,3.046-0.729,2.909c-0.602,1.195-3.27,0.355-2.181,2.909c-1.275-0.665-3.628-0.25-4.363-1.454
				c-1.161,1.97-1.579,3.833-3.636,1.454c0,1.939,0,3.878,0,5.817c-4.499,1.348-2.208-4.095-4.362-5.09
				c-2.122-1.357-0.98,2.092-1.455,2.909c-0.092,0.16-1.403-0.164-1.454,0c-0.371,1.204,0.732,2.218,0.729,3.636
				c-0.012,2.535-1.473,4.984-0.729,7.999c-1.474,1.436-6.209-0.392-5.09,3.636c-0.838,2.353-0.823-1.953-0.728-2.909
				c-2.218,0.953-4.138,4.472-5.091,0.727c-1.889,2.276,0.737,4.571-0.728,7.271c-0.978,0.495-0.449-2.125-0.729-2.182
				c-0.647-0.132-3.056,1.47-3.636,3.636c-0.33,1.233,0.24,3.188,0,4.363c-0.245,1.199-1.353,1.701-1.453,2.181
				c-0.269,1.266,1.044,1.568,0.728,2.909c-0.257,1.084-1.882,1.962-2.183,2.909c-0.805,2.544,0.343,5.107-0.727,5.817
				c-1.916,0.219-2.388-1.006-2.182-2.909c-2.459,0.036-3.154-1.693-4.363-2.908c0.64-4.306-2.448-7.967-3.636-11.634
				c-0.844-2.606-0.783-4.458-1.454-7.271c-0.042-0.181-0.729-0.043-0.729-0.728c0-0.348,0.625-1.039,0.729-0.727
				c-0.303-0.917-1.846-1.446-2.183-2.182c-0.299-0.652-0.697-2.808-0.727-2.909C931.87,140.073,930.281,133.681,927.593,128.141z"
				/>
		</g>
	</g>
</g>
<g id="southwest" ng-click = "highlightMap(3)">
	<g id="Texas">
		<g>
			<path fill="#FFFFFF" d="M529.296,460.63c-2.336-0.64-0.997,2.397-2.909,2.183c-2.287,0.349-2.842-1.036-4.362-1.454
				c-3.263,0.068-5,3.718-7.271,0.727c-2.435,1.443-4.942,2.814-7.271,4.363c-2.293-0.857-4.039-2.263-5.816-3.636
				c-1.715-1.779-1.353,1.086-3.635,0.728c-0.232-1.708-2.251-1.628-2.909-2.909c-1.348,1.804-4.208,2.095-3.636,5.817
				c-2.28-0.503-0.948-1.939-0.728-3.636c-2.09-0.15-3.693,0.185-4.362,1.453c-1.724-1.186-2.753-3.063-5.09-3.636
				c-2.351-1.985-2.063,3.32-5.816,2.183c1.234-4.387-4.422-1.881-2.909-6.545c-3.029-0.12-6.069-0.252-7.272,1.454
				c-5.056-1.599-9.995-3.433-14.543-3.636c1.02-4.169-2.669-3.633-2.908-6.544c-1.479,3.235-2.423,1.454-4.362,1.454
				c-0.461,0-0.892,0.7-0.729,0.728c-3.105-0.508-4.335-4.476-7.271-5.09c0.167-15.104,0.812-29.728,1.455-44.355
				c-4.434-4.161-11.616-1.629-18.179-2.183c-11.065-0.932-27.96-2.207-39.812-2.727c0.727-4.727,0.727-7.09,1.272-10.362
				c50.987,2.822,104.312,3.308,158.518,2.909c-1.228,13.809,3.444,25.184,4.363,37.812c0.979,13.446-0.722,26.806,0,42.175
				C537.328,466.656,534.101,462.854,529.296,460.63z"/>
			<path fill="#FFFFFF" d="M377.321,397.368c-1.073,8.927-0.875,18.461-1.454,27.631c-1.14,18.013-2.316,35.956-3.636,53.81
				c-0.644,8.709-0.964,17.252-2.908,25.449c-24.131-1.562-47.731-3.653-71.261-5.816c-2.498,0.937,1.93,4.723,0,5.091
				c-10.344-1.29-21.401-1.868-31.268-3.636c-2.134,2.471-1.088,8.121-2.908,10.906c-4.736-1.08-10.873-0.763-15.271-2.182
				c5.434-44.982,11.567-89.265,16.725-134.523c37.191,4.015,73.852,8.56,113.436,10.181L377.321,397.368z"/>
			<path fill="#FFFFFF" d="M137.362,462.812c0.224-1.715,2.525-1.354,2.181-3.637c0.713-0.71,3.439,0.925,4.363,0
				c0.08-0.079,1.205-3.43,1.455,0c1.09-0.629,0.003-3.851,0.727-4.362c0.411-0.291,2.177,0.699,2.182,0.728
				c-0.156-0.984-2.103-2.194-2.909-2.909c-0.894-0.792-1.251-1.849-2.909-2.181c0.971-3.159,0.1-4.855,0.727-7.272
				c0.232-1.836,3.308,0.984,3.636,0.728c0.439-0.343-1.46-1.478-1.454-1.454c-0.222-0.944,3.181-5.091,3.636-6.545
				c0.647-2.07-0.089-4.524,0.727-5.817c2.592-4.105,5.924-2.65,8.727-7.271c-0.063-2.101-1.468-2.807-3.636-4.363
				c-0.151-7.479-5.812-13.111-0.727-18.179c-0.192-8.023,0.245-16.531,0.727-21.815c3.317-1.125,3.076,0.573,6.544,0.729
				c1.16,0.536-0.166,3.559,2.182,2.908c1.939,1.877,2.289-1.462,3.636-2.908c1.064-1.145,1.461-1.975,2.181-5.817
				c0.68-3.633,1.494-9.822,2.182-13.816c10.108,1.724,20.042,4.168,30.541,5.817c1.182,0.186,2.455-0.192,3.636,0
				c17.282,2.817,39.025,6.059,58.899,8.726c-6.182,44.479-11.075,90.241-17.452,134.523c-13.624-1.403-26.125-3.931-39.993-5.09
				c-0.606-0.298-0.672-1.76,0-1.455c-1.2-0.544-6.742-0.553-5.09-3.636c-1.492,1.702-3.253-0.558-5.09-1.454
				c-1.545-0.753-4.523-1.598-5.09-2.183c-0.146-0.15,1.063-1.251,0.727-1.454c-0.715-0.432-0.576,0.697-0.727,0.728
				c-0.9,0.18-0.37-0.598-0.728-0.728c-3.526-1.26-7.119-3.335-10.18-5.091c-2.599-1.489-5.102-2.884-7.271-5.088
				c-0.39-0.396-1.634,0.254-1.455-0.728c-0.035,0.189,1.239-0.413,0.727-0.729c0.013,0.008-2.939,1.395-3.636,0
				c-0.046-0.091,0.973-1.353,0.727-1.454c-0.664-0.275-1.749,0.756-3.635,0c-1.365-0.548-2.342-2.145-3.636-2.907
				c-0.779-0.461-1.474-0.318-2.181-0.729c-2.349-1.36-6.586-3.63-9.453-5.818c-0.452-0.344-1.625,0.207-1.455-0.727
				c-0.034,0.189,1.239-0.411,0.728-0.727c-0.708-0.438-0.581,0.696-0.728,0.727c-0.649,0.13-4.549-2.938-5.817-3.636
				C141.769,465.27,139.292,464.642,137.362,462.812z"/>
			<path fill="#FFFFFF" d="M490.029,608.241c-2.195-0.979-5.803-0.979-7.999,0c0.839,1.716,1.952,0.688,2.909,1.454
				c0.726,0.582,1.21,1.621,2.181,2.908c-0.174,2.979-2.206,4.097-2.181,7.271c-4.344,0.95-5.417-1.368-7.999-2.182
				c-0.12,2.302,1.933,2.431,1.454,5.091c2.618,0.254,3.505,1.112,5.816,0c-0.95,1.959-0.863,4.951-2.908,5.816
				c-1.496,3.308,1.58,4.447,2.182,6.546c0.562,1.959,0.21,4.544,0.727,6.541c0.44,1.699,1.796,2.812,2.182,4.363
				c0.647,2.608-0.55,5.571,1.455,7.272c0.289,1.741-3.312-0.404-2.182,2.181c-3.532-0.043-4.618-4.2-7.998-5.09
				c-3.172-0.834-6.395,0.595-10.908,0c-2.561-2.045-4.31-4.899-9.453-4.363c-0.925-2.953-4.108-3.646-7.999-3.636
				c-0.76-0.321-0.268-1.521-0.727-2.182c-0.129-0.186-1.455-0.729-1.454-0.727c-0.598-1.536-0.228-3.591-0.727-5.09
				c-1.096-3.284-3.185-5.791-5.091-7.999c-0.499-1.518,0.751-1.932,0.728-2.909c-0.039-1.585-1.345-1.822-1.455-2.908
				c-0.175-1.75,0.996-3.644,0-5.816c-0.79-2.118-2.97-2.849-5.09-3.638c-1.82-3.996-4.773-6.859-6.544-10.904
				c-0.661-1.279-2.547-1.331-3.635-2.183c-0.495-1.655-1.067-2.715-1.455-5.816c-0.013-0.099-0.369-1.95-1.455-3.637
				c-0.179-0.276-1.346-0.485-1.454-0.728c-0.177-0.396,0.205-1.077,0-1.454c-0.674-1.245-1.019-2.421-2.182-3.637
				c-0.608-0.636-0.744-3.284-1.454-5.091c-1.281-3.26-4.132-5.076-6.544-7.998c-1.055-1.275-3.188-3.615-5.091-5.091
				c-0.311-0.238-1.097-0.382-0.727,0c-2.375-2.453-2.575-3.909-4.363-5.815c-3.055,0.767-7.615,0.419-12.361-0.728
				c-2.57-0.623-5.5-3.27-7.271,0.728c-2.437-0.975-5.209,0.436-6.544,2.182c-1.145,1.496-2.211,4.924-3.636,7.997
				c-1.242,2.681-4.155,5.315-6.544,7.272c-4.125,0.107-7.178-2.991-10.18-5.092c-0.958-0.669-1.548-1.839-2.182-2.182
				c-1.567-0.843-3.646-0.44-5.09-1.454c-3.015-2.116-4.524-6.614-8.726-7.27c-0.126-4.185-4.893-6.295-3.636-11.637
				c0.394-1.675,0.523-3.164-0.728-5.816c-0.131-0.278-0.411-1.654-0.727-2.183c-0.148-0.248-1.38-0.527-1.454-0.727
				c-0.296-0.799,0.408-2.171,0-2.909c-0.67-1.211-1.373-2.021-2.181-2.908c-1.129-1.235-2.234-2.64-3.636-3.637
				c-1.061-0.751-3.139-1.013-4.363-2.182c-0.895-0.853-1.405-2.56-2.181-3.637c-0.857-1.187-2.024-1.813-2.909-2.905
				c-3.144-3.884-5.083-7.405-10.18-9.454c-0.122-2.061-1.333-3.03-1.455-5.09c-1.801-2.807-6.374-2.836-5.817-7.999
				c22.852,2.599,46.284,4.616,70.534,5.816c0.955-0.258,1.144-1.279,2.181-1.454c2.029-36.024,4.809-71.301,7.272-106.892
				c18.434,1.441,38.107,1.644,56.717,2.909c0.07,15.825-0.204,31.306-1.454,45.811c3.334,0.786,4.837,3.404,7.271,5.09
				c3.651,0.478,5.868-0.914,7.999,0c1.211,0.971,0.242,4.119,1.453,5.091c5.611,0.205,10.626,1.007,13.816,3.636
				c2.753-1.749,3.013-1.979,7.271-1.454c-0.338,2.275,0.632,3.245,2.908,2.908c-0.232,1.687,0.117,2.792,0.728,3.636
				c2.653-0.011,3.266-2.067,5.09-2.908c1.753,0.67,2.965,1.882,3.635,3.636c2.09,0.15,3.694-0.185,4.363-1.454
				c1.637,0.303-0.108,3.987,2.182,3.637c1.647,0.089,1.934-2.335,2.909-3.637c0.265-0.353,0.919-0.624,0.727-1.454
				c2.804,1.035,3.541,3.016,7.271,1.454c0.966,2.428,4.114,2.673,5.816,4.362c1.373-1.535,3.643-2.176,5.091-3.636
				c2.13-0.653,2.232-0.653,4.362,0c1.813-0.367,2.988-1.374,4.362-2.183c1.368,0.827,5.617,3.193,7.271,0
				c3.131-0.919,5.436,3.422,7.271,4.363c0.577,0.297,1.593-0.277,2.181,0c0.273,0.13,0.521,1.383,0.728,1.454
				c2.285,0.792,5.673-0.145,6.545,2.908c2.057-0.896,4.488-0.896,6.545,0c0.945,11.901,0.966,24.728,1.454,37.086
				c1.122,1.785,2.92,2.896,4.363,4.362c-0.364,2.287,1.584,2.842,0,4.362c0.479,0.854,0.781,1.905,1.453,2.909
				c0.521,0.779,1.832,1.471,2.182,2.183c0.283,0.572-0.312,1.622,0,2.182c1.355,2.419,3.222,2.796,2.909,7.27
				c-0.004,0.061-0.857,0.077-0.729,0.729c0.106,0.53,0.674,2.673,0.729,4.363c-3.403,3.587-4.365,11.547-2.183,16.725
				c-1.622,2.531-7.526,5.923-3.636,9.454c-1.874,1.099-3.275,0.835-5.09,1.452c-1.954,0.665-3.531,2.526-5.091,2.908
				c-1.172,0.288-1.261-0.812-2.182-0.728c-0.653,0.062-3.343,1.059-5.091,0.728c1.002-0.938,0.721-3.157,0.729-5.089
				c-2.561-2.033-3.151,1.914-4.362,2.181c-1.451,0.318-1.585-2.856-2.909-0.729c-0.003,3.862,1.596,5.466,2.909,9.454
				c-2.362,0.547-2.577,3.241-5.091,3.636c-0.18,6.365-6.527,6.562-9.453,10.182c-2.739-0.561-3.477,0.886-5.816,0.727
				c-0.986,0.226-0.603,1.821-0.728,2.909c-1.606,0.35-1.043-1.323-2.183-1.454c0.62,0.07-2.722,1.642-3.636,0.728
				c-0.144-0.145,0.169-1.396,0-1.454c-1.384-0.49-4.015,2.36-4.361-1.454c-2.133,0.614,0.434,2.34,0,3.636
				c-3.153,0.486-1.676-3.658-5.092-2.909c-1.798,1.651,4.142,4.625,1.454,7.272c0.646-0.564,1.644-0.783,2.908-0.729
				c-2.188,3.406-5.126,2.772-7.27,0c-1.667,2.069,1.271,4.979-1.455,6.545c-1.007-3.128-4.875,2.409-7.272,0
				c0.812,2.276-0.726,4.017,2.182,5.088c-0.205-1.174,0.688-1.25,0.728-2.182C494.023,604.545,489.714,605.938,490.029,608.241z"/>
		</g>
	</g>
</g>
<g id="west" ng-click = "highlightMap(4)">
	<g id="Washington">
		<path fill="#FFFFFF" d="M83.552,66.514c1.612-0.4,1.036,1.389,2.182,1.455C85.438,69.779,82.915,68.012,83.552,66.514z"/>
		<path fill="#FFFFFF" d="M81.371,70.15c1.811,0.296,0.043,2.819-1.455,2.182C80.173,71.376,81.197,71.188,81.371,70.15z"/>
		<g>
			<path fill="#FFFFFF" d="M190.443,69.423c10.23,0.858,23.035,4.065,33.449,5.817c17.259,2.905,35.631,6.033,53.809,8.726
				c21.875,3.24,45.165,5.915,67.625,7.999c7.521,0.698,15.025,1.708,22.542,2.182c4.467,0.281,8.984,0.093,13.089,0.727
				c-3.012,30.922-3.809,64.058-7.271,94.529c-30.619-2.643-61.903-5.21-92.348-9.453c-8.465-1.18-17.075-3.167-25.451-2.909
				c-2.022,2.098-1.894,6.347-2.181,10.18c-3.024,0.116-1.453-4.365-3.636-5.09c-3.958-0.807-2.323,3.979-5.817,3.636
				c-3.032-0.917-6.34-2.088-9.453-2.182c-1.565-0.046-2.266,1.309-3.636,1.455c-1.378,0.146-2.746-0.733-4.363-0.728
				c-2.256,0.009-3.139,0.755-5.09,1.455c-0.815-3.788,0.018-11-5.817-11.634c-1.64-1.572,0.602-2.48,0-5.09
				c-0.271-2.149-2.153-3.366-2.909-5.818c-1.053-3.415-0.093-7.957-2.182-10.907c-2.793-0.475-4.035,2.567-5.817,2.908
				c-2.452,0.47-2.069-0.145-5.09-1.454c-0.955-2.141,1.454-2.206,1.454-3.636c0-0.282-0.504-1.125-0.727-0.727
				c1.007-1.793,1.943-0.955,2.909-2.909c-1.596-7.179,2.729-11.459,4.363-17.452c-0.013-2.411-4.109-0.738-5.09-2.182
				c1.93-1.962-0.442-0.313-1.455-1.454c-0.477-0.537-0.307-1.632-0.727-2.181c-1.12-1.465-1.091-0.364-0.727-2.182
				c0.091-0.454-1.204-1.699-1.455-2.182c-1.001-1.931-2.357-4.663-3.635-6.544c-0.83-1.222-1.933-1.73-2.909-2.909
				c-0.477-0.575-0.237-1.527-0.728-2.181c-0.615-0.821-1.572-1.455-1.454-2.908c0.101-1.235,0.891-1.604,0.727-2.909
				c-0.514-4.101-2.662-6.42-4.363-9.453C187.805,84.721,189.533,77.48,190.443,69.423z"/>
			<path fill="#FFFFFF" d="M373.686,190.13c-3.157,31.019-4.083,64.27-7.271,95.256c-42.966-3.086-84.58-7.527-124.343-13.816
				c3.58-21.927,6.688-46.384,10.18-70.534c0.519-3.592,1.649-7.173,2.182-10.907c0.644-4.515-0.256-9.448,2.908-12.362
				c4.566,0.417,15.417,1.832,23.269,2.909c24.986,3.425,53.143,6.734,79.259,8.726C364.463,189.753,369.111,190.346,373.686,190.13
				z"/>
			<path fill="#FFFFFF" d="M278.429,278.115c40.579,4.505,81.848,8.318,124.342,10.907c-2.059,31.632-2.926,64.457-5.09,95.984
				c-44.517-2.872-88.371-6.767-131.615-11.634c-0.146-3.683,0.237-7.808,0.727-11.634c3.328-25.958,7.23-55.344,10.908-81.441
				C277.639,279.265,277.582,278.237,278.429,278.115z"/>
			<path fill="#FFFFFF" d="M164.993,381.371c-2.896,0.229-1.969-3.363-4.363-3.636c-2.245,0.118-4.11-1.719-5.817,0
				c-1.911,0.383-1.43,2.148-1.454,3.636c-0.019,1.154,0.086,1.704,0,2.909c-0.184,2.569-0.534,5.35-0.728,7.999
				c-0.177,2.431,1.152,4.356,0.728,6.544c-0.357,1.839-3.287,2.127-2.182,4.362c-15.268-21.352-32.675-47.729-49.446-71.987
				c-2.633-3.81-5.954-7.903-8.726-12.362c-1.065-1.713-1.96-3.445-3.636-5.817c-0.323-0.456-1.188-1.024-1.454-1.453
				c-0.345-0.556-0.292-1.542-0.728-2.183c-0.738-1.084-2.128-1.76-2.909-2.908c-0.473-0.698-0.318-1.523-0.727-2.182
				c-1.374-2.211-4.421-5.543-6.544-8.726c-3.466-5.198-5.121-6.028-3.636-12.362c0.296-1.261,1.159-2.386,1.454-3.636
				c0.754-3.182,0.82-6.825,1.455-9.453c4.122-17.068,9.282-34.541,13.089-51.627c33.23,8.217,67.696,15.199,102.528,21.814
				c-5.363,28.692-10.136,59.279-15.998,87.985c-1.864,9.131-2.699,18.658-4.363,27.632c-0.822,4.43-2.081,8.692-2.908,13.089
				C167.838,373.209,168.031,377.869,164.993,381.371z"/>
			<path fill="#FFFFFF" d="M192.625,240.303c17.154,2.722,33.539,6.212,51.628,7.999c-0.835,8.618-1.985,16.921-3.636,24.723
				c12.719,0.854,23.782,3.365,36.357,4.363c-4.466,31.408-7.866,63.878-12.361,95.256c-32.226-3.405-62.455-8.807-93.076-13.815
				C178.655,319.409,185.904,280.119,192.625,240.303z"/>
			<path fill="#FFFFFF" d="M142.027,229.941c1.139-7.656,2.822-13.084,4.166-19.733c1.395-6.898,2.22-13.958,3.623-20.527
				c0.479-2.242,2.144-3.975,2.898-5.865c0.732-1.833,0.583-4.343,1.008-6.169c-0.685-1.507-3.503-1.083-3.393-3.394
				c-0.124-7.456,4.849-8.471,8.906-11.697c-1.349-2.284,0.588-3.269,1.516-4.785c0.828-1.353,1.994-4.482,2.909-5.817
				c2.09-3.05,4.675-4.118,4.605-6.787c-0.05-1.899-1.812-3.508-2.909-5.09c-1.053-1.516-1.618-1.737-2.499-3.913l0.725-1.466
				c-0.759-1.782,0.062-2.057-0.65-4.801c-0.216-0.833-0.295-3.342-0.243-4.121c-0.008,0.124,0.682-0.748,0.893-1.341
				c0.765-2.162-0.061-5.568,0.319-7.626c1.414-7.641,4.525-15.054,5.575-23.753c0.647-5.361,2.503-8.429,2.909-12.362
				c0.119-1.152,0.633-3.452,0.727-3.636c0.206-0.402,0.988-4.47,0.969-4.363c0.676-3.847,0.353-3.815,1.682-6.303l13.346,2.909
				c-0.914,8.323-2.148,14.575-3.878,22.058c1.708,3.133,3.256,5.422,3.772,9.658c0.164,1.348-0.629,1.729-0.729,3.005
				c-0.119,1.501,0.841,2.157,1.459,3.004c0.493,0.676,0.251,1.66,0.73,2.253c0.979,1.217,2.085,1.742,2.918,3.004
				c1.283,1.943,2.644,4.766,3.648,6.76c0.251,0.498,1.55,1.785,1.459,2.254c-0.365,1.876-0.395,0.74,0.729,2.253
				c0.422,0.568,0.251,1.698,0.729,2.253c1.016,1.178,3.702,0.372,1.765,2.398c0.984,1.491,4.789-1.132,4.802,1.357
				c-1.64,6.19-5.676,9.164-4.075,16.579c-0.97,2.018-1.909,1.153-2.919,3.004c0.224-0.411-0.232,1.552-0.232,1.843
				c0,1.478-0.715,1.667,0.242,3.878c3.032,1.353,3.6,1.698,6.06,1.212c1.788-0.352,2.044-2.915,4.847-2.424
				c2.026,2.945,0.546,6.577,1.697,10.423c0.758,2.532,2.394,3.355,2.666,5.575c0.604,2.696-1.161,3.951,0.484,5.574
				c7.229,0.81,4.797,5.842,6.06,11.877c1.958-0.723,2.826-1.203,5.09-1.212c1.623-0.006,2.495,0.636,3.878,0.484
				c1.375-0.15,3.519-1.745,5.09-1.696c3.124,0.096,5.926,0.993,8.968,1.939c3.507,0.355,1.845-3.984,5.817-3.151
				c2.19,0.75,0.115,5.452,3.151,5.333l-8.787,59.081L142.027,229.941z"/>
			<path fill="#FFFFFF" d="M20.29,310.837c2.896,0.74,2.749,4.522,5.817,5.09c0.091-0.891,0.125-2.92-0.728-6.544
				c-0.48-2.045-2.009-4.892-2.181-7.999c1.476-0.417,2.213-0.115,3.635,0c0.662,0.054,1.104,0.903,2.182,0.728
				c0.592-0.096,3.196-0.675,4.363,1.454c2.222,0.525,2.649-0.743,4.363-0.727c1.089,1.093,1.301,3.062,2.909,3.636
				c1.22-4.224-5.312-3.43-3.636-5.817c-3.261,2.68-6.282-2.168-8.726,0c-2.415-0.736-2.277-4.024-5.817-3.636
				c-2.177,0.732-1.435,4.382-2.182,6.544c-1.409-0.968-3.062-2.797-4.363-4.363c-1.142-1.375-3.294-2.389-2.181-4.363
				c0.79,0.18,0.493,1.445,1.454,1.454c-0.331-3.287-0.849-6.324-2.181-9.453c-0.37-0.868-0.984-0.84-1.455-1.455
				c-0.371-0.485-1.909-2.733-2.182-3.636c-0.186-0.613,0.283-1.612,0-2.182c-1.104-2.225-3.315-4.38-3.636-6.544
				c-0.145-0.98,1.353-2.86,1.454-5.09c0.1-2.188-0.945-3.934-0.727-5.09c0.744-3.946,3.658-5.03,2.909-10.908
				c-0.338-2.655-1.606-6.059-2.909-8.726c-0.752-1.541-2.757-3.229-2.908-5.09c-0.399-4.918,2.552-9.438,7.271-10.907
				c-2.067-1.269,1.132-2.464,1.454-3.636c0.27-0.982-0.505-3.053,0-4.363c0.755-1.958,2.865-3.004,3.636-5.09
				c1.53-4.143-0.865-9.978,1.454-14.543c23.812,5.76,45.886,13.256,70.534,18.179c-1.906,12.279-5.234,23.983-7.999,35.63
				c-2.779,11.705-5.711,23.292-8.726,34.904c14.515,22.124,30.366,43.373,45.083,65.443c0.875,1.312,1.286,3.033,2.182,4.361
				c0.738,1.098,2.182,1.854,2.908,2.909c0.897,1.301,1.286,3.032,2.182,4.363c0.736,1.093,2.191,1.854,2.909,2.908
				c0.878,1.29,1.317,3.169,2.182,4.362c0.793,1.096,2.165,1.835,2.908,2.908c0.876,1.265,1.395,3.145,2.182,4.363
				c0.308,0.477,1.184,1.019,1.455,1.454c4.565,7.345,10.101,16.05,15.997,23.269c-2.289,4.475,4.125,9.093,2.182,13.089
				c0.687,2.223,3.539,2.279,3.636,5.091c-0.626,2.65-3.768,2.533-5.09,3.636c-1.151,0.959-2.837,2.747-3.635,4.363
				c-0.94,1.901-0.276,5.808-1.455,7.999c-0.229,0.425-1.093,0.91-1.454,1.454c-0.659,0.992-1.478,2.204-3.636,2.908
				c0.235,3.325,0.748,4.037-0.727,6.545c-0.094,2.519,3.199,1.648,3.636,3.636c0.833,3.015-1.529,2.834-1.454,5.091
				c-14.942-1.297-34.565-3.558-51.627-5.091c-0.749-1.016,0.719-2.954,0.727-2.908c-0.402-2.38-2.018-0.721-2.181-2.183
				c-0.23-2.058,1.133-5.433,0.728-8.726c-1.113-9.029-8.569-12.271-12.362-19.633c-2.06-0.758-3.03-0.758-5.09,0
				c0.357-3.266-0.368-5.449-0.727-7.999c-5.66-1.629-8.98-1.622-12.361-5.09c-0.932-0.955-0.81-2.5-1.455-3.636
				c-1.971-3.47-4.665-5.971-9.453-5.816c-2.014-2.98-6.254-3.179-10.18-3.636c-1.513-0.177-1.942-3.692-4.363-3.636
				c2.232-3.1,1.541-9.125,3.636-12.361c-0.069-2.84-2.938-2.878-4.363-4.363c0.312-1.385,1.566-1.827,1.454-3.636
				c-0.255-2.283-2.506-3.308-3.635-5.091c-0.33-0.52,0.265-1.621,0-2.182c-0.22-0.463-2.38-1.681-2.909-2.909
				c-1.01-2.344-0.493-4.852-1.455-7.271c-0.329-0.828-1.699-1.175-2.182-2.183c-0.526-1.099-0.333-2.22-0.727-2.908
				c-1.862-3.254-3.309-5.062-2.181-10.907c2.619,0.438,2.143-2.219,4.363-2.182c0.225-2.648-0.115-4.731-0.727-6.544
				c-0.306-1.633-3.858-0.02-4.363-1.453c-1.091-2.347-3.111-3.736-3.636-6.546c-0.271-1.448,1.316-2.134,1.454-3.635
				c0.135-1.469-1.842-4.485-0.727-5.09"/>
			<path fill="#FFFFFF" d="M16.654,197.401c-1.812-4.748-0.346-11.128,2.182-13.816c-3.353-6.892,3.177-9.803,3.636-15.27
				c1.598,2.818,2.935-4.326,3.636,0c2.706-2.436-0.668-3.155,0.727-5.817c1.732-0.449,1.194-3.168,4.363-2.181
				c0.527-2.224-1.254-2.139-0.728-4.363c3.096-3.448,2.819-10.27,6.544-13.089c-0.734-7.938,6.36-13.873,7.271-22.542
				c1.076-0.842,1.833-0.842,2.909,0c-0.153-0.958-1.418-1.139-1.455-2.182c-0.046-1.325,1.097-1.381,1.455-2.908
				c0.288-1.229-0.225-2.743,0-3.636c0.686-2.729,2.22-5.017,2.182-7.999c2.353-0.898,0.556,2.353,2.909,1.454
				c1.889-2.075,5.967-0.192,5.817,2.182c3.591-0.682,4.932,0.885,6.544,2.181c-0.526,0.932,0.67,1.187,0.727,1.455
				c1.394,6.58-3.048,8.85,2.182,12.362c0.866,0.581,2.008,0.155,2.909,0.727c0.647,0.412,0.424,1.277,1.454,1.455
				c1.421,0.245,3.722,0.262,5.09,0c1.488-0.285,2.001-1.47,3.636-1.455c4.207,0.041,7.523,1.623,10.18,4.363
				c2.788,1.351,5.728-0.325,8.726,0c1.4,0.152,2.888,1.411,4.363,1.454c5.133,0.149,10.192-1.499,15.271-1.454
				c1.714,0.015,4.127,0.622,5.817,0.727c1.83,0.115,3.466-0.2,5.09,0c5.185,0.64,10.278,2.598,15.27,3.636
				c5.274,1.096,10.279,2.209,15.997,2.908c0.884,2.158,1.853,3.586,2.909,5.09c1.102,1.568,2.858,2.479,2.909,4.362
				c0.07,2.647-2.993,4.974-5.09,7.999c-0.918,1.324-1.35,3.021-2.182,4.363c-0.931,1.504-3.535,2.098-2.181,4.363
				c-4.072,3.199-8.85,5.692-8.726,13.088c-0.111,2.292,2.948,1.415,3.635,2.909c-0.427,1.811-0.174,3.817-0.909,5.635
				c-0.757,1.875-2.428,3.593-2.908,5.817c-1.409,6.516-2.237,13.518-3.636,20.36c-1.349,6.595-3.281,13.181-4.363,19.633
				c-34.396-6.441-68.153-15.761-100.165-24.542c-1.024-0.281-1.753-0.589-2.182-0.727
				C31.109,201.578,23.384,201.072,16.654,197.401z"/>
			<path fill="#FFFFFF" d="M53.012,99.236c0.487-2.714-2.015-4.267,1.454-4.363c-0.473-0.74-1.672-0.752-1.454-2.182
				c1.984-0.066,1.463,1.211,2.908,0c1.471-2.332-2.877-2.274-0.727-2.909c-0.074-1.401-2.709,1.129-3.635-0.727
				c-0.167-3.318,3.998-2.304,5.817-3.636c-2.197-0.711-2.952-2.865-5.09-3.635c1.236-3.146-0.61-6.688,0-10.907
				c0.25-1.727,1.099-5.755,0-8.726c-0.336-0.909-1.27-1.169-1.455-2.182c-0.312-1.708-0.185-4.293,0-5.817
				c0.007-0.057,1.272,0.952,1.455,0.727c0,0-0.825-1.59-0.727-2.181c0.186-1.135,3.559-2.592,0.727-2.182
				c0.209-1.982,1.222,0.578,2.181,1.454c1.85,1.69,3.482,1.572,2.181,4.363c0.74-0.473,0.752-1.672,2.182-1.455
				c0.201,3.023,3.293,2.382,6.544,3.636c0.342,0.132,0.458,1.337,0.727,1.454c1.031,0.451,3.189,0.086,4.363,0.728
				c0.998,0.546,1.843,2.381,4.362,0.727c-0.952,3.224,4.162,2.297,2.182,4.363c0.97,0,1.939,0,2.909,0c0,1.454,0,2.908,0,4.362
				c-3.014-1.552-2.73,1.509-4.363,0c-1.875,0.175,0.999,1.251,0,2.909c-0.976,0.677-6.087,3.535-6.544,5.09
				c-0.366,1.246,2.782,1.859,0.728,2.909c1.43-0.993,4.153-0.694,5.817-1.455c-2.082,1.554-3.101,4.17-6.544,4.363
				c1.474,0.95,0.999,3.849,2.909,4.363c0.679-0.533,1.102-1.322,1.454-2.182c0.039,1.089,1.766,1.301,0.727,2.909
				c2.472-1.054,2.74-3.25,4.363-4.363c0.631-0.433,0.707,0.73,0.727,0.727c1.354-0.194,2.827-2.387,4.363-2.908
				c-0.591-1.4,0.69-3.008,0.727-4.363c0.018-0.662-0.618-2.563-0.727-2.181c0.27-0.945,1.058-0.13,1.454-0.728
				c0.449-0.678-0.433-2.219,0-2.909c0.616-0.98,2.643-1.301,2.909-2.909c1.267,0.657,2.801,1.626,1.454,2.909
				c2.659-1.382-1.561-3.479-2.182-6.544c-0.429-2.12,2.002-4.836-0.727-6.545c1.089-1.942,2.675-5.623,2.182-8.726
				c-0.157-0.983-1.157-0.149-1.455-0.727c-0.156-0.304,1.062-2.244,0-0.728c-1.234-0.472-0.454-1.671,0.728-1.454
				c0.037-1.377-1.73-0.129-1.455,0c-1.811-0.851,0.807-3.015-0.727-1.454c-1.19-3.363,1.867-0.843,2.909-0.727
				c2.208,0.245,6.137,0.744,8.726,1.454c2.612,0.718,5.133,2.31,7.271,2.909c1.123,0.314,2.49-0.233,3.636,0
				c2.326,0.473,4.265,2.522,5.817,2.909c0.404,0.1,1.771-0.885,2.909-0.728c1.651,0.229,3.41,1.739,5.09,2.182
				c1.136,0.299,2.491-0.267,3.636,0c1.567,0.366,3.501,1.907,5.09,2.182c4.433,0.766,8.235,1.933,12.362,2.908
				c4.434,1.048,8.701,1.205,13.089,2.182c0.881,0.196,2.155,1.284,2.908,1.455c5.3,1.196,10.564,1.054,15.271,2.909
				c-1.334,2.466-0.776,4.183-1.455,7.999c0.019-0.106-0.52,2.51-0.727,2.909c-0.094,0.182-1.433,0.627-1.454,0.727
				c-0.09,0.425,0.846,1.766,0.727,2.909c-0.407,3.901-2.259,7.044-2.908,12.362c-1.054,8.629-4.4,17.872-5.818,25.45
				c-0.382,2.042,0.041,3.673-0.727,5.817c-0.211,0.589-1.462,2.304-1.454,2.182c-0.053,0.772,1.237,1.355,1.454,2.182
				c0.715,2.723-0.761,4.05,0,5.817c-5.366,0.89-10.634-1.757-15.997-2.909c-3.181-0.683-7.313-0.436-10.18-1.455
				c-0.24-0.085-0.579-1.419-0.727-1.454c-0.354-0.084-1.34,0.77-2.182,0.727c-1.342-0.068-3.083-1.321-4.363-1.454
				c-2.423-0.253-2.804,0.389-5.09,0c-1.15-0.196-5.936-0.703-5.817-0.728c-0.46,0.097-0.734,1.455-0.727,1.455
				c-1.188,0.052-2.682-0.794-4.363-0.727c-1.475,0.059-8.141,1.789-9.453,1.454c-0.512-0.131-0.783-2.071-2.181-1.454
				c1.211-1.445-0.065-0.925,0-2.909c-0.915,0.18-0.733,1.446,0,1.454c-0.065,1.454-1.595,0.03-1.454,0
				c-0.628,0.133-1.213,1.416-1.455,1.455c-2.139,0.346-4.34-0.245-7.271,0c0.529-1.984-1.446-1.463-1.455-2.909
				c-4.22,0.138-5.958-2.283-9.453-2.181c-0.798,0.023-1.709,1.32-2.181,1.454c-1.083,0.306-1.087-0.711-1.455-0.727
				c-1.93-0.083-2.864,1.571-3.636,1.454c-1.608-0.243-4.041-3.18-6.544-3.636c-0.284-4.496,0.966-7.267,0-10.907
				c-0.104-0.394-0.22-1.926,0-1.455c-0.514-1.1-0.566,0.083-0.727,0c-3.087-1.586-1.315-4.818-5.817-2.909
				c1.35-1.485-0.348-0.981,0-0.727c-0.659-0.482-0.821-2.497-2.182-2.908c-0.5-0.151-1.773,0.305-2.182,0
				c-0.525-0.392-0.384-2.263-2.181-1.455"/>
		</g>
		<path fill="#FFFFFF" d="M77.735,75.24c-0.435,1.89,0.292,2.617,2.181,2.181c0.906,3.088-2.419,1.945-2.909,3.636
			c-0.983-1.44-2.019-2.829-5.09-2.182c-0.211-2.824,3.9-2.248,2.181-2.908c1.083-1.568,2.053,0.795,2.909-1.455"/>
		<line fill="#FFFFFF" x1="77.008" y1="74.513" x2="77.008" y2="75.24"/>
		<path fill="#FFFFFF" d="M77.008,75.24c0.515-0.212,0.845-0.609,1.091-1.091"/>
		<line fill="#FFFFFF" x1="77.008" y1="75.24" x2="77.735" y2="75.24"/>
	</g>
</g>
</svg>
